<svg width="787" height="665" viewBox="0 0 787 665" fill="none" xmlns="http://www.w3.org/2000/svg">
<path d="M608.746 67.632C607.875 66.9229 606.994 66.2505 606.124 65.5659C580.954 45.9019 553.976 29.9272 525.748 17.9716L519.203 128.271H477.709V1.87051C475.096 1.21033 472.464 0.586828 469.832 0V128.271H420.522C393.376 128.271 367.342 115.098 348.147 91.6502C328.952 68.2023 318.168 36.4002 318.168 3.23992V3.23981C315.526 3.93667 312.904 4.68243 310.282 5.4771V128.271H270.119L263.884 23.0942C234.875 36.6845 207.335 54.5564 181.877 76.3122C181.436 76.6789 180.996 77.0579 180.565 77.4247C178.354 79.3197 176.172 81.2513 174 83.2074V504H292.367L290.275 468.607L278.766 274.281H510.545L499.036 468.607L496.944 504H614V71.8865C612.259 70.4439 610.507 69.0257 608.746 67.632ZM310.282 242.189H276.864L270.689 137.905H310.282V242.189ZM469.832 242.189H413.706V240.123C413.706 239.13 413.546 238.146 413.235 237.229C412.923 236.311 412.467 235.478 411.891 234.776C411.316 234.074 410.633 233.518 409.881 233.139C409.13 232.76 408.324 232.566 407.511 232.567H383.111C382.299 232.567 381.495 232.762 380.744 233.142C379.993 233.521 379.311 234.078 378.737 234.779C378.163 235.481 377.707 236.314 377.396 237.231C377.086 238.148 376.926 239.131 376.926 240.123V242.189H318.168V137.905H469.832V242.189ZM477.709 242.189V137.905H518.632L512.457 242.189H477.709Z" fill="#3F3D56"/>
<path d="M0 526.284C8.68725 536.578 18.0835 546.252 28.12 555.234L758.7 556.234C768.736 547.252 778.133 537.578 786.82 527.284L0 526.284Z" fill="#3F3D56"/>
<path d="M495.43 433.584V519.288C495.431 520.38 495.865 521.427 496.637 522.2C497.41 522.972 498.457 523.406 499.549 523.407H626.554C627.646 523.406 628.693 522.972 629.465 522.2C630.238 521.427 630.672 520.38 630.673 519.288V433.584C630.67 432.493 630.235 431.447 629.463 430.676C628.691 429.905 627.645 429.471 626.554 429.469H499.549C498.458 429.471 497.412 429.905 496.64 430.676C495.868 431.447 495.433 432.493 495.43 433.584V433.584Z" fill="#3F3D56"/>
<path d="M498.41 434.651V518.231C498.411 518.814 498.643 519.374 499.055 519.786C499.468 520.199 500.027 520.431 500.611 520.432H625.496C626.08 520.431 626.639 520.199 627.052 519.786C627.465 519.374 627.697 518.814 627.698 518.231V434.651C627.698 434.066 627.466 433.506 627.053 433.092C626.641 432.679 626.081 432.446 625.496 432.445H500.611C500.027 432.446 499.467 432.679 499.054 433.092C498.641 433.506 498.41 434.066 498.41 434.651V434.651Z" fill="#ADADAD"/>
<path d="M492.774 536.004C493.007 536.295 493.302 536.531 493.639 536.692C493.976 536.853 494.344 536.936 494.717 536.934H630.709C631.081 536.933 631.448 536.85 631.784 536.69C632.119 536.529 632.415 536.296 632.649 536.008C632.884 535.719 633.051 535.381 633.138 535.02C633.226 534.658 633.231 534.282 633.155 533.918L631.044 523.891C630.957 523.482 630.768 523.101 630.496 522.784C630.224 522.466 629.877 522.222 629.486 522.073C629.203 521.962 628.902 521.905 628.598 521.905H496.82C496.516 521.905 496.215 521.962 495.932 522.073C495.541 522.222 495.194 522.466 494.922 522.784C494.65 523.101 494.461 523.482 494.374 523.891L492.263 533.918C492.188 534.282 492.195 534.658 492.283 535.019C492.372 535.379 492.539 535.716 492.774 536.004V536.004Z" fill="#2F2E41"/>
<path d="M623.932 526.224H627.144C627.414 526.224 627.632 526.006 627.632 525.736V524.199C627.632 523.93 627.414 523.711 627.144 523.711H623.932C623.663 523.711 623.444 523.93 623.444 524.199V525.736C623.444 526.006 623.663 526.224 623.932 526.224Z" fill="#3F3D56"/>
<path d="M615.555 526.224H618.767C619.037 526.224 619.255 526.006 619.255 525.736V524.199C619.255 523.93 619.037 523.711 618.767 523.711H615.555C615.286 523.711 615.067 523.93 615.067 524.199V525.736C615.067 526.006 615.286 526.224 615.555 526.224Z" fill="#3F3D56"/>
<path d="M607.178 526.224H610.39C610.66 526.224 610.878 526.006 610.878 525.736V524.199C610.878 523.93 610.66 523.711 610.39 523.711H607.178C606.908 523.711 606.69 523.93 606.69 524.199V525.736C606.69 526.006 606.908 526.224 607.178 526.224Z" fill="#3F3D56"/>
<path d="M598.801 526.224H602.013C602.283 526.224 602.502 526.006 602.502 525.736V524.199C602.502 523.93 602.283 523.711 602.013 523.711H598.801C598.532 523.711 598.313 523.93 598.313 524.199V525.736C598.313 526.006 598.532 526.224 598.801 526.224Z" fill="#3F3D56"/>
<path d="M590.424 526.224H593.636C593.906 526.224 594.124 526.006 594.124 525.736V524.199C594.124 523.93 593.906 523.711 593.636 523.711H590.424C590.155 523.711 589.936 523.93 589.936 524.199V525.736C589.936 526.006 590.155 526.224 590.424 526.224Z" fill="#3F3D56"/>
<path d="M582.047 526.224H585.259C585.529 526.224 585.747 526.006 585.747 525.736V524.199C585.747 523.93 585.529 523.711 585.259 523.711H582.047C581.777 523.711 581.559 523.93 581.559 524.199V525.736C581.559 526.006 581.777 526.224 582.047 526.224Z" fill="#3F3D56"/>
<path d="M573.67 526.224H576.882C577.152 526.224 577.37 526.006 577.37 525.736V524.199C577.37 523.93 577.152 523.711 576.882 523.711H573.67C573.401 523.711 573.182 523.93 573.182 524.199V525.736C573.182 526.006 573.401 526.224 573.67 526.224Z" fill="#3F3D56"/>
<path d="M565.293 526.224H568.505C568.775 526.224 568.994 526.006 568.994 525.736V524.199C568.994 523.93 568.775 523.711 568.505 523.711H565.293C565.024 523.711 564.805 523.93 564.805 524.199V525.736C564.805 526.006 565.024 526.224 565.293 526.224Z" fill="#3F3D56"/>
<path d="M556.916 526.224H560.128C560.398 526.224 560.617 526.006 560.617 525.736V524.199C560.617 523.93 560.398 523.711 560.128 523.711H556.916C556.647 523.711 556.428 523.93 556.428 524.199V525.736C556.428 526.006 556.647 526.224 556.916 526.224Z" fill="#3F3D56"/>
<path d="M548.539 526.224H551.751C552.021 526.224 552.24 526.006 552.24 525.736V524.199C552.24 523.93 552.021 523.711 551.751 523.711H548.539C548.27 523.711 548.051 523.93 548.051 524.199V525.736C548.051 526.006 548.27 526.224 548.539 526.224Z" fill="#3F3D56"/>
<path d="M540.162 526.224H543.374C543.644 526.224 543.862 526.006 543.862 525.736V524.199C543.862 523.93 543.644 523.711 543.374 523.711H540.162C539.892 523.711 539.674 523.93 539.674 524.199V525.736C539.674 526.006 539.892 526.224 540.162 526.224Z" fill="#3F3D56"/>
<path d="M531.785 526.224H534.997C535.267 526.224 535.485 526.006 535.485 525.736V524.199C535.485 523.93 535.267 523.711 534.997 523.711H531.785C531.516 523.711 531.297 523.93 531.297 524.199V525.736C531.297 526.006 531.516 526.224 531.785 526.224Z" fill="#3F3D56"/>
<path d="M523.408 526.224H526.62C526.89 526.224 527.109 526.006 527.109 525.736V524.199C527.109 523.93 526.89 523.711 526.62 523.711H523.408C523.139 523.711 522.92 523.93 522.92 524.199V525.736C522.92 526.006 523.139 526.224 523.408 526.224Z" fill="#3F3D56"/>
<path d="M515.031 526.224H518.243C518.513 526.224 518.732 526.006 518.732 525.736V524.199C518.732 523.93 518.513 523.711 518.243 523.711H515.031C514.762 523.711 514.543 523.93 514.543 524.199V525.736C514.543 526.006 514.762 526.224 515.031 526.224Z" fill="#3F3D56"/>
<path d="M506.654 526.224H509.866C510.136 526.224 510.355 526.006 510.355 525.736V524.199C510.355 523.93 510.136 523.711 509.866 523.711H506.654C506.385 523.711 506.166 523.93 506.166 524.199V525.736C506.166 526.006 506.385 526.224 506.654 526.224Z" fill="#3F3D56"/>
<path d="M498.277 526.224H501.49C501.759 526.224 501.978 526.006 501.978 525.736V524.199C501.978 523.93 501.759 523.711 501.49 523.711H498.277C498.008 523.711 497.789 523.93 497.789 524.199V525.736C497.789 526.006 498.008 526.224 498.277 526.224Z" fill="#3F3D56"/>
<path d="M624.031 530.413H627.243C627.513 530.413 627.731 530.194 627.731 529.925V528.388C627.731 528.118 627.513 527.9 627.243 527.9H624.031C623.761 527.9 623.543 528.118 623.543 528.388V529.925C623.543 530.194 623.761 530.413 624.031 530.413Z" fill="#3F3D56"/>
<path d="M615.654 530.413H618.866C619.136 530.413 619.355 530.194 619.355 529.925V528.388C619.355 528.118 619.136 527.9 618.866 527.9H615.654C615.385 527.9 615.166 528.118 615.166 528.388V529.925C615.166 530.194 615.385 530.413 615.654 530.413Z" fill="#3F3D56"/>
<path d="M607.277 530.413H610.489C610.759 530.413 610.977 530.194 610.977 529.925V528.388C610.977 528.118 610.759 527.9 610.489 527.9H607.277C607.008 527.9 606.789 528.118 606.789 528.388V529.925C606.789 530.194 607.008 530.413 607.277 530.413Z" fill="#3F3D56"/>
<path d="M598.9 530.413H602.112C602.382 530.413 602.6 530.194 602.6 529.925V528.388C602.6 528.118 602.382 527.9 602.112 527.9H598.9C598.631 527.9 598.412 528.118 598.412 528.388V529.925C598.412 530.194 598.631 530.413 598.9 530.413Z" fill="#3F3D56"/>
<path d="M590.523 530.413H593.735C594.005 530.413 594.223 530.194 594.223 529.925V528.388C594.223 528.118 594.005 527.9 593.735 527.9H590.523C590.253 527.9 590.035 528.118 590.035 528.388V529.925C590.035 530.194 590.253 530.413 590.523 530.413Z" fill="#3F3D56"/>
<path d="M582.146 530.413H585.358C585.628 530.413 585.846 530.194 585.846 529.925V528.388C585.846 528.118 585.628 527.9 585.358 527.9H582.146C581.876 527.9 581.658 528.118 581.658 528.388V529.925C581.658 530.194 581.876 530.413 582.146 530.413Z" fill="#3F3D56"/>
<path d="M573.769 530.413H576.981C577.251 530.413 577.469 530.194 577.469 529.925V528.388C577.469 528.118 577.251 527.9 576.981 527.9H573.769C573.499 527.9 573.281 528.118 573.281 528.388V529.925C573.281 530.194 573.499 530.413 573.769 530.413Z" fill="#3F3D56"/>
<path d="M565.392 530.413H568.604C568.874 530.413 569.092 530.194 569.092 529.925V528.388C569.092 528.118 568.874 527.9 568.604 527.9H565.392C565.122 527.9 564.904 528.118 564.904 528.388V529.925C564.904 530.194 565.122 530.413 565.392 530.413Z" fill="#3F3D56"/>
<path d="M557.015 530.413H560.227C560.497 530.413 560.715 530.194 560.715 529.925V528.388C560.715 528.118 560.497 527.9 560.227 527.9H557.015C556.746 527.9 556.527 528.118 556.527 528.388V529.925C556.527 530.194 556.746 530.413 557.015 530.413Z" fill="#3F3D56"/>
<path d="M548.638 530.413H551.85C552.12 530.413 552.339 530.194 552.339 529.925V528.388C552.339 528.118 552.12 527.9 551.85 527.9H548.638C548.369 527.9 548.15 528.118 548.15 528.388V529.925C548.15 530.194 548.369 530.413 548.638 530.413Z" fill="#3F3D56"/>
<path d="M540.261 530.413H543.474C543.743 530.413 543.962 530.194 543.962 529.925V528.388C543.962 528.118 543.743 527.9 543.474 527.9H540.261C539.992 527.9 539.773 528.118 539.773 528.388V529.925C539.773 530.194 539.992 530.413 540.261 530.413Z" fill="#3F3D56"/>
<path d="M531.884 530.413H535.096C535.366 530.413 535.585 530.194 535.585 529.925V528.388C535.585 528.118 535.366 527.9 535.096 527.9H531.884C531.615 527.9 531.396 528.118 531.396 528.388V529.925C531.396 530.194 531.615 530.413 531.884 530.413Z" fill="#3F3D56"/>
<path d="M523.507 530.413H526.719C526.989 530.413 527.208 530.194 527.208 529.925V528.388C527.208 528.118 526.989 527.9 526.719 527.9H523.507C523.238 527.9 523.019 528.118 523.019 528.388V529.925C523.019 530.194 523.238 530.413 523.507 530.413Z" fill="#3F3D56"/>
<path d="M515.13 530.413H518.342C518.612 530.413 518.831 530.194 518.831 529.925V528.388C518.831 528.118 518.612 527.9 518.342 527.9H515.13C514.861 527.9 514.642 528.118 514.642 528.388V529.925C514.642 530.194 514.861 530.413 515.13 530.413Z" fill="#3F3D56"/>
<path d="M506.753 530.413H509.966C510.235 530.413 510.454 530.194 510.454 529.925V528.388C510.454 528.118 510.235 527.9 509.966 527.9H506.753C506.484 527.9 506.265 528.118 506.265 528.388V529.925C506.265 530.194 506.484 530.413 506.753 530.413Z" fill="#3F3D56"/>
<path d="M498.377 530.413H501.589C501.858 530.413 502.077 530.194 502.077 529.925V528.388C502.077 528.118 501.858 527.9 501.589 527.9H498.377C498.107 527.9 497.888 528.118 497.888 528.388V529.925C497.888 530.194 498.107 530.413 498.377 530.413Z" fill="#3F3D56"/>
<path d="M554.502 535.439H587.034C587.303 535.439 587.522 535.22 587.522 534.951V533.414C587.522 533.144 587.303 532.926 587.034 532.926H554.502C554.232 532.926 554.014 533.144 554.014 533.414V534.951C554.014 535.22 554.232 535.439 554.502 535.439Z" fill="#3F3D56"/>
<path d="M520.036 450.73H517.192C516.33 450.73 515.631 451.429 515.631 452.291C515.631 453.153 516.33 453.852 517.192 453.852H520.036C520.898 453.852 521.597 453.153 521.597 452.291C521.597 451.429 520.898 450.73 520.036 450.73Z" fill="white"/>
<path d="M552.559 450.73H549.715C548.853 450.73 548.154 451.429 548.154 452.291C548.154 453.153 548.853 453.852 549.715 453.852H552.559C553.421 453.852 554.12 453.153 554.12 452.291C554.12 451.429 553.421 450.73 552.559 450.73Z" fill="white"/>
<path d="M561.774 450.73H558.93C558.068 450.73 557.369 451.429 557.369 452.291C557.369 453.153 558.068 453.852 558.93 453.852H561.774C562.636 453.852 563.335 453.153 563.335 452.291C563.335 451.429 562.636 450.73 561.774 450.73Z" fill="white"/>
<path d="M543.713 450.47H526.039C525.177 450.47 524.478 451.169 524.478 452.031C524.478 452.893 525.177 453.592 526.039 453.592H543.713C544.575 453.592 545.274 452.893 545.274 452.031C545.274 451.169 544.575 450.47 543.713 450.47Z" fill="white"/>
<path d="M587.076 450.47H569.403C568.54 450.47 567.841 451.169 567.841 452.031C567.841 452.893 568.54 453.592 569.403 453.592H587.076C587.939 453.592 588.638 452.893 588.638 452.031C588.638 451.169 587.939 450.47 587.076 450.47Z" fill="white"/>
<path d="M528.709 457.777H525.865C525.003 457.777 524.304 458.476 524.304 459.338C524.304 460.2 525.003 460.899 525.865 460.899H528.709C529.571 460.899 530.27 460.2 530.27 459.338C530.27 458.476 529.571 457.777 528.709 457.777Z" fill="white"/>
<path d="M561.232 457.777H558.388C557.526 457.777 556.827 458.476 556.827 459.338C556.827 460.2 557.526 460.899 558.388 460.899H561.232C562.094 460.899 562.793 460.2 562.793 459.338C562.793 458.476 562.094 457.777 561.232 457.777Z" fill="white"/>
<path d="M570.447 457.777H567.603C566.741 457.777 566.042 458.476 566.042 459.338C566.042 460.2 566.741 460.899 567.603 460.899H570.447C571.309 460.899 572.008 460.2 572.008 459.338C572.008 458.476 571.309 457.777 570.447 457.777Z" fill="white"/>
<path d="M552.385 457.517H534.711C533.849 457.517 533.15 458.216 533.15 459.078C533.15 459.94 533.849 460.639 534.711 460.639H552.385C553.247 460.639 553.946 459.94 553.946 459.078C553.946 458.216 553.247 457.517 552.385 457.517Z" fill="white"/>
<path d="M595.749 457.517H578.075C577.213 457.517 576.514 458.216 576.514 459.078C576.514 459.94 577.213 460.639 578.075 460.639H595.749C596.611 460.639 597.31 459.94 597.31 459.078C597.31 458.216 596.611 457.517 595.749 457.517Z" fill="white"/>
<path d="M537.382 464.824H534.538C533.676 464.824 532.977 465.523 532.977 466.385C532.977 467.247 533.676 467.946 534.538 467.946H537.382C538.244 467.946 538.943 467.247 538.943 466.385C538.943 465.523 538.244 464.824 537.382 464.824Z" fill="white"/>
<path d="M569.905 464.824H567.061C566.199 464.824 565.5 465.523 565.5 466.385C565.5 467.247 566.199 467.946 567.061 467.946H569.905C570.767 467.946 571.466 467.247 571.466 466.385C571.466 465.523 570.767 464.824 569.905 464.824Z" fill="white"/>
<path d="M579.12 464.824H576.276C575.414 464.824 574.715 465.523 574.715 466.385C574.715 467.247 575.414 467.946 576.276 467.946H579.12C579.982 467.946 580.681 467.247 580.681 466.385C580.681 465.523 579.982 464.824 579.12 464.824Z" fill="white"/>
<path d="M561.058 464.563H543.384C542.522 464.563 541.823 465.262 541.823 466.124C541.823 466.987 542.522 467.685 543.384 467.685H561.058C561.92 467.685 562.619 466.987 562.619 466.124C562.619 465.262 561.92 464.563 561.058 464.563Z" fill="white"/>
<path d="M604.422 464.563H586.748C585.886 464.563 585.187 465.262 585.187 466.124C585.187 466.987 585.886 467.685 586.748 467.685H604.422C605.284 467.685 605.983 466.987 605.983 466.124C605.983 465.262 605.284 464.563 604.422 464.563Z" fill="white"/>
<path d="M546.054 471.87H543.211C542.348 471.87 541.65 472.569 541.65 473.431C541.65 474.294 542.348 474.992 543.211 474.992H546.054C546.916 474.992 547.615 474.294 547.615 473.431C547.615 472.569 546.916 471.87 546.054 471.87Z" fill="white"/>
<path d="M578.577 471.87H575.734C574.871 471.87 574.172 472.569 574.172 473.431C574.172 474.294 574.871 474.992 575.734 474.992H578.577C579.439 474.992 580.138 474.294 580.138 473.431C580.138 472.569 579.439 471.87 578.577 471.87Z" fill="white"/>
<path d="M587.792 471.87H584.948C584.086 471.87 583.387 472.569 583.387 473.431C583.387 474.294 584.086 474.992 584.948 474.992H587.792C588.654 474.992 589.353 474.294 589.353 473.431C589.353 472.569 588.654 471.87 587.792 471.87Z" fill="white"/>
<path d="M569.731 471.61H552.057C551.195 471.61 550.496 472.309 550.496 473.171C550.496 474.033 551.195 474.732 552.057 474.732H569.731C570.593 474.732 571.292 474.033 571.292 473.171C571.292 472.309 570.593 471.61 569.731 471.61Z" fill="white"/>
<path d="M552.559 499.891H549.715C548.853 499.891 548.154 500.59 548.154 501.452C548.154 502.314 548.853 503.013 549.715 503.013H552.559C553.421 503.013 554.12 502.314 554.12 501.452C554.12 500.59 553.421 499.891 552.559 499.891Z" fill="white"/>
<path d="M561.774 499.891H558.93C558.068 499.891 557.369 500.59 557.369 501.452C557.369 502.314 558.068 503.013 558.93 503.013H561.774C562.636 503.013 563.335 502.314 563.335 501.452C563.335 500.59 562.636 499.891 561.774 499.891Z" fill="white"/>
<path d="M587.076 500.151H569.403C568.54 500.151 567.841 500.85 567.841 501.712C567.841 502.575 568.54 503.273 569.403 503.273H587.076C587.939 503.273 588.638 502.575 588.638 501.712C588.638 500.85 587.939 500.151 587.076 500.151Z" fill="white"/>
<path d="M520.036 499.891H517.192C516.33 499.891 515.631 500.59 515.631 501.452C515.631 502.314 516.33 503.013 517.192 503.013H520.036C520.898 503.013 521.597 502.314 521.597 501.452C521.597 500.59 520.898 499.891 520.036 499.891Z" fill="white"/>
<path d="M543.713 500.151H526.039C525.177 500.151 524.478 500.85 524.478 501.712C524.478 502.575 525.177 503.273 526.039 503.273H543.713C544.575 503.273 545.274 502.575 545.274 501.712C545.274 500.85 544.575 500.151 543.713 500.151Z" fill="white"/>
<path d="M528.709 492.844H525.865C525.003 492.844 524.304 493.543 524.304 494.406C524.304 495.268 525.003 495.967 525.865 495.967H528.709C529.571 495.967 530.27 495.268 530.27 494.406C530.27 493.543 529.571 492.844 528.709 492.844Z" fill="white"/>
<path d="M561.232 492.844H558.388C557.526 492.844 556.827 493.543 556.827 494.406C556.827 495.268 557.526 495.967 558.388 495.967H561.232C562.094 495.967 562.793 495.268 562.793 494.406C562.793 493.543 562.094 492.844 561.232 492.844Z" fill="white"/>
<path d="M570.447 492.844H567.603C566.741 492.844 566.042 493.543 566.042 494.406C566.042 495.268 566.741 495.967 567.603 495.967H570.447C571.309 495.967 572.008 495.268 572.008 494.406C572.008 493.543 571.309 492.844 570.447 492.844Z" fill="white"/>
<path d="M552.385 493.105H534.711C533.849 493.105 533.15 493.804 533.15 494.666C533.15 495.528 533.849 496.227 534.711 496.227H552.385C553.247 496.227 553.946 495.528 553.946 494.666C553.946 493.804 553.247 493.105 552.385 493.105Z" fill="white"/>
<path d="M537.382 485.798H534.538C533.676 485.798 532.977 486.497 532.977 487.359C532.977 488.221 533.676 488.92 534.538 488.92H537.382C538.244 488.92 538.943 488.221 538.943 487.359C538.943 486.497 538.244 485.798 537.382 485.798Z" fill="white"/>
<path d="M569.905 485.798H567.061C566.199 485.798 565.5 486.497 565.5 487.359C565.5 488.221 566.199 488.92 567.061 488.92H569.905C570.767 488.92 571.466 488.221 571.466 487.359C571.466 486.497 570.767 485.798 569.905 485.798Z" fill="white"/>
<path d="M579.12 485.798H576.276C575.414 485.798 574.715 486.497 574.715 487.359C574.715 488.221 575.414 488.92 576.276 488.92H579.12C579.982 488.92 580.681 488.221 580.681 487.359C580.681 486.497 579.982 485.798 579.12 485.798Z" fill="white"/>
<path d="M561.058 486.058H543.384C542.522 486.058 541.823 486.757 541.823 487.619C541.823 488.481 542.522 489.18 543.384 489.18H561.058C561.92 489.18 562.619 488.481 562.619 487.619C562.619 486.757 561.92 486.058 561.058 486.058Z" fill="white"/>
<path d="M546.054 478.751H543.211C542.348 478.751 541.65 479.45 541.65 480.312C541.65 481.174 542.348 481.873 543.211 481.873H546.054C546.916 481.873 547.615 481.174 547.615 480.312C547.615 479.45 546.916 478.751 546.054 478.751Z" fill="white"/>
<path d="M578.577 478.751H575.734C574.871 478.751 574.172 479.45 574.172 480.312C574.172 481.174 574.871 481.873 575.734 481.873H578.577C579.439 481.873 580.138 481.174 580.138 480.312C580.138 479.45 579.439 478.751 578.577 478.751Z" fill="white"/>
<path d="M587.792 478.751H584.948C584.086 478.751 583.387 479.45 583.387 480.312C583.387 481.174 584.086 481.873 584.948 481.873H587.792C588.654 481.873 589.353 481.174 589.353 480.312C589.353 479.45 588.654 478.751 587.792 478.751Z" fill="white"/>
<path d="M569.731 479.011H552.057C551.195 479.011 550.496 479.71 550.496 480.572C550.496 481.435 551.195 482.133 552.057 482.133H569.731C570.593 482.133 571.292 481.435 571.292 480.572C571.292 479.71 570.593 479.011 569.731 479.011Z" fill="white"/>
<path d="M504.917 582.475L491.568 561.374L533.47 527.971L550.765 508.81C553.012 506.32 555.873 504.464 559.062 503.427C562.251 502.39 565.657 502.208 568.938 502.899C572.22 503.59 575.262 505.13 577.762 507.366C580.262 509.601 582.131 512.453 583.183 515.638C584.742 520.356 584.407 525.496 582.248 529.972C580.089 534.448 576.276 537.911 571.613 539.629L544.264 549.704L504.917 582.475Z" fill="#FFB6B6"/>
<path d="M191.69 429.473V532.033H263.54V429.473C263.541 428.736 263.306 428.017 262.869 427.423C262.431 426.829 261.815 426.391 261.11 426.173C260.778 426.064 260.43 426.009 260.08 426.013H195.16C194.705 426.012 194.254 426.101 193.833 426.275C193.413 426.448 193.03 426.703 192.708 427.024C192.386 427.345 192.13 427.727 191.955 428.147C191.781 428.568 191.69 429.018 191.69 429.473V429.473ZM219.73 464.713C219.749 462.691 220.565 460.759 222.002 459.336C223.438 457.912 225.378 457.114 227.4 457.114C229.422 457.114 231.362 457.912 232.799 459.336C234.235 460.759 235.051 462.691 235.07 464.713V476.613C235.06 478.641 234.247 480.582 232.81 482.012C231.373 483.441 229.428 484.244 227.4 484.244C225.373 484.244 223.428 483.441 221.99 482.012C220.553 480.582 219.74 478.641 219.73 476.613V464.713Z" fill="#2F2E41"/>
<path d="M191.47 528.755V538.645C191.472 539.157 191.675 539.648 192.037 540.011C192.398 540.374 192.888 540.58 193.4 540.585H261.83C262.343 540.582 262.834 540.376 263.196 540.013C263.557 539.649 263.76 539.157 263.76 538.645V528.755H191.47Z" fill="#3F3D56"/>
<path d="M78.66 274.955V462.215C78.6619 464.602 79.6107 466.89 81.2982 468.577C82.9856 470.265 85.2737 471.213 87.66 471.215H365.16C367.546 471.213 369.834 470.265 371.522 468.577C373.209 466.89 374.158 464.602 374.16 462.215V274.955C374.154 272.571 373.204 270.286 371.517 268.601C369.83 266.916 367.544 265.968 365.16 265.965H87.66C85.2757 265.968 82.9898 266.916 81.3029 268.601C79.6161 270.286 78.6657 272.571 78.66 274.955Z" fill="#3F3D56"/>
<path d="M85.17 277.285V459.905C85.1722 461.18 85.6797 462.402 86.5813 463.304C87.4828 464.205 88.705 464.713 89.98 464.715H362.85C364.125 464.713 365.347 464.205 366.249 463.304C367.15 462.402 367.658 461.18 367.66 459.905V277.285C367.66 276.009 367.154 274.784 366.252 273.881C365.35 272.977 364.127 272.468 362.85 272.465H89.98C88.7035 272.468 87.4801 272.977 86.5784 273.881C85.6767 274.784 85.1702 276.009 85.17 277.285Z" fill="white"/>
<path d="M135.81 539.915C136.088 540.263 136.441 540.544 136.843 540.736C137.244 540.928 137.685 541.027 138.13 541.025H300.47C300.914 541.024 301.352 540.925 301.753 540.733C302.154 540.542 302.507 540.264 302.786 539.919C303.066 539.574 303.265 539.172 303.37 538.74C303.474 538.308 303.481 537.859 303.39 537.425L300.87 525.455C300.765 524.966 300.541 524.512 300.216 524.133C299.891 523.754 299.476 523.462 299.01 523.285C298.672 523.152 298.313 523.084 297.95 523.085H140.64C140.277 523.084 139.918 523.152 139.58 523.285C139.114 523.462 138.699 523.754 138.374 524.133C138.049 524.512 137.824 524.966 137.72 525.455L135.2 537.425C135.11 537.859 135.119 538.308 135.224 538.738C135.33 539.169 135.53 539.571 135.81 539.915Z" fill="#2F2E41"/>
<path d="M353.995 297.622H98.6714C98.406 297.616 98.1535 297.506 97.9679 297.317C97.7823 297.127 97.6783 296.872 97.6783 296.607C97.6783 296.341 97.7823 296.086 97.9679 295.896C98.1535 295.707 98.406 295.597 98.6714 295.591H353.995C354.26 295.597 354.513 295.707 354.698 295.896C354.884 296.086 354.988 296.341 354.988 296.607C354.988 296.872 354.884 297.127 354.698 297.317C354.513 297.506 354.26 297.616 353.995 297.622V297.622Z" fill="#3F3D56"/>
<path d="M116.051 290.407C119.338 290.407 122.002 287.683 122.002 284.324C122.002 280.964 119.338 278.241 116.051 278.241C112.765 278.241 110.101 280.964 110.101 284.324C110.101 287.683 112.765 290.407 116.051 290.407Z" fill="#3F3D56"/>
<path d="M136.608 290.407C139.894 290.407 142.558 287.683 142.558 284.324C142.558 280.964 139.894 278.241 136.608 278.241C133.321 278.241 130.657 280.964 130.657 284.324C130.657 287.683 133.321 290.407 136.608 290.407Z" fill="#3F3D56"/>
<path d="M157.163 290.407C160.45 290.407 163.114 287.683 163.114 284.324C163.114 280.964 160.45 278.241 157.163 278.241C153.877 278.241 151.213 280.964 151.213 284.324C151.213 287.683 153.877 290.407 157.163 290.407Z" fill="#3F3D56"/>
<path d="M341.617 279.745H327.016C326.728 279.752 326.453 279.871 326.252 280.078C326.05 280.284 325.937 280.561 325.937 280.85C325.937 281.139 326.05 281.416 326.252 281.623C326.453 281.829 326.728 281.948 327.016 281.955H341.617C341.907 281.951 342.184 281.833 342.388 281.626C342.592 281.419 342.706 281.141 342.706 280.85C342.706 280.56 342.592 280.281 342.388 280.074C342.184 279.867 341.907 279.749 341.617 279.745Z" fill="#3F3D56"/>
<path d="M341.616 283.895H327.016C326.727 283.902 326.453 284.021 326.251 284.227C326.049 284.434 325.935 284.711 325.935 285C325.935 285.289 326.049 285.566 326.251 285.773C326.453 285.98 326.727 286.099 327.016 286.105H341.616C341.907 286.102 342.185 285.984 342.389 285.777C342.593 285.57 342.708 285.291 342.708 285C342.708 284.709 342.593 284.43 342.389 284.223C342.185 284.017 341.907 283.899 341.616 283.895V283.895Z" fill="#3F3D56"/>
<path d="M341.617 288.045H327.016C326.728 288.052 326.453 288.171 326.252 288.378C326.05 288.584 325.937 288.861 325.937 289.15C325.937 289.439 326.05 289.716 326.252 289.923C326.453 290.129 326.728 290.248 327.016 290.255H341.617C341.907 290.251 342.184 290.133 342.388 289.926C342.592 289.719 342.706 289.441 342.706 289.15C342.706 288.86 342.592 288.581 342.388 288.374C342.184 288.167 341.907 288.049 341.617 288.045V288.045Z" fill="#3F3D56"/>
<path d="M693.596 533.094C694.036 534.377 694.872 535.487 695.983 536.266C697.094 537.044 698.423 537.45 699.779 537.426L726.271 536.744C727.637 536.717 728.958 536.249 730.036 535.41C731.114 534.57 731.891 533.405 732.252 532.087L736 492C737.331 492.602 738.779 492.9 740.238 492.87C741.507 492.838 742.756 492.557 743.916 492.042C745.076 491.528 746.123 490.789 746.997 489.87C747.871 488.951 748.556 487.868 749.012 486.684C749.468 485.5 749.686 484.238 749.654 482.97C749.622 481.701 749.341 480.452 748.826 479.292C748.312 478.132 747.573 477.085 746.654 476.211C745.735 475.337 744.652 474.652 743.468 474.196C742.284 473.74 741.022 473.522 739.754 473.554C739.17 473.552 738.588 473.612 738.017 473.734C737.397 473.063 736.643 472.529 735.803 472.167C734.964 471.805 734.058 471.622 733.143 471.631L692.393 472.684C692.055 472.696 691.718 472.738 691.388 472.808C690.494 472.975 689.646 473.331 688.902 473.853C688.157 474.374 687.533 475.049 687.071 475.832C686.61 476.616 686.321 477.488 686.225 478.392C686.129 479.296 686.228 480.21 686.514 481.073L693.596 533.094ZM736.769 489.278L739.437 479.725C739.74 478.621 739.747 477.457 739.457 476.35C739.587 476.35 739.701 476.289 739.83 476.288C741.659 476.251 743.429 476.94 744.751 478.204C746.073 479.469 746.839 481.207 746.882 483.036C746.925 484.865 746.24 486.636 744.979 487.961C743.718 489.287 741.983 490.058 740.154 490.105C738.971 490.142 737.801 489.856 736.769 489.278Z" fill="#2F2E41"/>
<path d="M691.388 472.808C692.256 477.772 702.017 481.262 713.753 480.656C724.546 480.158 733.371 476.369 734.987 471.877C734.389 471.7 733.767 471.617 733.143 471.631L692.393 472.684C692.055 472.696 691.718 472.738 691.388 472.808V472.808Z" fill="#3F3D56"/>
<path d="M715.904 511.067C715.958 511.053 716.009 511.031 716.055 511L721.808 507.235C721.878 507.189 721.935 507.127 721.975 507.054C722.014 506.981 722.035 506.9 722.035 506.817C722.035 506.734 722.014 506.652 721.975 506.579C721.935 506.506 721.878 506.444 721.809 506.398L715.829 502.482C715.774 502.445 715.713 502.42 715.648 502.408C715.583 502.395 715.517 502.396 715.453 502.409C715.388 502.422 715.327 502.448 715.272 502.485C715.218 502.522 715.171 502.569 715.135 502.624C715.099 502.679 715.074 502.741 715.062 502.806C715.05 502.87 715.051 502.937 715.064 503.001C715.078 503.066 715.104 503.127 715.141 503.181C715.178 503.235 715.226 503.282 715.281 503.318L720.622 506.816L715.508 510.164C715.409 510.228 715.336 510.326 715.302 510.44C715.269 510.553 715.276 510.675 715.324 510.783C715.371 510.891 715.456 510.979 715.562 511.031C715.668 511.083 715.79 511.096 715.904 511.067H715.904Z" fill="#ADADAD"/>
<path d="M706.818 511.486C706.914 511.461 707.001 511.409 707.068 511.334C707.134 511.26 707.177 511.168 707.19 511.069C707.204 510.97 707.188 510.87 707.144 510.781C707.1 510.691 707.03 510.617 706.944 510.567L701.641 507.527L706.766 503.72C706.819 503.681 706.863 503.632 706.897 503.575C706.931 503.519 706.953 503.457 706.963 503.392C706.972 503.327 706.969 503.261 706.953 503.197C706.937 503.133 706.908 503.073 706.869 503.021C706.83 502.968 706.781 502.924 706.725 502.89C706.668 502.856 706.606 502.834 706.541 502.824C706.476 502.815 706.41 502.818 706.346 502.834C706.283 502.85 706.223 502.879 706.17 502.918L700.432 507.18C700.365 507.23 700.312 507.295 700.277 507.37C700.241 507.445 700.226 507.528 700.23 507.611C700.235 507.694 700.261 507.774 700.305 507.845C700.348 507.915 700.409 507.974 700.481 508.015L706.446 511.435C706.559 511.499 706.692 511.518 706.818 511.486V511.486Z" fill="#ADADAD"/>
<path d="M715.332 514.367C715.381 514.355 715.427 514.335 715.469 514.309C715.526 514.275 715.574 514.23 715.613 514.177C715.652 514.124 715.68 514.064 715.696 514C715.711 513.936 715.714 513.87 715.704 513.805C715.694 513.74 715.671 513.678 715.637 513.622L707.481 500.213C707.412 500.1 707.301 500.019 707.172 499.988C707.043 499.957 706.907 499.978 706.794 500.047C706.681 500.116 706.6 500.227 706.569 500.356C706.537 500.485 706.558 500.621 706.627 500.734L714.782 514.142C714.838 514.233 714.922 514.304 715.021 514.345C715.119 514.385 715.229 514.393 715.332 514.367Z" fill="#ADADAD"/>
<path d="M256.84 352.821H212.649C210.846 352.821 209.385 354.283 209.385 356.085V360.403C209.385 362.206 210.846 363.667 212.649 363.667H256.84C258.642 363.667 260.104 362.206 260.104 360.403V356.085C260.104 354.283 258.642 352.821 256.84 352.821Z" fill="#ADADAD"/>
<path d="M282.598 374.513H186.89C185.088 374.513 183.626 375.974 183.626 377.777V382.094C183.626 383.897 185.088 385.358 186.89 385.358H282.598C284.401 385.358 285.862 383.897 285.862 382.094V377.777C285.862 375.974 284.401 374.513 282.598 374.513Z" fill="#E6E6E6"/>
<path d="M282.598 396.204H186.89C185.088 396.204 183.626 397.665 183.626 399.468V403.786C183.626 405.588 185.088 407.05 186.89 407.05H282.598C284.401 407.05 285.862 405.588 285.862 403.786V399.468C285.862 397.665 284.401 396.204 282.598 396.204Z" fill="#E6E6E6"/>
<path d="M290.711 468.84L290.928 469.525L290.939 469.547L297.464 489.385L304.971 512.246L319.093 555.208L319.23 561.881V561.904L320.28 615.588L317.371 622.867L320.645 634.799C320.645 634.799 319.139 616.762 311.062 627.12C306.488 633.007 301.138 639.03 296.746 644.677C303.145 647.266 309.648 649.609 316.253 651.704C317.679 652.16 319.116 652.593 320.554 653.027C320.862 653.118 321.17 653.209 321.478 653.301C343.372 659.776 366.007 663.414 388.828 664.127C390.015 664.161 391.179 664.184 392.308 664.206C392.707 664.218 393.095 664.229 393.483 664.229C394.76 664.241 396.027 664.252 397.304 664.252C399.883 664.252 402.449 664.214 405.005 664.138C423.918 663.605 442.721 661.062 461.096 656.552C460.971 648.966 460.628 640.102 460.138 630.634C459.91 625.991 454.788 620.96 454.48 616.1C454.263 612.45 458.86 609.016 458.621 605.309C457.069 582.482 455.13 591.244 453.693 575.08C453.544 573.494 453.407 571.977 453.282 570.528C452.358 560.147 451.719 553.656 451.719 553.656L457.856 514.973L467.496 454.238L466.754 453.018L465.922 452.607L415.078 427.442L412.317 420.369C411.513 418.331 410.117 416.581 408.31 415.343C406.502 414.105 404.366 413.436 402.175 413.422L368.683 413.285C366.944 413.277 365.229 413.684 363.68 414.471C362.13 415.259 360.791 416.405 359.773 417.814L350.704 430.373L290.711 468.84Z" fill="#3F3D56"/>
<path d="M326.817 545.647L319.231 561.88L314.052 572.968L305.142 619.614L300.682 624.348L296.86 607.589L256.862 616.47C255.551 609.181 256.511 616.717 255.701 608.72C255.929 608.492 256.169 608.264 256.409 608.035C257.047 607.442 257.584 606.883 257.572 606.347C257.116 578.763 258.485 531.821 269.915 503.381C271.706 498.738 274.066 494.335 276.942 490.274C277.171 489.966 277.387 489.658 277.604 489.35C282.874 481.969 286.205 474.703 290.928 469.535V469.524C290.958 469.5 290.984 469.473 291.008 469.444C291.025 469.435 291.041 469.424 291.054 469.409L323.497 452.207L324.889 491.312L325.881 519.421L326.817 545.647Z" fill="#3F3D56"/>
<path d="M443.801 550.258L453.277 570.532L456.585 577.593L465.492 624.235L469.937 628.958L473.768 612.202L475.568 611.833L508.026 605.111L517.487 635.157C519.619 631.604 520.459 627.424 519.865 623.323C519.271 619.223 517.279 615.453 514.225 612.652C513.579 612.067 513.041 611.498 513.056 610.959C513.595 578.516 511.61 519.276 493.689 494.894C487.997 487.156 484.582 479.449 479.613 474.065C479.598 474.05 479.598 474.034 479.583 474.034L467.491 454.236L466.753 453.021L465.922 452.605L443.801 550.258Z" fill="#3F3D56"/>
<path d="M386.397 403.753C411.006 403.753 430.955 383.804 430.955 359.195C430.955 334.586 411.006 314.637 386.397 314.637C361.788 314.637 341.839 334.586 341.839 359.195C341.839 383.804 361.788 403.753 386.397 403.753Z" fill="#FFB6B6"/>
<path d="M446.622 328.071C446.277 327.702 445.861 327.407 445.398 327.202C444.936 326.998 444.438 326.888 443.932 326.881L444.602 325.021C444.821 324.435 444.88 323.802 444.773 323.186C444.667 322.569 444.398 321.993 443.995 321.514C443.592 321.036 443.069 320.674 442.48 320.464C441.891 320.254 441.257 320.205 440.642 320.321L438.202 320.791L438.432 319.161C438.52 318.554 438.449 317.934 438.225 317.363C438.001 316.792 437.633 316.289 437.155 315.904C436.678 315.518 436.109 315.264 435.503 315.165C434.898 315.066 434.277 315.127 433.702 315.341C433.179 315.547 432.617 315.633 432.056 315.593C431.495 315.554 430.951 315.389 430.462 315.111C429.972 314.842 429.546 314.469 429.214 314.018C428.882 313.567 428.653 313.05 428.542 312.501L427.692 308.401L427.602 308.181C423.462 301.281 415.502 296.261 405.762 294.421C397.092 292.771 388.202 293.611 379.632 294.401C376.232 294.721 372.392 295.081 369.192 297.041C366.472 298.721 364.172 302.081 364.642 305.471C356.192 302.881 347.132 308.051 342.642 314.571C337.322 322.331 336.452 332.051 336.312 339.651C335.932 357.631 339.642 372.341 347.312 383.381C347.872 384.181 348.012 385.851 349.122 386.411L348.892 386.041C350.132 386.661 351.392 387.661 350.922 388.731C349.572 391.811 358.542 398.621 364.862 400.871C376.392 404.981 391.722 404.631 402.502 403.151L402.882 400.601C406.772 400.071 409.512 399.061 410.282 397.481C411.642 396.321 412.802 395.281 413.812 394.321L413.822 394.311C413.842 394.291 413.882 394.261 413.902 394.241C418.772 389.571 419.902 386.911 420.412 382.861C420.902 378.891 420.032 374.861 419.142 371.231C437.882 374.131 411.762 351.271 429.222 346.851C429.422 346.789 429.626 346.739 429.832 346.701C430.342 346.581 430.852 346.461 431.342 346.321C433.704 345.68 435.966 344.714 438.062 343.451C442.942 340.481 444.552 336.541 447.072 332.101C447.436 331.469 447.588 330.737 447.507 330.012C447.426 329.288 447.116 328.608 446.622 328.071V328.071Z" fill="#2F2E41"/>
<path d="M543.992 553.43C543.982 555.18 543.962 557.63 543.882 560.66C543.872 561.08 543.862 561.51 543.852 561.95C543.722 567.52 543.592 572.19 543.382 577.38C543.372 577.74 543.362 578.09 543.342 578.45C543.062 585.69 542.622 594.12 541.862 607.47C540.452 632.13 537.992 610.86 535.522 619.51C535.402 619.94 535.272 620.45 535.152 621.05C534.778 623.227 534.147 625.352 533.272 627.38C531.962 628.16 530.612 628.91 529.282 629.66C525.492 631.77 521.642 633.8 517.762 635.73C515.582 636.81 513.392 637.87 511.192 638.89C510.842 639.05 510.502 639.21 510.162 639.36C498.897 644.571 487.286 649.002 475.412 652.62C473.092 653.32 470.782 654 468.442 654.63C466.002 655.31 463.562 655.95 461.092 656.55C442.718 661.061 423.915 663.606 405.002 664.14C402.452 664.22 399.882 664.25 397.302 664.25C396.022 664.25 394.762 664.24 393.482 664.23C393.092 664.23 392.702 664.22 392.312 664.21C391.182 664.18 390.012 664.16 388.832 664.13C366.011 663.419 343.376 659.779 321.482 653.3L320.552 653.03C319.112 652.59 317.682 652.16 316.252 651.7C309.652 649.61 303.149 647.27 296.742 644.68C291.852 642.71 287.019 640.597 282.242 638.34C282.199 638.329 282.158 638.308 282.122 638.28C281.122 637.82 280.112 637.34 279.112 636.85C278.982 636.78 278.842 636.71 278.702 636.64C274.972 634.82 271.282 632.914 267.632 630.92C264.562 623.87 260.242 622.52 257.562 616.32C256.782 614.478 256.219 612.552 255.882 610.58C255.882 610.56 255.872 610.54 255.872 610.51C256.152 614.23 254.682 603.91 255.862 610.47C255.852 610.35 255.842 610.22 255.832 610.07C255.802 609.71 255.762 609.27 255.702 608.72C252.272 575.23 252.492 536.93 251.002 505.37C250.902 503.33 250.799 501.377 250.692 499.51C250.662 498.89 250.622 498.28 250.582 497.68C250.652 497.5 250.732 497.31 250.822 497.13C250.842 497.079 250.865 497.028 250.892 496.98C250.922 496.918 250.955 496.858 250.992 496.8C251.012 496.77 251.042 496.73 251.062 496.7C251.077 496.666 251.094 496.633 251.112 496.6C251.202 496.46 251.302 496.31 251.412 496.17C251.462 496.11 251.502 496.06 251.552 496.01C251.587 495.959 251.627 495.912 251.672 495.87C251.703 495.822 251.74 495.779 251.782 495.74C251.822 495.7 251.862 495.65 251.912 495.6C251.934 495.569 251.961 495.542 251.992 495.52C252.071 495.43 252.158 495.346 252.252 495.27C252.609 494.942 252.99 494.641 253.392 494.37C253.532 494.28 253.682 494.19 253.822 494.09C254.83 493.488 255.891 492.979 256.992 492.57C257.372 492.43 257.752 492.3 258.162 492.16C258.312 492.12 258.452 492.07 258.602 492.02C258.822 491.95 259.042 491.88 259.272 491.83C260.412 491.49 261.642 491.2 262.972 490.93C263.132 490.9 263.302 490.87 263.472 490.83C263.712 490.78 263.962 490.74 264.212 490.7C264.552 490.64 264.902 490.58 265.252 490.52C268.222 490.05 271.592 489.7 275.312 489.47C275.662 489.45 276.012 489.43 276.362 489.41C276.772 489.39 277.182 489.37 277.602 489.35C277.952 489.33 278.312 489.32 278.672 489.31C279.022 489.29 279.382 489.28 279.752 489.27C280.762 489.24 281.802 489.21 282.862 489.19C285.882 489.13 289.062 489.15 292.402 489.22C293.952 489.26 295.532 489.3 297.152 489.37C297.262 489.37 297.362 489.38 297.462 489.38C298.872 489.43 300.292 489.49 301.752 489.57C302.772 489.62 303.802 489.67 304.832 489.73C305.802 489.79 306.782 489.85 307.772 489.92C308.542 489.96 309.312 490.02 310.092 490.07C310.752 490.12 311.412 490.17 312.072 490.21L312.972 490.27C313.462 490.31 313.952 490.34 314.452 490.39C315.552 490.48 316.652 490.57 317.772 490.66C318.882 490.76 320.012 490.86 321.142 490.96C322.272 491.06 323.412 491.17 324.552 491.28C324.672 491.29 324.782 491.3 324.892 491.31C325.932 491.42 326.972 491.52 328.022 491.63C328.262 491.65 328.512 491.67 328.752 491.7C329.753 491.801 330.774 491.919 331.784 492.026C332.094 492.06 332.403 492.092 332.714 492.126C333.505 492.212 334.285 492.287 335.082 492.38C336.132 492.5 337.202 492.61 338.242 492.75C339.052 492.84 339.862 492.93 340.672 493.03C341.942 493.18 343.232 493.34 344.522 493.51C345.012 493.57 345.502 493.63 345.992 493.7C349.672 494.16 353.392 494.67 357.172 495.2C362.902 496.01 368.722 496.89 374.582 497.84C380.452 498.79 386.356 499.794 392.292 500.85C393.792 501.12 395.292 501.39 396.802 501.67C397.482 501.8 398.162 501.93 398.842 502.06C400.002 502.27 401.162 502.49 402.322 502.71C403.482 502.93 404.642 503.15 405.802 503.38C407.182 503.65 408.572 503.92 409.952 504.19C419.042 505.99 428.082 507.91 436.902 509.92C438.352 510.25 439.802 510.59 441.242 510.92C444.122 511.59 446.976 512.27 449.802 512.96C450.582 513.14 451.352 513.33 452.122 513.52C454.042 514 455.962 514.48 457.852 514.97L458.182 515.06C459.572 515.4 460.932 515.75 462.292 516.11C465.502 516.95 468.659 517.8 471.762 518.66C473.822 519.23 475.859 519.807 477.872 520.39C480.882 521.26 483.832 522.14 486.702 523.03C487.412 523.25 488.122 523.47 488.822 523.68C490.922 524.33 492.992 524.99 495.002 525.65C496.602 526.17 498.162 526.7 499.702 527.23C501.242 527.76 502.752 528.29 504.232 528.82C505.182 529.16 506.122 529.52 507.062 529.86C508.412 530.36 509.742 530.86 511.042 531.36C511.442 531.51 511.832 531.67 512.222 531.82C512.472 531.93 512.712 532.02 512.952 532.12C513.422 532.31 513.902 532.49 514.362 532.68C514.832 532.86 515.292 533.05 515.752 533.25C516.202 533.43 516.662 533.62 517.102 533.81C517.552 533.99 517.992 534.18 518.432 534.38C518.802 534.53 519.162 534.69 519.512 534.85C520.222 535.16 520.932 535.47 521.622 535.79C521.962 535.95 522.302 536.1 522.642 536.26L523.422 536.62C523.532 536.68 523.642 536.73 523.752 536.78C524.002 536.9 524.262 537.03 524.512 537.15C525.092 537.42 525.662 537.71 526.222 537.98C526.972 538.36 527.702 538.74 528.402 539.11C529.112 539.49 529.802 539.87 530.462 540.24C530.572 540.3 530.672 540.36 530.782 540.42C530.932 540.5 531.082 540.59 531.232 540.67C531.742 540.96 532.232 541.26 532.722 541.55C533.682 542.14 534.592 542.72 535.442 543.3C535.632 543.43 535.812 543.56 536.002 543.68C536.632 544.13 537.232 544.57 537.792 545.02C537.792 545.03 537.792 545.03 537.802 545.03C537.992 545.17 538.172 545.32 538.352 545.46C538.502 545.6 538.662 545.72 538.812 545.86C539.332 546.31 539.812 546.74 540.252 547.18C540.4 547.316 540.54 547.46 540.672 547.61C540.73 547.659 540.784 547.712 540.832 547.77C541.032 547.97 541.212 548.17 541.382 548.37C541.409 548.398 541.432 548.428 541.452 548.46C541.692 548.74 541.912 549.02 542.122 549.3C542.222 549.44 542.332 549.58 542.422 549.72C542.542 549.89 542.662 550.07 542.762 550.24C542.852 550.38 542.932 550.53 543.012 550.67C543.224 551.031 543.405 551.409 543.552 551.8C543.665 552.066 543.755 552.34 543.822 552.62C543.898 552.886 543.955 553.157 543.992 553.43V553.43Z" fill="#2F2E41"/>
<path opacity="0.2" d="M543.992 553.43C543.982 555.18 543.962 557.63 543.882 560.66C543.872 561.08 543.852 561.51 543.842 561.95C543.742 566.2 543.592 571.45 543.382 577.38C543.372 577.74 543.362 578.09 543.342 578.45C543.062 585.69 542.622 594.12 541.862 607.47C540.452 632.13 537.992 610.86 535.522 619.51C528.662 615.29 521.142 610.87 513.102 606.33C511.652 605.51 510.189 604.687 508.712 603.86C492.632 594.89 474.672 585.49 455.922 576.18C455.182 575.81 454.432 575.44 453.692 575.08C410.742 553.85 363.862 533.2 325.882 519.42C318.552 516.76 311.552 514.36 304.972 512.25C291.112 507.82 279.132 504.72 269.912 503.38C260.312 501.98 253.682 502.48 251.002 505.37C250.902 503.33 250.799 501.377 250.692 499.51C250.652 498.89 250.612 498.28 250.572 497.68C250.634 497.516 250.714 497.359 250.792 497.2C250.803 497.177 250.811 497.153 250.822 497.13C250.842 497.079 250.865 497.028 250.892 496.98C250.922 496.918 250.955 496.858 250.992 496.8C251.025 496.729 251.065 496.662 251.112 496.6C251.202 496.46 251.302 496.31 251.412 496.17C251.493 496.065 251.58 495.965 251.672 495.87C251.703 495.822 251.74 495.779 251.782 495.74C251.822 495.7 251.862 495.65 251.912 495.6C251.934 495.569 251.961 495.542 251.992 495.52C252.071 495.43 252.159 495.346 252.252 495.27C252.609 494.942 252.99 494.641 253.392 494.37C253.532 494.28 253.682 494.19 253.822 494.09C254.83 493.487 255.891 492.979 256.992 492.57C257.372 492.43 257.752 492.3 258.162 492.16C258.312 492.12 258.452 492.07 258.602 492.02C258.822 491.95 259.042 491.88 259.272 491.83C260.412 491.49 261.642 491.2 262.972 490.93C263.372 490.85 263.792 490.77 264.212 490.7C264.552 490.64 264.902 490.58 265.252 490.52C268.222 490.05 271.592 489.7 275.312 489.47C275.662 489.45 276.012 489.43 276.362 489.41C276.772 489.39 277.182 489.37 277.602 489.35C277.952 489.33 278.312 489.32 278.672 489.31C279.022 489.29 279.382 489.28 279.752 489.27C280.762 489.24 281.802 489.21 282.862 489.19C285.882 489.14 289.062 489.16 292.402 489.23C293.952 489.26 295.532 489.31 297.152 489.38C297.252 489.38 297.362 489.39 297.462 489.39C298.872 489.43 300.302 489.5 301.752 489.57C302.772 489.62 303.802 489.67 304.832 489.73C305.802 489.79 306.782 489.85 307.772 489.92C308.542 489.96 309.312 490.02 310.092 490.07C310.752 490.12 311.412 490.17 312.072 490.21C312.862 490.27 313.652 490.33 314.452 490.39C315.552 490.48 316.652 490.57 317.772 490.66C318.882 490.76 320.012 490.86 321.142 490.96C322.272 491.06 323.412 491.17 324.552 491.28C324.672 491.29 324.782 491.3 324.892 491.31C325.932 491.42 326.972 491.52 328.022 491.63C333.842 492.22 339.832 492.91 345.992 493.7C349.672 494.17 353.399 494.674 357.172 495.21C362.902 496.02 368.722 496.9 374.582 497.84C380.452 498.79 386.356 499.794 392.292 500.85C393.792 501.12 395.292 501.39 396.802 501.67C398.642 502.01 400.482 502.357 402.322 502.71C403.482 502.93 404.642 503.15 405.802 503.38C407.182 503.65 408.572 503.92 409.952 504.19C419.042 505.99 428.082 507.91 436.902 509.92C438.352 510.25 439.802 510.59 441.242 510.92C444.122 511.59 446.976 512.27 449.802 512.96C450.582 513.15 451.352 513.34 452.122 513.53C454.052 514.01 455.962 514.49 457.852 514.97V514.98C457.962 515 458.072 515.03 458.182 515.06C459.562 515.41 460.932 515.76 462.292 516.12C465.502 516.96 468.659 517.807 471.762 518.66C473.822 519.24 475.862 519.81 477.872 520.39C480.882 521.27 483.832 522.15 486.702 523.03C487.412 523.25 488.122 523.47 488.822 523.68C490.922 524.34 492.982 524.997 495.002 525.65C496.602 526.17 498.162 526.7 499.702 527.23C501.242 527.76 502.752 528.29 504.232 528.82C505.192 529.16 506.132 529.51 507.062 529.85C508.422 530.35 509.742 530.85 511.042 531.36C511.442 531.51 511.832 531.67 512.222 531.82C512.952 532.1 513.662 532.39 514.362 532.68C514.832 532.86 515.292 533.05 515.752 533.25C516.202 533.43 516.662 533.62 517.102 533.81C517.552 533.99 517.992 534.18 518.432 534.38C518.802 534.53 519.162 534.69 519.512 534.85C520.222 535.16 520.932 535.47 521.622 535.79C521.962 535.95 522.302 536.1 522.642 536.26L523.422 536.62C523.532 536.68 523.642 536.73 523.752 536.78C524.602 537.18 525.422 537.58 526.222 537.98C526.972 538.36 527.702 538.74 528.402 539.11C529.232 539.55 530.022 539.98 530.782 540.42C530.932 540.5 531.082 540.59 531.232 540.67C531.742 540.96 532.232 541.26 532.722 541.55C533.682 542.14 534.592 542.72 535.442 543.3C536.282 543.88 537.062 544.45 537.792 545.02C537.792 545.03 537.792 545.03 537.802 545.03C538.152 545.31 538.492 545.59 538.812 545.86C539.332 546.31 539.812 546.74 540.252 547.18C540.4 547.316 540.54 547.46 540.672 547.61C540.731 547.659 540.784 547.712 540.832 547.77C541.042 548 541.252 548.23 541.452 548.46C541.692 548.74 541.912 549.02 542.122 549.3C542.222 549.44 542.332 549.58 542.422 549.72C542.542 549.89 542.662 550.07 542.762 550.24C542.852 550.38 542.932 550.53 543.012 550.67C543.225 551.031 543.405 551.409 543.552 551.8C543.662 552.067 543.752 552.341 543.822 552.62C543.898 552.886 543.955 553.157 543.992 553.43V553.43Z" fill="black"/>
</svg>
