<svg width="311" height="430" viewBox="0 0 311 430" fill="none" xmlns="http://www.w3.org/2000/svg">
<path d="M50.2355 406.513L62.0774 409.596L79.7083 365.78L62.2296 361.23L50.2355 406.513Z" fill="#FFB6B6"/>
<path d="M47.2126 419.007L82.8974 428.489L83.016 428.032C83.9832 424.304 83.4475 420.341 81.5269 417.013C79.6062 413.685 76.4579 411.266 72.7744 410.286L72.7735 410.286L67.5541 403.55L54.0936 405.323L50.9786 404.495L47.2126 419.007Z" fill="#2F2E41"/>
<path d="M110.695 415.641H122.983L128.83 368.787L110.692 368.789L110.695 415.641Z" fill="#FFB6B6"/>
<path d="M109.937 428.489L147.722 428.487V428.01C147.722 424.113 146.172 420.376 143.414 417.62C140.656 414.864 136.916 413.316 133.015 413.316H133.014L126.113 408.084L113.235 413.317L109.937 413.317L109.937 428.489Z" fill="#2F2E41"/>
<path d="M80.2502 191.313C77.3268 194.98 78.7885 207.446 78.7885 207.446C78.7885 207.446 73.6725 247.778 75.8651 251.445C78.0576 255.111 74.4034 258.045 72.2108 263.178C70.0183 268.311 67.8257 280.777 67.8257 280.777C55.4012 291.044 56.132 337.976 56.132 337.976L51.7469 379.775C53.2086 384.174 73.6725 384.908 76.596 384.174C79.5194 383.441 108.023 280.044 108.023 280.044C108.023 280.044 106.561 379.775 106.561 384.174C106.561 388.574 126.294 386.374 130.679 386.374C135.064 386.374 162.837 206.713 162.837 206.713V196.446L159.182 191.313C159.182 191.313 83.1736 187.647 80.2502 191.313Z" fill="#2F2E41"/>
<path d="M112.582 57.4341C125.311 57.4341 135.631 47.2838 135.631 34.7628C135.631 22.2417 125.311 12.0914 112.582 12.0914C99.852 12.0914 89.5325 22.2417 89.5325 34.7628C89.5325 47.2838 99.852 57.4341 112.582 57.4341Z" fill="#FFB6B6"/>
<path d="M82.1334 207.821L82.0094 207.647C75.3847 198.391 85.3482 176.148 86.851 172.923C85.0665 172.346 83.5379 171.168 82.5256 169.592C81.5133 168.015 81.0798 166.137 81.299 164.278L81.9469 158.782L82.6221 153.392L77.7846 148.564L77.771 148.443L74.9871 124.132L70.9393 107.985C69.4142 101.881 69.5442 95.4814 71.3159 89.4439C73.0877 83.4064 76.4374 77.9482 81.0212 73.6296L90.3775 72.1469L101.748 61.2126H120.085L126.372 67.2077C138.733 77.32 141.668 72.9271 155.606 91.9631L145.626 118.205L151.205 156.908L151.208 163.913L154.114 167.135C155.16 168.296 155.921 169.685 156.334 171.191C156.748 172.697 156.804 174.278 156.497 175.81L156.115 177.716C157.592 178.348 158.895 179.323 159.916 180.562C160.937 181.8 161.645 183.264 161.982 184.832L163.002 189.584C163.875 190.734 169.638 198.402 169.638 200.499C169.638 200.814 169.405 201.118 168.906 201.455C164.978 204.109 143.273 209.52 133.666 205.683C123.433 201.6 82.7546 207.726 82.3447 207.788L82.1334 207.821Z" fill="#3F3D56"/>
<path d="M70.6397 115.551L89.4653 111.845C96.4274 122.3 100.165 150.888 100.165 150.888L120.979 194.293C122.258 195.074 123.309 196.183 124.023 197.505C124.738 198.828 125.091 200.317 125.047 201.822C125.003 203.326 124.564 204.792 123.773 206.07C122.982 207.348 121.869 208.393 120.546 209.097C119.223 209.802 117.738 210.141 116.242 210.081C114.747 210.021 113.294 209.563 112.031 208.754C110.769 207.946 109.742 206.815 109.055 205.477C108.369 204.14 108.047 202.643 108.123 201.14L80.9764 149.713L70.6397 115.551Z" fill="#FFB6B6"/>
<path d="M70.4235 120.35L69.884 92.2154L78.813 80.2982C80.5745 77.965 82.9549 76.1698 85.6854 75.1155C88.4158 74.0612 91.3874 73.7898 94.2644 74.3319C98.1594 75.0931 101.619 77.3013 103.945 80.5101C106.27 83.719 107.287 87.6891 106.791 91.6176C105.275 103.531 101.834 118.439 94.0501 121.812L93.9712 121.846L102.039 149.996L72.1197 154.165L70.4235 120.35Z" fill="#3F3D56"/>
<path d="M192.387 96.542C192.387 96.542 164.105 90.8965 151.921 94.0165L149.234 112.642L183.732 115.624L242.615 105.201C244.015 105.739 245.535 105.908 247.023 105.689C248.511 105.471 249.913 104.872 251.086 103.956C252.26 103.039 253.164 101.836 253.705 100.469C254.247 99.102 254.408 97.6198 254.172 96.1727C253.935 94.7257 253.31 93.3654 252.359 92.2299C251.408 91.0944 250.165 90.2241 248.757 89.7074C247.349 89.1907 245.826 89.046 244.342 89.288C242.858 89.5299 241.466 90.1499 240.308 91.0851L192.387 96.542Z" fill="#FFB6B6"/>
<path d="M158.141 117.474L130.453 114.373L119.887 103.952C117.821 101.898 116.361 99.2986 115.672 96.4465C114.984 93.5944 115.095 90.6038 115.993 87.8124C117.234 84.0368 119.842 80.881 123.287 78.9829C126.733 77.0849 130.759 76.5864 134.553 77.5881C146.056 80.6355 157.566 77.7929 159.889 85.9714L164.034 84.5937L191.26 89.8611L191.554 120.158L158.141 117.474Z" fill="#3F3D56"/>
<path d="M86.8691 19.702C89.4066 15.7819 94.1685 13.1693 98.7847 13.9035C99.2144 10.9617 100.444 8.19398 102.34 5.90174C104.236 3.60949 106.725 1.88056 109.537 0.903186C112.348 -0.0741836 115.375 -0.262522 118.286 0.358668C121.198 0.979859 123.883 2.38678 126.049 4.42622C126.761 3.92538 127.591 3.61669 128.458 3.53005C129.325 3.44341 130.2 3.58177 130.997 3.93169C132.586 4.65307 133.968 5.76092 135.017 7.15384C137.666 10.4524 139.37 14.4065 139.947 18.5951C140.524 22.7838 139.953 27.0503 138.294 30.9405C138.858 28.8925 136.803 26.9658 134.726 26.5062C132.649 26.0466 130.471 26.4814 128.365 26.1821C125.666 25.7986 123.239 24.2351 120.536 23.8832C118.243 23.7344 115.944 24.0295 113.764 24.7523C111.584 25.475 109.287 25.7829 106.994 25.6601C104.718 25.3903 101.788 34.0006 101.827 40.0652C101.834 41.2144 101.597 42.69 100.472 42.9339C99.0873 43.2342 98.2846 41.3252 96.9662 40.805C96.3585 40.6311 95.707 40.6995 95.1489 40.9959C94.5909 41.2922 94.1698 41.7934 93.9745 42.3936C93.8083 43.0039 93.7905 43.6449 93.9225 44.2634C94.0546 44.882 94.3327 45.46 94.7337 45.9495C95.5441 46.92 96.5061 47.7533 97.5826 48.4174L97.0397 48.8683C96.5243 49.4122 95.8355 49.76 95.0913 49.8524C94.3472 49.9447 93.5941 49.7757 92.961 49.3743C91.7162 48.5324 90.7081 47.3861 90.0327 46.0448C87.488 42.1154 85.6689 37.7626 84.6614 33.1927C83.6679 28.5786 84.4564 23.7602 86.8691 19.702Z" fill="#2F2E41"/>
<path d="M277.365 409.782L268.347 395.259L266.546 403.558C266.23 405.011 265.914 406.488 265.622 407.953C263.061 405.761 260.335 403.734 257.669 401.788C249.481 395.834 241.298 389.871 233.118 383.902L235.679 398.787C237.258 407.953 238.908 417.307 242.814 425.687C243.247 426.637 243.715 427.574 244.218 428.489H282.278C282.584 427.639 282.796 426.759 282.91 425.863C282.919 425.805 282.923 425.746 282.921 425.687C283.518 420.002 280.383 414.646 277.365 409.782Z" fill="#F0F0F0"/>
<path d="M309.565 429.654L-12.6048 430C-12.7878 430 -12.9692 429.966 -13.1384 429.899C-13.3077 429.832 -13.4615 429.734 -13.5911 429.609C-13.7207 429.485 -13.8235 429.337 -13.8937 429.174C-13.9638 429.012 -14 428.837 -14 428.661C-14 428.485 -13.9638 428.311 -13.8937 428.148C-13.8235 427.985 -13.7207 427.838 -13.5911 427.713C-13.4615 427.589 -13.3077 427.49 -13.1384 427.423C-12.9692 427.356 -12.7878 427.322 -12.6048 427.323L309.565 426.977C309.934 426.977 310.288 427.118 310.549 427.369C310.809 427.62 310.956 427.961 310.956 428.316C310.956 428.671 310.809 429.011 310.549 429.262C310.288 429.513 309.934 429.654 309.565 429.654Z" fill="#CACACA"/>
</svg>
