<svg width="50" height="35" viewBox="0 0 50 35" fill="none" xmlns="http://www.w3.org/2000/svg">
<path d="M3.05176e-05 2.1875V32.8125C-5.34058e-05 33.0998 0.06007 33.3843 0.176914 33.6497C0.293755 33.9151 0.465034 34.1563 0.681 34.3595C0.896969 34.5626 1.15338 34.7237 1.43557 34.8336C1.71776 34.9435 2.0202 35.0001 2.32562 35H47.6744C47.9798 35.0001 48.2823 34.9435 48.5645 34.8336C48.8467 34.7237 49.1031 34.5626 49.319 34.3595C49.535 34.1563 49.7063 33.9151 49.8231 33.6497C49.94 33.3843 50.0001 33.0998 50 32.8125V2.1875C50.0014 1.93725 49.9541 1.68886 49.8603 1.45467C49.7213 1.08096 49.476 0.750261 49.151 0.498594C48.8261 0.246927 48.434 0.0839341 48.0174 0.0273439C47.904 0.00987197 47.7893 0.000726042 47.6744 0H2.32562C2.21072 0.00072553 2.09608 0.00987146 1.98269 0.0273439C1.56607 0.0838924 1.17392 0.246875 0.848965 0.498548C0.52401 0.750221 0.278709 1.08093 0.139744 1.45467C0.0459328 1.68886 -0.00143051 1.93725 3.05176e-05 2.1875Z" fill="white"/>
<path d="M-3.8147e-06 1.38876L24.3043 17.8517C24.5045 17.9898 24.7488 18.0645 25 18.0645C25.2512 18.0645 25.4956 17.9898 25.6958 17.8517L50 1.38876C49.8602 1.02514 49.6135 0.703385 49.2868 0.458521C48.96 0.213657 48.5656 0.0550695 48.1467 8.95181e-06L25 15.6754L1.85334 0C1.43438 0.0550164 1.04003 0.213596 0.713242 0.458467C0.386456 0.703338 0.139744 1.02511 -3.8147e-06 1.38876Z" fill="#ADADAD"/>
</svg>
