<svg width="236" height="229" viewBox="0 0 236 229" fill="none" xmlns="http://www.w3.org/2000/svg">
<circle cx="18.0789" cy="18.0789" r="18.0789" fill="#EEEEEE"/>
<circle cx="18.0789" cy="114.5" r="18.0789" fill="#EEEEEE"/>
<circle cx="18.0789" cy="66.2894" r="18.0789" fill="#EEEEEE"/>
<circle cx="18.0789" cy="162.711" r="18.0789" fill="#EEEEEE"/>
<circle cx="18.0789" cy="210.921" r="18.0789" fill="#EEEEEE"/>
<circle cx="84.3684" cy="18.0789" r="18.0789" fill="#EEEEEE"/>
<circle cx="84.3684" cy="114.5" r="18.0789" fill="#EEEEEE"/>
<circle cx="84.3684" cy="66.2894" r="18.0789" fill="#EEEEEE"/>
<circle cx="84.3684" cy="162.711" r="18.0789" fill="#EEEEEE"/>
<circle cx="84.3684" cy="210.921" r="18.0789" fill="#EEEEEE"/>
<circle cx="150.658" cy="18.0789" r="18.0789" fill="#EEEEEE"/>
<circle cx="150.658" cy="114.5" r="18.0789" fill="#EEEEEE"/>
<circle cx="150.658" cy="66.2894" r="18.0789" fill="#EEEEEE"/>
<circle cx="150.658" cy="162.711" r="18.0789" fill="#EEEEEE"/>
<circle cx="150.658" cy="210.921" r="18.0789" fill="#EEEEEE"/>
<circle cx="216.947" cy="18.0789" r="18.0789" fill="#EEEEEE"/>
<circle cx="216.947" cy="114.5" r="18.0789" fill="#EEEEEE"/>
<circle cx="216.947" cy="66.2894" r="18.0789" fill="#EEEEEE"/>
<circle cx="216.947" cy="162.711" r="18.0789" fill="#EEEEEE"/>
<circle cx="216.947" cy="210.921" r="18.0789" fill="#EEEEEE"/>
</svg>
