<svg width="92" height="130" viewBox="0 0 92 130" fill="none" xmlns="http://www.w3.org/2000/svg">
<path d="M91.7864 25.9365L83.4599 119.2L46.0342 129.581L8.71232 119.2L0.396698 25.9365H91.7864Z" fill="#E44D26"/>
<path d="M46.0889 121.648L76.3299 113.266L83.4326 33.5635H46.0889V121.648Z" fill="#F16529"/>
<path d="M29.9057 56.4457H46.0889V45.0049H17.4049L17.6781 48.0754L20.4919 79.6004H46.0943V68.1596H30.9547L29.9057 56.4457ZM32.5063 85.3208H21.0328L22.6336 103.285L46.0397 109.809H46.0943V97.8707H46.0452L33.304 94.4286L32.5063 85.3208Z" fill="#EBEBEB"/>
<path d="M8.90356 0.585938H14.7168V6.32819H20.0329V0.585938H25.8462V17.982H20.0329V12.1578H14.7168V17.982H8.90356V0.585938ZM33.4898 6.3555H28.3704V0.585938H44.4224V6.3555H39.3031V17.982H33.4952V6.3555H33.4898ZM46.9739 0.585938H53.0386L56.7702 6.69971L60.4964 0.585938H66.561V17.982H60.7695V9.36048L56.7702 15.5453H56.6718L52.667 9.36048V17.982H46.9739V0.585938ZM69.4512 0.585938H75.2645V12.2289H83.4599V17.9766H69.4676V0.585938H69.4512Z" fill="black"/>
<path d="M46.0506 79.6005H60.1358L58.8081 94.4396L46.0506 97.8817V109.809L69.5058 103.307L69.6752 101.373L72.3633 71.2521L72.6419 68.1816H46.0506V79.6224V79.6005ZM46.0506 56.4184V56.4457H73.6855L73.915 53.8724L74.4614 48.0701L74.7345 44.9995H46.0506V56.413V56.4184Z" fill="white"/>
</svg>
