<svg width="100" height="101" viewBox="0 0 100 101" fill="none" xmlns="http://www.w3.org/2000/svg">
<path d="M0.00512695 0.722656H99.734V100.444H0.00512695V0.722656Z" fill="#F7DF1E"/>
<path d="M26.2324 84.0584L33.8645 79.4389C35.3386 82.0499 36.6763 84.2592 39.8899 84.2592C42.9707 84.2592 44.911 83.0541 44.911 78.3703V46.5042H54.2825V78.4991C54.2825 88.2041 48.5982 92.6227 40.2915 92.6227C32.7959 92.6227 28.4455 88.7384 26.2362 84.0546L26.2324 84.0584ZM59.3718 83.0504L67.0001 78.6318C69.0085 81.9135 71.6195 84.3161 76.239 84.3161C80.1232 84.3161 82.5978 82.3758 82.5978 79.6966C82.5978 76.4831 80.055 75.3463 75.7766 73.4704L73.4347 72.4662C66.6742 69.59 62.1874 65.9748 62.1874 58.3427C62.1874 51.3131 67.542 45.9585 75.9093 45.9585C81.8664 45.9585 86.141 48.0352 89.2294 53.4542L81.9346 58.1418C80.3279 55.2618 78.5885 54.1249 75.9093 54.1249C73.1657 54.1249 71.4225 55.8643 71.4225 58.1418C71.4225 60.9536 73.1619 62.0905 77.1788 63.8261L79.5207 64.8303C87.4787 68.2409 91.9731 71.7235 91.9731 79.5564C91.9731 87.9919 85.3452 92.6113 76.436 92.6113C67.7201 92.6113 62.1116 88.4428 59.3832 83.039" fill="black"/>
</svg>
