<svg width="131" height="117" viewBox="0 0 131 117" fill="none" xmlns="http://www.w3.org/2000/svg">
<path d="M106.997 38.4654C105.612 37.9908 104.216 37.551 102.809 37.1462C103.041 36.1983 103.257 35.2455 103.456 34.2878C106.627 18.8945 104.554 6.49354 97.4736 2.41225C90.6847 -1.50361 79.5821 2.57977 68.3664 12.3359C67.2607 13.302 66.1809 14.2932 65.1269 15.3095C64.4191 14.6324 63.7001 13.9686 62.97 13.318C51.2203 2.88341 39.4497 -1.51199 32.3676 2.58187C25.585 6.5082 23.5727 18.1657 26.431 32.7549C26.7102 34.1998 27.0306 35.6364 27.3922 37.0645C25.7274 37.5377 24.1171 38.0424 22.5759 38.5806C8.79918 43.3738 0 50.9124 0 58.7211C0 66.7852 9.44624 74.8745 23.7967 79.7788C24.961 80.1739 26.1337 80.541 27.3147 80.8803C26.9322 82.4159 26.5916 83.9641 26.2928 85.5248C23.5706 99.8607 25.6981 111.244 32.4619 115.145C39.4497 119.178 51.1764 115.032 62.5931 105.052C63.4956 104.262 64.4002 103.425 65.3153 102.549C66.4573 103.651 67.6293 104.72 68.8312 105.757C79.892 115.275 90.8187 119.12 97.5741 115.206C104.554 111.166 106.821 98.9372 103.877 84.0611C103.654 82.9247 103.393 81.7653 103.096 80.5829C103.921 80.34 104.728 80.088 105.517 79.827C120.435 74.885 130.143 66.8941 130.143 58.7211C130.143 50.8831 121.059 43.3047 107.004 38.4654H106.997Z" fill="#53C1DE"/>
<path d="M103.762 74.4599C103.05 74.6966 102.321 74.9227 101.576 75.1447C99.757 69.5056 97.5552 63.9974 94.9859 58.6583C97.4573 53.3904 99.5735 47.9631 101.32 42.4127C102.65 42.798 103.944 43.2042 105.188 43.6335C117.231 47.7776 124.577 53.9069 124.577 58.6311C124.577 63.6568 116.642 70.1923 103.762 74.4599ZM98.418 85.0516C99.7205 91.629 99.9048 97.5761 99.0462 102.223C98.2714 106.4 96.7135 109.185 94.7869 110.302C90.6847 112.674 81.9148 109.59 72.456 101.45C71.3713 100.516 70.2803 99.5215 69.1831 98.4661C73.1266 94.1001 76.7708 89.4729 80.0909 84.6161C86.0216 84.1136 91.9106 83.204 97.7165 81.8938C97.9817 82.9659 98.217 84.013 98.4222 85.0349L98.418 85.0516ZM44.3665 109.895C40.3585 111.311 37.1672 111.351 35.2386 110.239C31.1343 107.87 29.4276 98.7215 31.7562 86.4714C32.0354 85.0237 32.3516 83.5837 32.7048 82.1514C38.4867 83.3928 44.3459 84.2414 50.2424 84.6914C53.6597 89.5314 57.3917 94.1412 61.4142 98.4912C60.6059 99.2744 59.7794 100.036 58.9348 100.776C53.8861 105.19 48.8248 108.314 44.3665 109.895V109.895ZM25.5955 74.4285C19.2485 72.2591 14.0092 69.4405 10.4158 66.3665C7.18889 63.6023 5.55972 60.857 5.55972 58.6311C5.55972 53.8922 12.625 47.8467 24.4061 43.7403C25.8859 43.2252 27.379 42.7554 28.8853 42.331C30.6352 47.9428 32.7541 53.4328 35.2281 58.7651C32.7233 64.1738 30.5785 69.7422 28.8078 75.4337C27.7273 75.1252 26.6565 74.7901 25.5955 74.4285ZM31.8881 31.597C29.4423 19.0976 31.0652 9.66813 35.1528 7.30605C39.5063 4.79319 49.1326 8.3782 59.2803 17.3889C59.9295 17.9647 60.5807 18.5678 61.232 19.1897C57.2382 23.5132 53.5355 28.0966 50.1482 32.9099C44.3074 33.4337 38.5066 34.3353 32.7823 35.6091C32.4486 34.2801 32.1506 32.9434 31.8881 31.5991V31.597ZM88.0315 45.4574C86.7598 43.2601 85.4412 41.0906 84.0759 38.9491C88.2284 39.4747 92.205 40.17 95.9408 41.0243C94.7419 44.8271 93.3518 48.567 91.7757 52.2296C90.5737 49.9471 89.3257 47.6897 88.0315 45.4574ZM65.1311 23.1621C67.8373 26.1126 70.3932 29.1976 72.789 32.4053C67.6642 32.1637 62.5373 32.1637 57.4083 32.4053C59.9358 29.0715 62.5261 25.9724 65.1311 23.1642V23.1621ZM42.0966 45.4951C40.8192 47.7106 39.5942 49.954 38.4216 52.2254C36.8029 48.387 35.4187 44.6114 34.2879 40.9657C38.0007 40.1281 41.9605 39.4559 46.0858 38.9387C44.7009 41.0941 43.3698 43.2796 42.0924 45.4951H42.0966ZM46.203 78.7171C42.1765 78.28 38.1751 77.6363 34.2146 76.7885C35.3642 73.08 36.7798 69.2227 38.4341 65.3006C39.611 67.5747 40.8402 69.8195 42.1217 72.035C43.4256 74.2952 44.7847 76.5226 46.1988 78.7171H46.203ZM65.2881 94.4916C62.6496 91.6562 60.0216 88.5152 57.4585 85.1207C59.9504 85.2198 62.4884 85.2694 65.0724 85.2694C67.7249 85.2694 70.3432 85.2108 72.9272 85.0935C70.5419 88.3549 67.9908 91.4917 65.2839 94.4916H65.2881ZM91.8176 65.1017C93.4754 68.8384 94.9376 72.659 96.1983 76.5477C92.1888 77.4499 88.1348 78.1412 84.0529 78.6187C85.428 76.4367 86.7598 74.2289 88.0483 71.9952C89.3578 69.7253 90.6142 67.4274 91.8176 65.1017ZM83.232 69.2185C81.2608 72.6416 79.18 75.9991 76.9897 79.2909C73.1282 79.5673 69.1391 79.7097 65.0724 79.7097C61.0058 79.7097 57.0837 79.5841 53.2893 79.337C51.0431 76.0563 48.9218 72.694 46.9255 69.25C44.9291 65.806 43.0787 62.3103 41.3742 58.763C43.0871 55.1989 44.9319 51.7019 46.9087 48.2718C48.8827 44.8432 50.9858 41.4927 53.2181 38.2204C57.09 37.9273 61.0561 37.7744 65.0683 37.7744C69.0805 37.7744 73.0717 37.9293 76.9394 38.2225C79.1465 41.485 81.2406 44.8222 83.2215 48.2341C85.2025 51.646 87.0725 55.127 88.8315 58.6771C87.0934 62.2538 85.229 65.7648 83.2383 69.2102L83.232 69.2185ZM94.7011 7.13853C99.0588 9.65138 100.753 19.7865 98.0159 33.0774C97.8359 33.9416 97.6404 34.8036 97.4296 35.6636C91.6969 34.364 85.8843 33.4455 80.0302 32.9141C76.6755 28.0965 73.0005 23.5099 69.0302 19.1856C70.0074 18.2446 71.0049 17.3295 72.0226 16.4403C81.6301 8.07875 90.6093 4.77854 94.7011 7.13853Z" fill="white"/>
<path d="M65.0683 47.0991C67.3669 47.0991 69.6138 47.7807 71.5251 49.0578C73.4363 50.3348 74.9259 52.1499 75.8055 54.2735C76.6852 56.3972 76.9153 58.734 76.4669 60.9884C76.0184 63.2428 74.9116 65.3137 73.2862 66.939C71.6609 68.5644 69.59 69.6713 67.3356 70.1197C65.0812 70.5681 62.7444 70.338 60.6207 69.4583C58.4971 68.5787 56.682 67.0891 55.405 65.1779C54.1279 63.2667 53.4463 61.0197 53.4463 58.7211C53.446 57.1948 53.7465 55.6834 54.3304 54.2732C54.9144 52.8631 55.7704 51.5817 56.8497 50.5025C57.9289 49.4232 59.2102 48.5672 60.6204 47.9832C62.0306 47.3993 63.542 47.0988 65.0683 47.0991" fill="#53C1DE"/>
</svg>
