<svg id="Layer_1" data-name="Layer 1" xmlns="http://www.w3.org/2000/svg" viewBox="0 0 6000 2550"><defs><style>.cls-1{fill:#df9999;}.cls-1,.cls-10,.cls-11,.cls-12,.cls-13,.cls-14,.cls-15,.cls-16,.cls-17,.cls-18,.cls-2,.cls-3,.cls-4,.cls-5,.cls-6,.cls-7,.cls-8,.cls-9{fill-rule:evenodd;}.cls-2{fill:#e2a1a1;}.cls-3{fill:#e3a5a5;}.cls-4{fill:#e19e9e;}.cls-5{fill:#dd9292;}.cls-6{fill:#dc9090;}.cls-7{fill:#d88181;}.cls-8{fill:#de9595;}.cls-9{fill:#dc8d8d;}.cls-10{fill:#db8b8b;}.cls-11{fill:#e4a9a9;}.cls-12{fill:#e09c9c;}.cls-13{fill:#da8888;}.cls-14{fill:#d67c7c;}.cls-15{fill:#e2a3a3;}.cls-16{fill:#e4a7a7;}.cls-17{fill:#df9898;}.cls-18{fill:#d77f7f;}</style></defs><path class="cls-1" d="M2599.4,1791.71c-6.33-3.4-13.94-5.52-18.7-10.42-26.69-27.48-56.13-52.25-80-82.46,2.22-12.47,11-19.61,19.06-25.55,25.25-2.49,29.36,16.46,35,33.83,31.16-2.6,57.52-13.7,86.53-21.15-11.66-30.28-36.42-17.07-55.68-20.87-11.65-21.09-3.55-41,2.19-61,6.35-13.92,14.39-27.61,5.05-45-14.14-11.4-31-14.07-49.19-9.91-6.3,13.35,8.62,19.72,7.56,26.27,0,15.41-6.09,24-12.76,32.32-4.32,3.92-9,6.81-15.16,5-8.13-7.3-10.6-18.23-15-26.6-29.22-56.29,5-116.16-11.49-171.73-10-16.18-33.66-15.49-38.23-37.92,4.54-32.18,30.58-40.94,58-49.17,18.56,11.74,35.3,27.14,58.17,14.19a21.26,21.26,0,0,1,12.09,0c8.69,4.36,15.11,15.13,27.3,9.59,9.42-2.62,19.32.73,29.14-2.5,10-6.41,7.09-22.08,21.21-28.94,14.61,10.19,37.24-7.86,52.31,12.06-5,9.94-18,10.43-25.22,22.48-3.92,8.44.5,21.54-5.81,33.13,11.69,1.26,18.45-10.28,29.14-9.05,3.73,19.16,25.37,21.67,33.84,36.39,6.66,11.23,1,22.21.1,33.53-1.87,22.91-12.16,47.62,9.66,67.06,16.93-31.83,30.3-35.48,57.41-16,3.75,5.66,1.86,13.25,6.85,19.42,12.07,7.62,30.13,4.1,40.17,18.07,6.49,10.06,3,22.63,7.23,32.73,11.68,4.87,16.93-10.85,29.3-5,13.54,11.76,13.54,11.76,13,46,6,8.45,17.07.19,26,9.66,11.81,28.8-21.42,38.86-31.5,62.33-2.86,13.87,4.23,32.49-8.9,47.14-10.89,11.89-21.16,25.1-40.44,20.37a34.48,34.48,0,0,1-11.71-5.82,24.13,24.13,0,0,1-7.51-10.09c-5.38-15.34-2.67-31.17-.63-49.16-24.74,4.51-22.13,34.33-42.36,39.25a29.32,29.32,0,0,1-7.6,2.43c-14.12.2-20.52-5.39-13.48-23.27-9.66,17.62-22.42,16.25-35.73,13a35.55,35.55,0,0,1-7.54-3c-5.73-3.13-9.64-9.36-20.07-10.63-16.49,32.94-48.11,47.12-81.44,55.5-7.55,9.76,3.83,17.79-2.76,28.43C2620.53,1792.83,2609.5,1790.55,2599.4,1791.71Z"/><path class="cls-2" d="M3359.71,1820.72c-12.7,9.19-22.88,22.83-40.61,23.22-16.8-20.55.23-39.9,4.39-65.64-35,12.89-39,53-67,60-7.77,15.21-4.16,28.3-7.1,40.43-.48,8.68-7.21,4.92-11.59,5.8-15.85.22-11.15-12.55-12.58-20.78-1.63-9.39,1.76-19.24-1.81-30.1-21.11-17.76-45.7-30-74.3-33.81-10.32-10.12-22.91-15.58-33.35-16.26-16.6-6.86-5.71-32.85-28.43-29.83-31-6-37-32-41.23-53.71-14.89-9.32-25.28,8.8-36.12-2-7.91-12,1.84-22,4.06-31.87-2.9-16.07-21.34-21.33-22.73-39.92,11-22.77,34.88-18.12,54.34-18.06,49.21.13,57.66-4.2,76.14-51.7,4.44-11.39,13-18.9,21.77-26.47,4.86-1.66,8.06.62,10.53,4.49,6.94,14.08-7,30.8,6.87,45.67,20.93,5.17,43.88-12.23,67.81,1.89,8.83,10.47,15.18,26.13,29.07,32.31a48.76,48.76,0,0,1,2.08,25c-7.49,43.85,19.88,60.93,58.54,54.06,24.19-4.28,49.81,2.83,73-10.49,8.45-4.85,19,1.67,26.41,8,17.07,14.7,38.26,21.41,57.88,31.12a83.17,83.17,0,0,1-29,29c-12.11,3.46-16.9-6.24-22.9-13.18-8.13-9.42-15.33-19.78-31-22.85-17.09,9.74-39.7,2.31-58.71,12.2-6.61,3.44-12.14,9.33-15.16,21C3354.59,1758.81,3355.32,1790.72,3359.71,1820.72Z"/><path class="cls-3" d="M2471.68,892.07c0-1.87-.78-4.39.15-5.53,14.68-18.14,24.88-40.3,46.31-52.5,18-6.86,37.05,9.9,54.58,0,2.87-12.24-9.92-18.85-3.66-33.07,22.12-12.2,47-21.51,74.36-4,12.14,7.78,25.28,13.76,37.65,21.17a43,43,0,0,1,9,8.41c5.24,6.74,9.56,13.7,20.14,14,27.86.84,35.49,18.21,32.92,43a22.39,22.39,0,0,1-4.22,7c-34,15.32-58.71-2.94-83.63-23.83-22.11,8.06-43.69,16.18-69.17,6.85-14.05-5.16-32.08-.86-48.45,13.13,19.37,23,43.09,22.32,74.76,17.19,33.67,58,90.12,106,86.27,182,16.9,7.25,29.09,8.45,40.71,11.71,5.37-10.92-5.41-17.42-3.82-26.12,4.93-14.08,14.78-24.09,26-34.45,25.65,7.81,29.87,36.35,50.31,47,6.8,5.37,13.67,10.65,17.76,12.73,12,5.88,20.85-1.91,29,3.19,8.58,24.48,6,29.27-22.17,40.24-10.35.88-17.2-8.48-27-9.21-14.52-.62-22.72,8.38-29.81,19.36-20.75,32.12-53.8,48.91-85.32,67.27-11.86,6.9-25.51,8.62-39.11,3.27-7.32-4.45-9.16-10.83-6.66-18.76,5.29-10,20.76-5.64,25.9-20.19-30-.37-44.84-21.33-58-43.56-10.8-18.27-28-22-46.69-23.88-13.26-1.31-27.17,1.49-40.46-6.81-10.7-13.84-15.9-29.24-4.56-51.87,44.58,2.91,88.24-15.31,134.42-18.79.92-42.89-59.39-95.52-126.5-108.49,7.67,29-13.26,45.66-26.55,63.73-3.64,22.49,12.35,46.55-11.46,63.38a8.49,8.49,0,0,1-7.57-1.78c-7.68-10.24-1.44-22.52-3.13-28-7.53-22-31-20-36.2-36.14,2.74-12.12,15.05-13.18,19.7-21.57,6.09-9.23,3.54-18.23-.88-27.14-3.8-8.19-7.15-17,2.15-23.25C2480.52,910,2472.89,900.87,2471.68,892.07Z"/><path class="cls-4" d="M2686.45,828.23q-6,.24-5.8-5.8c-14.53-10.46-17.37-29.32-29.9-39.77,0-18.69,20.11-21.11,24.67-35.15-4.1-15-30.39-2.75-29.58-23.75,11.76-5.49,19.9-18.2,34.81-17.42,18.56-10,19.37,13.3,30,16.18,27.39,6.43,42.54-26.29,69.25-19.81,47.8,30.68,66.81,70.49,35.9,123,13.38,8,18.08-6.44,31.12-2.44,16.56,8.06,24.07,32.84,49.86,43,19.1-34.28,37.26-75.88,92.46-48.74-1.06-24.85,2.41-41.45,10.86-58.52,9.78-19.8-1.77-39.1-19.25-49.28-18.6-10.84-32.22-24-38.14-43.21-15.34-8.15-35.71-4.14-42.46-24.91-1.87-9.3,6.85-11.84,12.51-16.52,23.24,0,45.47-8.37,69.21-6.26,22.71,2,45.77.22,68.65.65,4.6.08,12.11-4,13,5.61-8.71,9-20.07,7.54-30.95,7.88-15.21.82-30.83-3.15-45.92,3.46-10.29,11.59-10.67,25.19,2.72,31.72,34.58,16.87,45.72,47.55,53.83,81.08,1.14,4.73,3.66,8.9,8.78,14,6.68,7.12,21,3.92,28.69,13.78-5.1,25.62-66.43,68-98.51,68.32a34.44,34.44,0,0,1-7.71-3c-8.11-6.1-16.86-8.27-26.86-4.35-6.11,5.38-4.74,14.1-8.59,20.59-13.63,17.33-25.39,36.54-44.5,48.74-12,7.69-11.29,21.45-15.54,32.91-22.88,6.8-46.29,20.94-64.29-3.39-18.6-25.16.79-42.41,20.43-56.61-26.8-22.72-43.47-15.59-99.85,40.73,1.5,14.48-4.55,28.68-10,42.48,3.79,18.7,11,35.61,15.86,53.19,2.86,10.46,8.38,23-8.92,27.52-18.56-12.21-17.72-35.59-28.56-51.15-10.86-5.43-19.58,5-29.24,1.16-40.43-16.29-31.17-66.92-61.09-86.7-3.12-12.63-.75-20.51,6.85-28.07,10.24-4.89,21.82-9.1,35.71-10.34,18.14,10.39,35.42,23.92,58.54,26.54,11.37,1.28,18.59.5,24.16-9.26,5.3-13.06,7.94-27.37,18.94-37.16-6-17.38-20.7-25.61-29.36-40.11C2709.9,840.17,2706.41,841.61,2686.45,828.23Z"/><path class="cls-5" d="M3655.73,1286.75c4,30.23-7.75,59.42-5.81,89.49-8.11,13.54-2.35,30.77-11.62,44-13.68,15.94-27.59,5.78-40.23,1.82-24.7-27.75,12.69-60.25-10.62-91.67-19.79,20.7-39.18,39.88-66.51,25.36-20.58,9.32-41.4,12.74-54.76,29.92a10.25,10.25,0,0,1-7.79,1.11c-8.93-20.31-30.78-32.11-35.92-52.89-1.59-14.7,12.07-23.73,9.06-39.21-22.73-3.94-17.64,17.86-24,24.87-10.76,13-23.93,10.6-36.89,11.07-14.87,13.38-37.22,20.92-38.8,47.09,17.17,17.29,43.1,30.89,27.77,62.12-5.76,4.56-12.58,6.74-19.55,8.57-10.93,2.13-20.28-.1-26.92-9.74-13-18.5-38.94-10.29-53.52-25.62-10.51-14.62-24.91-25.27-37.93-37.41a26.7,26.7,0,0,1-5.85-11.61c8.87-38.86,27.92-53.85,64.8-51.09,10.51.79,21,1.54,35.3-3.82,6.65-2.28,8.47-15.37,18.38-20,7.41-3.23,15.07-2.41,22.63-1.08,17.8,3.18,31.54-2.12,42.25-17.3,8.5-12,19.24-21.75,36.15-17.28,3.17,1.11,4.56,4.75,7.66,5.71-1,.12-2.08-.83-3.19-3a7.7,7.7,0,0,1,.44-7c2.53-3.17,6.33-7.36,9.22-6.34,30.68,10.75,56.91-3.45,83.84-14,9.44,23.86-16.14,26.38-25.77,42.17,18,6.63,32.77,18.15,46.38,31.43,27.2-11.35,3.71-30.67,10.07-49,32.19-19.08,51.71,20,79.56,22.44C3648.55,1278.51,3651.74,1283.07,3655.73,1286.75Z"/><path class="cls-6" d="M3220.43,659.91c4.79,0,11-1.94,14.12.34,16.32,11.65,35.35,16.62,53.44,23.93,1.14.46,1.4,3.12,2.08,4.76-6.73,12.78-22.63,9.54-31.53,17.85-11.24,16,6,40.09-17.85,54.25-28.46-5.44-41.56-51.53-82.36-34.56-15,12.52-16.11,31.49-7.77,48.25,12.48,25,18,46.2-7.34,66.64-6,4.88-8.34,14.92-12.42,24.3,7.84,21.51,9.28,43.92-4.93,65-5.15,8.56-16.68,3.5-22.49,10.65,3.33,30.06-4.27,55-33.41,70.66-16,1.25-29-5-36.31-15.55-6.44-13.23,2.6-21.24,2.44-33.54-17.81,15.75-35.59,26.83-55.95,33.18-4.89,2.87-9.59,6-14.39,9.07-8.36,6.63-16.67,13.36-27.93,13.48-50.25-24.4-57.13-86.07-13.33-117.84,14.39-10.42,15.69-14.92,17.84-61.43,11.35-7.41,22.79-7.59,34.31.5,12.57,17.52,5.91,37.12,5.93,56,0,8.85-6,19.84,8.74,22.88,10.63-5.13,1.23-17.28,7.49-21.5,6.56-9.89,16.65-13.43,22.64-25.36,4.92-13.83-4.08-37.68,23.22-46.66,22.32.59,37.79,15.83,51.46,35.27,11.93-9.59,16.39-20.28,16.41-31.2-5.88-15.77-29.58-14.08-25.9-35.63,3.3-12.49,19.55-8.24,25.2-14.86,17.42-22.46,9.25-44.33,5-65.72,9.67-18.7,29.67-28.54,37.39-47.81a20.29,20.29,0,0,1,7-4.09c13.63-2.69,21.75,2.82,24.77,16.39,1.83,8.17,2.46,17.18,12.71,21.52,13.81-.21,15.23-9.4,14.83-21.1C3213.27,671.49,3204.29,660.46,3220.43,659.91Z"/><path class="cls-2" d="M2576.16,1344.8c-1.27,6.06-5.6,9.26-10,11.3-6.71,2.23-7.41-6.58-12.94-5.54-5.79-1.79-6.24,7.56-12.42,5.74-.55,0-1.66.34-2.41,0-9.05-4.69-8.24-16.71-16.4-22.1-19.95-6.53-28.64,19.39-48.45,16.28-3.32,9-.9,21.58-15.19,24.78,8.62,8.11,15.56,14.66,22.51,21.22.84-.78,2.19-2.09,1.72-1.64l24.38,24.38c.44,7.69-1.5,22.2,4.67,37.1,5,12.08-1.4,25.25-10.17,36.26,14.92,9.74-2.94,18.61-1.9,29.16s11.17,18.25,7,29.2c2.32,5,9.82.44,12,8.14-3.05,5.93-6.68,13.1-10.06,19.72l15.37,14.68v18.35c-8.9,7-16.93,4.42-21.58-4.4-9.3-17.76-24.78-29.2-39.87-40.86-26.14-20.24-20.76-49.63-23.75-76.67a14.79,14.79,0,0,1,3.77-7.62c11.34-7.93,27.11-2.81,40.1-15.37,7.8-10.19,5.89-24.26,2.13-41.11-23.35,8.27-45.08,4.52-56-18.34-9.77-20.52-1.84-41.43,10.77-59-8.32-17-13.72-33.79-31.65-42.94-12.09,4.23-26.07,5.33-32.09,20.08-2.24,10.45.23,20.9-.1,31.35-4.84,10.79-12.73,19.47-20,28.55-3.66.66-5.51-1.55-5.76-4.56-4.25-52-8-104.09-5.69-156.33.21-4.68-4-12.23,5.64-13.23,9.31,7.44,4.92,19.6,9,27.74,6.26,6,13.77,1.69,19.6,5,8,5.47,9.36,17.25,19.77,20.73,25.93,6.58,34.38-26.81,60.64-25.36,18.76,7.64,26.65,31.83,48,43.15,9.81-23.8-1.67-49.47,11.25-70.81a31.55,31.55,0,0,1,3.37-7.74,23.19,23.19,0,0,1,14.06-8.84,38.08,38.08,0,0,1,28.1,8.39c11.05,11.68,4.68,25.54,8.69,37.37,18.42,7.16,29.73-9.08,44.59-13.27,5.71,4.39,8,11,10.93,17.13,8.08,31.1-22.55,20.3-33.11,30-7.41,11.79,6,22.72-.5,34.16-9,11.63-30.29-3.71-36.46,18.07C2557.34,1337.27,2579.28,1329.78,2576.16,1344.8Z"/><path class="cls-7" d="M3481.6,834a58.84,58.84,0,0,1,23.21,23.22c5.68,8.58,1,12.61-6.91,13.56-18.54,2.22-36.52,11.71-56.57,2.52-8.52,17.59-13.29,35.25-23.59,50.11-10,22.82-25.81,37.84-54.9,39.48-13.75-27.73-2.65-53,8.3-78.08-34.8-14.22-63-11.13-75.73,27.78-22.09-2.55-28.94-19.66-42.86-30.43,2.5,22.55,23.07,47.1-6.88,65.88-16.39-4.93-29.43-19.76-47.43-13.91-8.61-19.11-8.61-19.11,9.5-33.79-26.66-24.93-29.29-57.53-30.77-91.67,16.27-6,33.33-4.66,40.86-19,14.62-3.18,29.33-1,38.78-13.39a21.84,21.84,0,0,1,7.08-4c23.62-.34,47.4-8.23,67.86-.22,11,6.78,7.48,18.45,17.21,24.7,14.12-.27,27.56-6.59,39.3-13.4,5.43-12.46-8.18-18.74-5.2-28.89,3.11-5.37,7.16-5,11.66-1.74,5.32,9.87,11.21,18.11,24.62,17.88,4.51-.08,9.42,5,10.22,11.13-4.61,15-29.47,21.8-15.73,47.05C3434.65,830.68,3457,841.64,3481.6,834Z"/><path class="cls-4" d="M3475.79,1722.05c-6-1.09-10.81,1.16-14.76,5.49-3-1.86-2.67-4.78-2.62-10.08-8.64,1.92-15.82-7-27.19-2.7.29-16.58-20.12-14-26.1-26.81h-20.51c-1.06,3-2.24,6.39-3.93,11.13-15.08-1.74-31.31,4.32-44.7-6.44-7.59,2.58-9.23,11.12-16.62,12-23.25-5.7-23.25-5.7-35.74,0-37.48-32.38-39.51-37.14-28.31-66.26-1.84-2.05-3.76-4.13-5.67-6.23,6.73-5.54,7.79-12.14,3.68-19.52-6.05-2.93-9,1.18-11.74,4.11-18.44-4.38-1.46-26.49-17.18-32.62-30.68-1.94-43.32.14-63.91,11.35-11-13.17-23.57-25-10-44.89,2.24-3.29.3-9.44.3-14.26,25.87,14.49,53,23.82,83,25.73,14.19.91,22.87,11.77,29.29,25,10,20.5,17.19,43.55,38.73,53,8.5,11.07,5.6,24.86,18.32,35.34,19.74-4.33,42.61-2.65,65.14-5.26,17.53-2.05,32.07.34,44.42,14.23,8.77,9.87,19.63,16.3,33.3,3.39-.78-37-44.11-38.7-55.26-63-15.19-33.08-48.09-26.58-65.52-37.44-11.05-13.6-4.6-24.37-10.26-34.74-9.88-14.38-32.27-14-43.37-29.67a26.49,26.49,0,0,1-3.87-8.05c-1.82-8.54-1.76-16.77,3.92-24.33,7.13-6.81,15.07-5.54,23.21-1.84,9.31,4.72,17,12.54,29.67,15.22,18.75-5.56,42.77-1.42,58.11-21.78,10.14-8.15,22.13-10.95,34.63-12.87,28.36-4.37,36.06-.27,43.52,27.33,3,11.05,11.3,20.36,10.23,32.57-8.12,11.58-21,12.66-33.28,14.31-15.06,2-25.17,8.78-27.08,24.76,3.33,13.22,17.94,13.77,25,22.84,6.66,8.56,6.83,20.15,14.19,28.19,42,23.69,44.73,28.89,38,73.79A83.2,83.2,0,0,1,3475.79,1722.05Z"/><path class="cls-1" d="M3086.92,1751.07c8.76-.31,10.11-14.26,21.68-11,4.27,12.13-.59,25.48,2.33,38,11.46,6.2,21.05-.94,30-4.44,10,6.21-3.54,20.07,9.87,23.85.83,1.12,1.64,2.24,2.46,3.35,1.86,12.39-6.83,20.36-12.35,29.67a38.3,38.3,0,0,1-13.2,10.88c-10.53,5-21.3,9.9-32.64,2.35-11.76-7.83-10.44-19.07-4.67-31-12.67.11-19.75,7.47-28.46,10.64s-18.92,4.45-26.15,14.42c-7.77,27.61,16.6,56.24,4.47,81.94-9.14,12.65-21.22,4.4-28.75,11.28-16.15,0-32.33-.17-48.51,0-24,.29-47.16-9.08-71.41-7-.5,0-1.3-3.06-2-4.68,7.75-11.55,19.79-18,26.78-24.19,25.32-8.35,32.59,11.93,47.9,20.29-35.69-45.17-46-101-71.85-153.18-9.19-7.72-35.35,12.56-37.64-17h19.84c6.59-4.1,9.56-10.65,12.11-17.42h8.67c15-1.31,22.65-16.55,35.14-19.92,13.67,5.48,5.86,18.28,12.24,26.11,10.34,6.24,21.2,4.46,32.09-.27,6.24-2.7,12.49-5,19.74-.28,12.09,17.89-1.08,31.15-10.08,46.37,16.46-5.3,30.84-13.91,46.36-19.69,12-3.71,26.92,9.51,36.69-6.59C3073.58,1749.27,3079.72,1745.85,3086.92,1751.07Z"/><path class="cls-8" d="M2442.68,1484.09c-2.79,9.88,8.69,16,6.24,26.67-2.11,9.12-.43,19.12-.43,28.32,14.45,22.57,37.15,35.26,57.91,52.06v18c6.14,4.47,12,1.91,17.52,2.68l11.63-5.8c10.57-.08,19.08,7.69,29.47,7.72,11,2.69,17.19-11.85,28.57-7.72-6.75,16-4.06,34-9.49,51.45,1.16,1.14,3.87,3.88,6.59,6.59,11.1,2.48,12.61-14.91,28.53-10.36,10.36,7,24.35,16.56,40,27.21-6.09,7.25-16.31,8.92-21,17.44-30.57-1.67-56.94,18-87.17,18.19-9.63-7.39-15.77-15-4.62-25.71-4.8-10.07-15.57-10.79-24.14-15.53-6.35,8.81-9.77,20.1-21.54,23.57-13.95-5.64-18.51-20.34-26.45-30.72-24.46-32-44.35-67.21-63.69-102.66-9.81-18-12.07-39.27-25.63-55.65-2.34-2.85-.33-9.31-.33-14.11-5.28-23.66,15.49-23.39,28-27.73C2425.83,1463.36,2440.11,1464.91,2442.68,1484.09Z"/><path class="cls-1" d="M3487.41,1530.52c-1.74-9.41-12.32-11.34-16.95-23.82v-25.44c-11.86-6.27-22.08-13-35.31-3.48-4.4,3.16-13,.51-19.63.51-5.69,3.06-8.08,10.4-15.19,11.61-2.12-19.36,9.69-34.27,33.09-33.69,26.67.67,51.33-8.26,76-9.44,10.77-7.23,3.12-22.61,15.18-27.71,16.28,5.61,27.73,20.15,52.44,29.32-13.92-32.36-2.61-58,4.39-89.56-20.62,13-37.27,20.58-55.74,21.13,0,12.52,12.19,14.16,14.76,25.1.26,6.72.31,15.3-12.36,15.29-7.17-4.7-14.09-10-22.11-11.31-29.82,15.61-29.82,15.61-47.08,8-5.29-11.52-3-22,5.25-31.62v-15a195.77,195.77,0,0,1,45.15-15.7c1.16-3.35,2.31-6.7,3-8.81,12.88-5.21,17.83,5,26.29,11.74,8.36-11,34.64-.91,29.64-27.72,8.1-5.14,19.37.36,23.88-9.64,8.78,5.66,13.53,11.63,11.12,20-2.24,7.82,6.86,11,6.24,19.38l-11.67,8.89c-.19,25.76-.19,25.76-6,37.18,3.52,3.2,7.23,6.31,6.05,12.1,9.16,7.54,23.46-4.65,31,7.92,3.78-1.23,4.68-6.5,9.38-5.55-2.08,26.39-12.71,50.47-20,75.48-4.82,16.55-14,30.82-20.59,46.41-24.21,28.74-49.76,12.91-75.15,2.3-8-11.57-21.31-8-32.26-11.13C3489.3,1532.39,3488.36,1531.45,3487.41,1530.52Z"/><path class="cls-3" d="M2912.79,625.1c-.82,6.4-6.92,8.69-12.11,15.71l18.28,6.87c-1.6,2-3.24,4-4.85,5.93h30.12c3,3.07,5.13,5.13,7.63,7.64,3.51,5.67.75,12.5,1.51,18.34,7,7.29,13.74,14.2,20.39,21h17.51c7.21,10.56,8.27,24.85,20,31.16v35.76c-5.41,3.63-12.52,4.31-16.2,10.33-6.79,15,11,28,3.33,43-19.89,8.19-37.83-11.36-65.75,1.09-10.53,8.3-19.53,27.88-25.81,49.78-6,3-12.28,6.17-17.93,9-9.68-3.07-2.07-10.75-8.51-16.51-19.61-4.38-24-28.47-40.19-41.76-3.19,10.07-10.29,16.89-18.56,23.51-7.36-2.12-13.84-5.35-13.3-14.85.47-8.21.07-15.75,4.76-24.25,3.63-6.69,10.41-10.64,12.93-18.88,2.13-4.32-7.51-6.67-4.53-10.29,11-13.38-.31-22.56-6.07-31.71-5-8-14.62-13-19.72-21-4.68-7.26-12.56-11.13-16.43-18.71-9.5-4.32-21-6.89-18.55-21.71,1.73-11.25,12.59-16.12,18.55-24.72,8.9-9.89,21.77-9.58,33.22-12.89C2845.48,637.47,2878.22,627,2912.79,625.1Z"/><path class="cls-2" d="M3522.22,1536.33c-.66,3.66,1.58,5.56,4.58,5.7,7.56.32,15.12.11,23.15.11.73,3.62,1.27,6.27,1.84,9,9,1.09,34.83-3.94,45.89-9-.38,15.44-10.66,26.64-17.67,39-19.76,34.79-39.46,69.81-66.45,99.74-3.52,3.89.25,12.74-8.75,12.19,2.75-9-7.55-14.37-6.09-23.55,1.35-8.41.29-17.21.29-25.79-2.77-2.76-5.48-5.48-8.46-8.44h-23.71c-3.82-4.62-8.08-9.74-14.28-17.23v-20.46c-10.3-14-29.67-8.09-39.28-23.23,5.48-11.11,11.55-23.38,18.85-38.15,17.59,2.84,36.27-2.53,55.28-5.67C3498,1538.66,3512,1526.23,3522.22,1536.33Z"/><path class="cls-9" d="M2732.89,1710.45h5.8c16.08,13.26,34.41,17.51,54.79,13.67,18.4.46,36.25,2,46.15,22.91-2.74,29.07-39.3,34.7-45,61.93-13.18,16.56-25.25-1.54-39.7-3.32,7.35,13.14,24.31,14,25.91,32.24-3.83,14.19-18.73,27.69-18.94,46.69a201.91,201.91,0,0,1-75.46-34.82c-9.51-5.86-8.17-13.55-.4-18.16,17.69-10.53,20.29-29,27.83-45.49-12.5-10.71-33.83-6.61-40.3-26.92,5.88-18.4,29.17-27.45,28.32-48.4C2713.57,1702.38,2723.29,1703.76,2732.89,1710.45Z"/><path class="cls-9" d="M3121.75,932.71c-2-13,5.16-22.82,11.67-32.94L3120.7,864c2.49-10,19.05-13.55,12.13-25.77,5.19-10.32,17.31-9.42,22.67-17.61,6-13.7-6.52-24.38-5.88-37.12-3.51-1.26-6.87-2.47-10.46-3.73,0-11,1.2-21.76-.33-32.1-1.53-10.18,11.73-16.11,2.41-30.22,14.26,4.38,21.84-7.08,31.74-4.77,8.85,2,16.91,7.6,27.35,4.57,7.37,7.69,16.5,14.32,21.49,23.26,4.7,8.46,12.94,11.41,18.63,17.75,12.66-8,11.1-17.61,3.36-27.21-1.12-5.59,3.51-7,5.38-10.07,4.16-7.18-6.78-8.72-5.57-14.89.33-5.54,5.87-7.13,9-11.85,13,4.11,24.73-3.73,37.5-5.27,17.74.39,27.92,14,40.62,23.21-14,31.35-37.32,52.53-69.64,63.85-23.53,6.49-42.13-7.07-61.83-15.52-11.27-4.84-21.16-14-36.07-8-11.31,20,13.11,29.32,14.36,45.38,4.21,27.71-21.13,43.52-29.78,69.13,25,17.19,49.15,35.5,28.58,70.53,9.31,6.63,23.24-.58,28,11.92.88,10.85-9.47,12.39-14.87,18-6.71,5.08-11.46,13.11-21.28,14.36-18.61-2.13-17.42-19.95-24.25-31.46C3138.83,941.57,3121.14,948.68,3121.75,932.71Z"/><path class="cls-10" d="M3412,921.1c7.29-18.17,22.69-33.71,17-55,6.88-5.72,13.93-1,19.3-3.5,6.52,3.63,8.81,11.21,15.82,12.17,6.52-1.22,8.92-7,13.41-10.48,9-2.83,17.48-1.93,25.28,3.75,3.79-3.06,1.3-7.22,2-10.76,12.38,14.9,25.49,29.25,34.82,46.42,6.28,12.85-2.1,15.85-11.72,15.38-10.53-.53-21.06-1.31-28.17-.37-12.52-2.34-15.61-12.58-24-15.85-10.13,8-13.33,19-17.34,31.25,21.21,38-1,66.45-23.5,94.89-13.11,5.2-24.54,1.24-35.29-6.41-10.32-9.77-20.51-2.81-30.74.38a46,46,0,0,1-7.46,2.14,50.13,50.13,0,0,1-23.66-1.23c-17.56-6.37-36.57-10.25-47.64-27.76-6.5-22.58-9.43-44.78,7.38-64.69,10.76,3.22,10.31,12.54,11.58,20.93.82,5.52-.35,11.66,4.65,16.06,7.47,5,14.74,1.62,22-.57,9.07-3.2,18.07-7.26,30.3-2.23,9.14,2.93,9.18,16.5,18.4,23.29,15.21,3.6,30,4.09,38-8C3434.91,955.09,3403.1,942.72,3412,921.1Z"/><path class="cls-8" d="M2854.77,1745.28c-.28,5.89,5.85,7.06,7.72,10.57,15.31,6.35,28.23-11.42,43.7-2.87.18,7.9,4.08,16.5-3.9,23.15,2.05,4.72,2.78,11,6.3,13.8,21.12,16.53,24.42,38.77,21.33,62.31,12.2,12.93,24.18,23.7,30.22,40.72,3.69,10.37,16.4,17.43,27.14,28.66-17,5.89-30.15,2.28-42.25,3.78-10.51-8.82,6.49-12.76,1.92-21.39-6.12-5.82-18.71,2.89-22.45-10.35-12.53,10.64-16.95,27.86-34.92,25.73H2878c-10.6-4.57-11-16.9-17.69-23.76-17.4-9.36-30.53,7.08-46.16,6.36-5.72-2.23-14.7,5.37-17.41-5.82-1.47-9.26,1.69-16.66,9-22.42,21.49-9.5,46-11.77,64.45-29.06,10.69-10,20.61-19.51,23.92-38.61-30.54-10.91-76.78-14.77-45.13-66.62C2853,1739.33,2854.91,1741.25,2854.77,1745.28Z"/><path class="cls-1" d="M3591.87,996.55c0,2.89-1.26,7.05.19,8.47,21.2,20.77,25.46,49.27,34.18,75.47,2.78,8.32,9.37,16.41,6.26,26.34a10.41,10.41,0,0,1-7.34,3.15c-26.51-13.23-53.7-25-78.73-36.36-11.24-13.46,1.68-26-2.93-38.47-17.54-2.09-14.88,33.27-39.6,19.47,1.72-21.45-21-33.58-23.69-48.39.7-24.43,30.42-22.86,25.5-44.57-1.3-20.63,8.69-29.91,28.93-27.76a77.06,77.06,0,0,0,22.41-1.19c8.1,5,11.82,12.34,11.63,21.8-.09,3.94.33,7.64,5.78,7.23,7.68,9.67-3.92,19.28-.36,28.56C3578.66,997.21,3586.69,992.66,3591.87,996.55Z"/><path class="cls-2" d="M2367.23,1112.64c-.12-14.68-.4-29.41,11.6-40.64,10.06-5.35,18.72-13.4,31.4-16.15,23.48,3,32.55,22.7,42.33,41.19,14.11-2.6,14.45-14.85,19.72-23.17,4.6-7.25,2.73-20.3,16.83-19.26,8.27,7.21,11.81,17,13.89,23,3.3,17.88-19.5,28-2.92,44.78,7.27,3.84,10.33-15.32,20.85-5.88,10.46,7.32,19.45,16.57,14.82,32.18-11.4,4.84-23.8,5.08-33.46,7.65-10.21.16-13.94-9.11-21.07-9.64-9.42,6.72-7.2,18.46-14.21,25.17-8.32,5.51-16.72-3-23.38-.78-13.51,6.87-9,22.41-18.57,29.79-17.45-15.66-30.3-35.06-40.52-55.61C2379,1134.18,2372.49,1123.76,2367.23,1112.64Z"/><path class="cls-5" d="M2732.89,1710.45h-26.4c-5.94,8.31-.22,18.43-3.74,27.28-8,8.78-21.94,10.51-27.42,22.67,15,17.51,41.49,9.12,58.85,23.55-3.59,13.39-20.52,2.08-22.6,17,4.37,3.59,4.79,10.31,3.22,18.66-10.66,6.87-22.09,14.24-33.59,21.67.9,2.89,6.21,3.79,5.24,8.5-14.29.29-22-12-33.08-17.81-20-10.4-39.18-22.55-54-40.23,1.23-6.06,5.6-9.19,10.13-11.41,7.16-2.45,9.76,11.73,17.65,3.92-1.21-12.16-13.47-18.32-18.12-32.07,31.78,1.93,56.09-14.26,82.83-29.3.13-3.08.44-9.54.75-15.95,12.7-1,16.08-12.61,20.4-19.54,12.05-.55,5.63,9.61,11.53,12.47C2728.07,1701.52,2733.09,1704.62,2732.89,1710.45Z"/><path class="cls-11" d="M3359.71,1820.72v-8.66c-4-6-10.93-.7-15.63-4,5.41-10,4.37-20.65,3.66-29.85-7.72-13.86-23.59-15.45-31.34-26.66-3.23,1.55-3.73,5.36-8.34,3.82-.25-3.21-.51-6.86-.61-8l35.73-35.75c6.6,3.08,17.76,7.56,33.66,2.08.73-1,4.23-5.49,7.49-9.69,21.77,1.85,35.35,13.19,45,30.1,4.25,7.46,9.47,13.6,17.47,17-13.62,23.27-37,36-57.43,51.65A199.34,199.34,0,0,0,3372.6,1817C3368.5,1821,3364.37,1820.74,3359.71,1820.72Z"/><path class="cls-4" d="M3011.46,1931c3.93-12.34,15.24-2,22.25-7.58,2.88-2.61-1.44-9.87,5.52-10.58-7.93-24.74-7.53-50.49-16.45-72.2,1.23-10.91,10.79-12.75,13.55-19.52,19.3.77,34.41-7.79,48.11-18.62,6.92-5.49,12.63-7.52,20.92-1.47-4.41,10.09-8.43,20.3-17,27.08,4.53,5.46,9.16,11,13.51,16.25,13.41-5.56,26.71-8.84,37.29-17.83,7.44,8.82,4.23,16.73-2,24.38-12.19,13.48-39.63,7.09-43,32.1,3.94,14.55,15.44,15.7,27,17.68,9.11,1.55,21.95-2.54,23.8,12.91-11.22-1-20.78,5.67-31.9,7-11.51,1.36-23.15,5.57-35.08,4.45-11.48-1.11-20.32,7.85-32.09,6.3C3034.61,1929.84,3023,1931,3011.46,1931Z"/><path class="cls-2" d="M2645.84,723.76c1.51,9.27,11.92,4.72,15.89,10.22,6.26-10.37,9.28,5.74,16.13,1.8,5.92-3.44,9.56,4.05,14.55,8.34-13,11.7-22.77,26.81-40.23,31.32,2.44,13.62,16.79,9.56,21,18.86,2.13,9.27.27,20,7.5,28.13-13.8.73-23.62-9.08-34.08-15.11-6.74-3.88-15.28-6.75-20.6-13.45-23.07-.37-25.65.23-46.91,11l-6.06-5.41c-4.86,4-1.66,9.21-2.86,14.39,3.34,2.75,6.64,7.61,10.51,8.15,5.72.8,7.69,5.06,12.59,8.11-3.85,7-9,9.1-16.94,10.37-6.46,1-12,7.56-17,10.95-9.06,0-4.25-8-9.77-11.55-7.85,0-17.34.17-26.83-.13-3-.09-5.23-2-4.56-5.69,32.47-38.56,67.69-74,112.41-98.64C2636.24,732.28,2638.6,724.85,2645.84,723.76Z"/><path class="cls-11" d="M3150.75,1797.51c.69-1.63,1.68-4.74,1.94-4.68,15.28,3.57,32.24,3.51,44.66,14.06,12,10.16,26.85,13.81,40.67,23.37-8.78,15.86-6.59,34.13-4.89,52.3.1.82,3.07,1.34,4.71,2-12.5,10.5-28.58,12.39-43.3,16.91-8.45,2.59-16.42,9.42-26.36,6.3-16.77-3.32-33-7.63-42.56-22.53-4-14.65,3-24.65,10.64-34.39C3136.07,1831.73,3158.92,1818.83,3150.75,1797.51Z"/><path class="cls-12" d="M2471.68,892.07c8.36,1.56,10.91,10.1,17.29,14.24v11.77c-5.86,7.9-16.53-1.45-22.57,5.28-4.33,7.57,6.19,9.21,5.28,15.15,4.8,8.1,2.81,16.4,2,22-7.5,14.54-22.05,11.36-32.37,20.28,9.85,24.56,47.09,31.79,44.18,65.67-13.84,15.18-29.63,23.33-50.75,14.74a51.26,51.26,0,0,0-36.53-1.13c-5.35,1.76-13.28,6.73-13.61-5.42-.73-20.68,11.43-37.44,18.51-55.3,13.09-33,35.67-61.26,52-92.86C2458.08,900.69,2463.37,893.62,2471.68,892.07Z"/><path class="cls-5" d="M3557.05,932.71c2,7.65-2.59,12.23-9.56,17.92-2.19-4.77-4.48-9.8-5.31-11.6H3520c-11.16,5.53-9.29,14.44-9.33,22.71,1.82,23.38-27.92,14.53-30.94,27.79-9.5,26.91,22.34,30.16,21.8,53-26.85,14-45.28-7.89-66.32-17,6.75-22.42,23.5-40.24,28.17-64.71-3.89-6.47-5.06-17.34-19.12-20.26,9-19,21.16-35.75,25.67-54.2,24.23-.74,11.12,27,29.25,29,6.93-.42,8.93-8.41,14.65-11.43,3.35,3.37,6.78,6.79,10.77,10.76h12.74c4.17-3.27,1.6-7.46,2.33-11C3546.29,912.85,3557.18,919.48,3557.05,932.71Z"/><path class="cls-13" d="M3261.05,776c1-6.22,5.57-11.15,10.71-11.18,9.36-.06,4.42-9.28,9.57-11.83h17.32c2.59-7.81,7.39-14.29,14.68-20.28V714.64c6.07-4.17,11.9-1.77,17.36-2.49,16.89-.54,26.48,13.73,39.87,20.27,9.14,4.45,16.06,13.41,24,20.37-3.53.73-7.69-1.81-11.5,2.94,8.2,8.24,16.54,16.61,26.81,26.95-11.31,6.9-25.25,4.5-28.69,16.55-5.93,0-10.75,0-15.54,0-8.37.28-9.52,11.89-21.33,11.56-2.78-4.57-6.78-11.09-10.77-17.62-6.07-4.6,7.11-7,2.46-14.78-5-5-44-2.59-57.2,3.45C3272.43,781.26,3268.48,773.33,3261.05,776Z"/><path class="cls-12" d="M2442.68,1484.09c-7.88.64-4.34-6.8-7.74-10.73h-25.51c-4.84,9-14.22,12.43-24.8,11.54v10.79c-9.91-8.9-9.42-21.89-13-33.28-7.84-25.15-17.1-50-16-77v-20c3.16-8.2,16.32,3.16,17.41-9,15.61-10.84,27.61-5,38.07,8.15,3.87,9,2.1,17.81-1.17,26.51-4.66,12.14-11.14,24.34.46,35.89,9.61,3.45,10.27-7,16-9.21,10.92-3.33,17.22,4.39,26.34,10C2448.8,1446.73,2447.12,1465.6,2442.68,1484.09Z"/><path class="cls-12" d="M3162.38,665.73h-5.82c-5.83,8.81-10.2,18.7-18.7,25.58-38.14,18.23-65.77-23.41-101.2-14.93-10.34-17.94-15.63-33.62-7.76-51.28h34.8c12.57,0,27.55-4.29,37,1.09,11.73,6.64,24-.26,32.52,5.39,10.67,7,23.89,1.51,33.59,10.61,4.46,4.21,15.24-5.12,18.75,6.12C3188.52,668.35,3169.22,658.73,3162.38,665.73Z"/><path class="cls-1" d="M3249.43,1878.77c-3.62.65-5.62-1.57-5.7-4.53-.23-13.3-.09-26.59-.09-40.19,34.55-9.22,46.74-38.41,58.9-65.23,13.77-2,22.51,7.07,33.67,6.54V1790c-5.26,4.36-11.83,9.82-17.11,14.22v39.7c-11.15,12.25-37.3,28.09-52.06,28.5C3259.68,1872.64,3255.64,1877.82,3249.43,1878.77Z"/><path class="cls-4" d="M2384.63,1054.61c0,1-.19,2.7,0,2.76,7.73,1.93,14.26-6.08,22.2-2.76,9.31,3.88,14.43-8.87,22.95-6,10.16.65,12.57,16.05,23.76,12,7-1.09,9-7.93,13.89-10.13s10.44-2.18,15.66-3.14v-12.94c-10-4.28-21-8.48-17.13-22-14.47-10.71-28.14-20.84-40.47-30-1-8.39,4.77-9.92,7.84-14.61h28.93c4-3.72,6.78-6.33,9.37-8.76V938.51c12.62,1.58-.35,17.47,11.15,19.55-14.12,24.36-14.12,24.36-32.95,28.39,1.8,14.28,15.78,9.33,23.5,13.41,8.6,4.51,11.29,15.27,23.33,17.09-10.1,11.43-7.22,24.77-7.6,37.66-5.61-.45-5.05,3.58-5.93,7.33-4.55,19.37-12.53,37-26.24,51-18-3-13.31-16.36-14.21-24.4-9.73-10.46-18.16-19.52-25.93-27.89h-11.89c-3.42,2.08-2.79,5.08-2.87,8.41-5.41,6.42-16.37-.6-21.18,7.86-.69-.67-1.61-1.25-1.94-2.06a8.15,8.15,0,0,1-.09-2.85C2381,1066.29,2373.46,1057.32,2384.63,1054.61Z"/><path class="cls-12" d="M2367.23,1112.64c18.28-1,18.21,14.84,23,25.81,1.39,3.24.21,7.6.21,12,9,7.34,15,19,29,22.16,0,7.41-.2,15,.13,22.51.11,3,2,5.22,5.66,4.57,5.55,28.55-7.37,45.76-37.33,49.83-9.29-5.73-2.44-11.2.59-16.38,3.35-5.7,7.55-10.94,6.37-20-11.38-13.07-32.92-11.19-45.06-25.07.38-9.83-.52-19.26,5.24-28.87,4.23-7-2.73-17.83,5.51-25.86C2365.88,1128.18,2354.88,1116.47,2367.23,1112.64Z"/><path class="cls-10" d="M2808.34,1878.77c-7.78,0-5.46,5.94-5.77,10.13-.28,3.92-.32,7.7-5.85,7.27-13,.44-25-2.34-34.81-11.6-6.4-7.79-6.47-16.93-5.57-26.36,6.16-8.32,19.72-9.41,20.78-23.8-3.22-2.47-8.18-6.3-17.41-13.45l-13.51-.73c-3.92-9-.23-18.12-2.48-28.48,18.8,1,28,12.85,38.17,22.84,3.4-1.2,4.32-6.4,9-5.48,1.35.29,2.7.57,4.07.83,10,5.41,17.43,13.71,24.6,22.32C2832.4,1851.77,2818.64,1864.85,2808.34,1878.77Z"/><path class="cls-2" d="M2779.32,659.91c1.6.66,3.23,1.3,3.54,1.42-7.3,7.26-15,15-23.22,23.16,7.51,4.55,7,11,10.2,15,2.36,2.89,10-.72,9.48,6.89h-14.88c-3.74,5.75-8.88,13.62-14,21.49-15.84-1.72-15.84-1.72-25.43,6.71l-8.11-4.79c-7.06-2-8.4,9-16.11,5.29-6.53-5.53-.3-14-3.58-20.83-4.23-4.89-8.62-10.06-16.55-7.87,4.48-13.11,17.56-13.69,27.53-18.78C2731,675.93,2754.35,665.92,2779.32,659.91Z"/><path class="cls-14" d="M3481.6,834c1.39,8.77-3.19,13.92-10.84,17.55-7.56-.17-9.69-8-16.39-12.19H3408.6c-2.76-2.76-4.77-4.79-7.53-7.53V801.73c7.11-9.38,17.21-15.36,28.29-19.93C3450,796,3465.42,815.39,3481.6,834Z"/><path class="cls-8" d="M3626.71,1106.83h5.79c9.83,8.63.93,24,11.6,32.29-3.85,17,8.87,32.05,5.82,49-11.29,1.34-9-6.08-8.26-12.49a14.84,14.84,0,0,1-6.15,4c-17.41,0-26.71-12.75-34.1-19.85-9-11.26-.88-20.55-5.95-28.21-16.14,5.58.83,32.82-22.37,33.48a23.2,23.2,0,0,1-5.22-11.67,91.1,91.1,0,0,1-.23-21.89c3.33-20,15.7-31.92,29.18-37.31C3614,1090.58,3612.84,1112.3,3626.71,1106.83Z"/><path class="cls-15" d="M3139.16,1849.75c.85,11.82-8.88,19.56-12,31.27,9.07,11.48,23.61,14.84,36.44,20.9,2.74,1.28,5.22,2.2,4.55,5.86-6.84,5.5-14.82,6.51-23.21,5.82.42-5.53-3.35-5.8-7.3-5.8-11.4,0-22.79,0-32.47,0-8.08-8-15.32-15.2-23.5-23.29,2.34-10.58,9.75-20.63,20.8-29.48,10.91,5.42,19.72-6.3,30.85-5.26Q3136.26,1846.07,3139.16,1849.75Z"/><path class="cls-1" d="M2349.82,1188.09c4.77,0,11.12-2,14,.34,10.58,8.6,22,12.25,35.44,11.79,2.61-.09,5.4,5,8.08,7.69,3.19,8.83-7.89,13.36-6.07,23.24,1.59,8.59-14.64,5.56-16.65,15-1.93,2-3.88,2-5.8,0-12.62-5-14.6,13.91-28.58,11.09-.89-14.8-.24-30.38-.43-45.92Z"/><path class="cls-10" d="M3638.3,1176.48c-.31-2.81.57-4.74,3.68-5,6.43,3.74-3.85,15.45,7.94,16.64-3.05,17.1,8.26,32.2,6.2,49.61-1.91,16.15-.39,32.69-.39,49-4.42-.86-11.13,2.88-11.63-5.8-11.92-11.68-32-14-39.12-36.7C3623.53,1227,3623,1198.24,3638.3,1176.48Z"/><path class="cls-8" d="M3162.38,665.73c-.4-5.41,3.23-6,7.18-5.77,8.64.53,13.79-3.49,16-11.65,13-.43,25,2.35,34.84,11.6-3.62-.65-5,1.6-5.91,4.84-.31,8.46,9.95,10.45,12.19,16.65-5,13.31-11.56,23.94-22.49,31.45-8-5.64-17.83-6.59-24.51-15.58V668.19C3173.69,664,3167.86,666.45,3162.38,665.73Z"/><path class="cls-4" d="M2814.13,1902c3.87-8.82,15.77-8.25,19.21-16.92h38.4c1.55,11.68-2.21,24.39,6.24,34.32-14.5.66-28.34-4.24-40.59-10C2829.59,1905.8,2817.83,1915.48,2814.13,1902Z"/><path class="cls-2" d="M3591.87,996.55c-6.33.77-8.58,6.81-13.7,10.6L3563,999.76V982.41c4.2-6.51,14.41-10,11.5-20.67C3583.48,971.72,3591.23,982.36,3591.87,996.55Z"/><path class="cls-11" d="M2576.16,1344.8c.66-3.61-1.56-5.6-4.51-5.7-9.42-.3-18.88-.11-27.46-.11-4.82-4.94-1.82-10-2.89-14.53,6.79-2.71,15.45-5.06,17-12.37,1.58-7.8,5.58-11.15,11.34-13.69,8.5-.93,5.36,6.25,7.48,9.61a14.52,14.52,0,0,0,15.66,0c4.3-10.44-8.29-11.17-10-17.91v-26h36.43c3.6-3.59,6.28-6.29,8.93-8.95-1.2-3.4-6.37-4.33-5.48-9,4.61-6.58,11.53-10.34,17.93-14.81a27.31,27.31,0,0,1,20.26-.89,24.07,24.07,0,0,1,7,4.65c15.1,19.86,38.55,25.85,60.2,30.28,38.66,7.93,60.84,34.73,54.77,73.84-1.91,12.45-5.67,24.25-12.8,34.8-26.54,2-26.54,2-34.86,11.09-.26,10.8,19.3,15.44,9.38,29.36-7.09-1.22-9.5-8.51-15.11-11.61-5.63-2.18-7.54,3.92-11.61,5.2l-8.06-8.09c8.18-5,5.38-13.11,5.75-20.33-4.53-10.32,7.23-16.37,6.72-24.55.42-8.88-6.29-14.35-6.72-21.88-3.3-11.37-12.68-3.18-20.47-6.59-2.74,4.1-5.91,8.77-8.36,12.43-10.8-3-9.95-12.06-14.39-17.14-7.32-2.45-9.67,4.18-14.73,8.11v22.9c-3.64,4-6.21,6.74-9.76,10.56-10.74-9.68-24-6.57-36.74-7-12.05,4.73-12.64-13.45-23.21-11.61Z"/><path class="cls-4" d="M2976.65,1739.46c.66,3.64-1.57,5.63-4.53,5.7-11.41.27-22.81.12-31.55.12-5-4-8-6.34-8.67-6.9-7.23-11.77,7.2-16.7,3.68-25.25-2-3.59-5.19-2.39-8.82-2.86-4.36,7.31-.69,19.19-11.75,23.23-5.43,2.42-7.41-3.66-11.28-5-2,1.67-4,3.23-6.07,5-.92-2.29-1.59-3.93-2.27-5.58,5.71-22.84,5.71-22.84,0-47.23.19-.88.07-2.08.61-2.62,12.88-13,25.84-25.94,39.19-39.28.84-6.88,2.66-14.21-1.52-20.93-11-2.76-12.28,11.79-21.46,11.46-13.61-4.67-14.86-19.14-10.09-25.43,8-10.53,1.8-20.43,5.55-29.41-4.75-3.17-6.4-8.57-11.83-9.1-1.7.6-3.57.89-5.06,1.8-8.19,5.06-6.84,17.56-16.93,21.44-5.64,1.29-7.84-3.87-13.29-8.27v-44c.92-.94,1.84-1.87,2.73-2.81,9.8-4.63,17.95-1.58,25.26,5.45,6.48,6.28,9.34,1.77,11.73-4.09,7.3-19.44,23.45-19.48,41.68-19.71,20.12,22.82-4.25,55.33,16.51,77.13,3.71,12.87-1.11,25.32-2,37.94-1,11,11.91,17.53,9.19,29-9.37,11.19-37.6,14.07-17,38.52,4.08,9-1.85,18.12.14,27.56,4.34,9.08,14.35,6,21.53,9.23A15.53,15.53,0,0,1,2976.65,1739.46Z"/><path class="cls-9" d="M2808.34,1878.77c-2.75-8.07,3.31-15.67,6.54-19.58,8.67-10.53,4.66-18.11-.75-26.85-5-10.46-13.49-17.48-23.2-23.23-2.73-9.9,9.26-16.15,6.68-26.55-.39-1.53,5-7,10.35-8.46,13.84-3.67,23.88-12.27,28.36-27-3.72-3.59-8.57-8.24-14.36-13.79-10.81,5.24-19.71-6.46-31-5.41-1.93-1.29-2.55-2.57-1.93-3.87s1.27-1.94,1.93-1.94c19.7-6.48,38-6.55,52.22,11.62-.14,4,1.79,5.95,5.81,5.79-.82,11.89,3.47,24.63-7.53,35.93l23,16.53a10.75,10.75,0,0,0,10.28-4.93c12.51,6.16,30.91,5.37,29.45,27.42-7.11,5.63-11.41,16.71-15.71,27.8a122.68,122.68,0,0,0-42,30.53C2833.49,1874,2819.84,1869.54,2808.34,1878.77Z"/><path class="cls-11" d="M2744.48,1414.45c1.67-16.37-10-17.21-21.42-18.5-3.57-4.1-.92-9-1.75-13.47,4.15-5.1,8.88-9.32,15.71-9.86,4.55-4.51-1.56-11.53,3.92-15.65,9.68,4.49,12.73,19.37,26.75,16.84,19.37-25.36,27.61-26,48.87-3.84,2,12.71-10.8,22.42-7.94,35.55-7.62,25.06-20.76,48-30.82,71.94a352.75,352.75,0,0,0-15.89,47.26c.54,6.11-6.47,6.63-7.7,12-14.38-10.5-13.48-27.27-14.45-40-1.75-22.53-7.66-47.35,10.06-67.73C2745.62,1425.27,2743.42,1420.47,2744.48,1414.45Z"/><path class="cls-3" d="M2761.91,1524.72c-2.29-10.62,5.29-23-5.64-32.09,7.45-7.48,14.94-14.94,23.33-23.33v-35.93c7.51-4.75,14.4-9.15,20.17-12.81,4.48-6.38,2-12.25,2.76-17.72,29.52-15.32,66-10.54,90.24-35.1,23.66,21.15,20.66,57.07-5.06,99.92-17.21-4.94-5.9-22.14-13.36-31.37-7.42,7.08-10.72,19.11-22.13,19.37-14.62-2-12.21-17.1-23-24.85,3.28,19-.32,34.5-11.62,45.42-1.75,10,5.28,16.53,3.51,24.57-2.1,2.23-4.41,2.56-7,.71l-21-10.75c-3.5,10.7-19.42-1.62-21.59,10.21C2761.86,1507.33,2775.39,1521,2761.91,1524.72Z"/><path class="cls-9" d="M2593.59,1606c-8.35,2-11.24,8.51-13,15.89-13.44,6.83-24.45-4.43-36.89-5.42-2.74-.21-8.36-4.65-8.14-10.47-.88-6.09.42-11.3,6-14.72,5.74-3.51,6.05-9.07,5.51-16.09-2.65-6.47-13.56-3.75-16.75-13.49V1544.2c8-1.86,14.91-12,22.44-7.42,15.72,9.56,37.74,0,51.32,19.91V1593C2602.28,1596.54,2594.68,1598.79,2593.59,1606Z"/><path class="cls-8" d="M2715.45,1333.19c15.92,11.74,15.62,12,17.44,25.21-4.42,8.21-14.84,11.49-17.44,21.22-7.79-.61-4.41,6.62-10.06,13.69-1,1.21-7.74-5.08-12.52-.12-3.68,3.84-6.2,9.94-12.89,9.75-5.38-2.49-9.66-5.67-11.28-13.12,2.78-7.45,15.51-4.57,18-15.79-4.49-7.11-8.11-16.41-5.53-26.84C2693.73,1345.35,2699.82,1327.55,2715.45,1333.19Z"/><path class="cls-8" d="M2843.15,1733.67c-3.59.9-4.58-3.39-6.92-3.85-15.07-2.86-30.21-5.21-45.3-7.77,3.29-9.26,19.5-7.41,18-20.85,10.16-4.79.21-19.89,15.28-24.68h22.92c6.51,12.56-3.74,21.08-8.87,31.36C2847.19,1714.46,2841.71,1724.8,2843.15,1733.67Z"/><path class="cls-8" d="M2790.93,1722.05v5.81c-10.74-3.16-18.75,7.32-32.34,5.34-5-6.82-15.46-11.78-19.9-22.75,7.28.31,15.33-2.32,20.12,4.82,13.79-4.92,6.43-18.14,10.2-27.52h13.92c8.38,14-6.07,20-10.75,27.36C2777.37,1726.35,2785.18,1720.34,2790.93,1722.05Z"/><path class="cls-4" d="M2814.13,1501.51h5.81a30.29,30.29,0,0,1,7.48,2.48c14.58,7.17,36.93,6.37,33.14,32.34-9.87,2.78-16-9.29-26.57-6-9.66,3-17.08-4.74-25.35-8.07C2806.33,1514.13,2817.1,1509.67,2814.13,1501.51Z"/><path class="cls-2" d="M2587.79,1344.8c-.67-3.31,1.46-4.72,3.68-5.66,13.6-1.94,10.1,14.77,19.53,17.27-2.15,10.91-9.81,4.62-15.33,5C2593,1355.83,2590.4,1350.32,2587.79,1344.8Z"/><path class="cls-1" d="M3290.07,1518.91c9.19,3.52,14.59,12.72,26.78,13.07,12.62.36,18.49,16.67,32.78,18.09-5.18,9.19-6,17.84-13.46,24.19,5.12,4.22,10.2,8.39,17.24,14.17,4.54.77,12.12,2,16-7.75,8,7.67,16.59,7.5,24,9.32,9.87,10.8,12.73,24.44,20.76,37.42,6.21,2.55,13.41,9.27,23.78,7.5,15.45,15.7,32.95,30.13,38.92,55.23-5.12,3.68-10.55,7.59-19.25,13.83h-20.19c-5.55-8.06-18.46-12.6-21-28.62-12.23,2.28-24.42-2.83-37.38,5.47-8.67,5.54-19.56-1.85-26.88-5.53-13.17,1.76-20.4,12.79-31.86,12-9.66-.21-11-10.51-18.89-13.17v-32c-10.06-3.53-23.12,3.44-28.74-12.47v-15c-5.51-5.18-11.13-10.47-17.34-16.35v-18.73c-21.56-19-46.88-12.93-72.6-14.57-5.6-3.06-9.56-11.41-18.84-12.86-8-1.22-4.25-14.14-13.21-15.76.17-4-1.77-5.95-5.78-5.81-30.09-15.64-49.81-39-56.71-69.41,6.81-15.54,16.26-18,27.62-16.68,18.41,6.29,36.41.34,54.5-2.2,29.83-3.62,34.48-6.89,53.8-37.34,5.19-10.89-6-21.42,2-31.08,14.46,8.78,29.73,16.72,34.84,34.82-18.36,27.74-35.41,56.3-75.77,54.86-14-.51-28.93,3.64-35.92,25.55,31.55,8.18,61.74,21.55,94.11,20C3261.05,1508.21,3275.33,1511.82,3290.07,1518.91Z"/><path class="cls-15" d="M3115.94,1449.27c-9.51-.29-19.27-1.1-23.21,10.7,7,20.61,19.73,37.09,35.78,51.54,6.16,5.53,13.86,10.22,16.46,19V1545c-4,6-10.89.78-16.53,4.7v29.4c-7.67,7.15-16.15,12.2-22.06,18.11-5.1,5.09-10.06,12.69-16.13,20.66-15.47-2.29-32.49,4.13-49.83-6.06-10.35,10.19-25.27,3.8-38.52,6.54-2.55,4.09-8.51,5.5-7.7,13.46,7,2.2,9.58,12.36,17.08,14.38,11.38,3.06,10,14.83,17.09,20.27-13.5,6.7-17.78,18.22-16.91,32.42-.87,1-1.74,2-2.62,3.06-5.87,3.62-12.09,5.93-19.2,4.69-25.24-13.83-11.38-34.17-7.9-51.22-7-16.44-24.57-11.3-34.11-20.36-2.48-14.18,10.18-26.19,5.81-40.63,11.19-2.47,11.35,12.59,20.38,12.37,43,8.65,68-32.72,104.67-35.16,7.31-10,6.05-18.95,3.59-27.12-9.28-30.5.21-61.15-1.35-91.7-.63-12.34,5.32-23.53,19.34-24.55,13.13-.94,21.9,6,23,20.19C3121.05,1451.63,3118.66,1451.92,3115.94,1449.27Z"/><path class="cls-16" d="M3086.92,1751.07c-7.39-2.83-11.24,5-17.41,5.82-10.18,18.16-20.94,1.94-31.41.15-13.41,1.92-21.23,22.09-39.34,11-6.52-17.2-2.53-31.59,17.52-41.58-9.42-1.86-16.24,2.07-22.18-2.53-3.14-3.28-3.79-7.13-2.75-11.44,4.38-7.94,14.21-7.92,20.11-13.64,13-3.54,13-3.54,20.79-17.4,7.46-2.5,9.87,9,17.4,6.25,4,3.85,1.77,11.27,8.12,13.87v27.52C3067.84,1736.65,3077.38,1743.86,3086.92,1751.07Z"/><path class="cls-4" d="M3226.21,1373.81c-2.79,10.65,7.11,14.18,11.63,20.74-9.67,26.6-21.54,33.08-44,54.72H3174c-9.22-22-7.66-45.15-7.49-70.5-26.05,4.85-46.69-11.88-70.73-19-19.65,20.5-41.9,27.64-66.48,16.37-15-11-14.58-38.07-41.46-32.63-.61,9,7.82,9.87,12.08,13.78,10.23,9.43,14.14,20.75,10.34,34-4.18,14.61-16,18-29.52,17.93-6.8-.05-13.29,1.34-20,2.58-25.12,4.73-40.55-4.7-48.1-29.17-3.67-11.9-4-24.79-10-35.52-6.09-8-14.4-10-21.26-11-13.19.16-20.21,10.7-38,12.68-28.69-26.84-58.9-58.83-88.8-90.72-33.66,2.19-65.94,2.19-91.42-23.45-6.16-4.4-12.69-8.68-5.82-17.42,23.72,2.65,43.68-5.5,59.8-22.36,9.16-9.61,22.7-10.82,32.35-19.87a152.83,152.83,0,0,0,34.73-47.37c6.68-5.12,12.72-1.93,18-3.42,4.19-1.21,7.92-3.94,11.36-5.74,10.75,1.54,10.75,11.84,15.64,17.31,9.75,3.7,15.25-6.15,23.68-6.54,1.75-9.14,13-16.46,5.32-27.49-10.92-3.73-12.07,11-22.53,11-8.5-7.19-18-15.2-27.42-23.23,2.67-3.51,6.4-5.15,10.56-6,12.13-2.84,24.66,4.37,36.61-1,8.09-7,3.39-16.5,5.31-24.56,6.77-21.26-17.93-39.21-5.65-62.61,21-12.31,37,2.09,53.8,12.54a25.27,25.27,0,0,1,9.21,14.28c3.35,10.85-5,24.19,6.63,33.18,6.13,2.34,8.51-2.26,11.58-5.41,9.16-18,23.87-32.9,28.65-53.24l11.61-5.8c10.11-4.62,20.93-2.89,31.43-3.58,19.09,19.82,4.5,39.66-1.1,58.75-3.95,13.4-9.07,25.48,2.79,38.71,14.14-2.26,25.69-17.78,42.5-10.45,10.14,4.44,19,9.5,21.92,22.52-1.2,19.33-14.86,32.09-31.91,35.52-31.48,6.37-63.76,5.68-89.78-17.72-27.26-24.5-39.89-24.32-64.13,3.92-5.62,6.56-12.07,12.6-15.68,23.84.52,31.69,24.33,54.56,37.13,82.82,19.13-6.68,24.45-27.18,42.81-28.47,14.48-.88,21.78,16.1,36.49,15,20.55-7,9.12-33,26.6-43.41,31.07,10.62,9.09,35.59,13.67,54.58,16.93,30,42.79,4.91,62,7.41,11.55,4.94,15.3,11.84,13.63,22.26-9,14.7-26,15.27-40,20.21-42.22,14.87-49.25,34.48-23.16,75.2,30.45-7.28,61.4-34.48,93.41-1,13.13-20.81,22-38.23,38.51-51.18,35.78-28,53.61-23.59,66.68,16.06,5.1,26.32-33.33,30.56-20.05,56.34C3224.44,1367.86,3226.38,1369.8,3226.21,1373.81Z"/><path class="cls-11" d="M2640,1234.52v11.61h-17.43c-11.17-2.71-3.59-11.71-5.81-17.41-.82-.43-2.17-.64-2.45-1.3-14.1-35.34-34.83-63.33-75.53-70.32-3.5-.58-4.53-5.59-3.25-9.65-3.31-10.21-11.7-17.92-12.62-28.69-6,.1-10.72-1.85-15.07,1.12-1.15,4.91,6.81,6.17,2.79,15.15l-7.61,5.45c-3.51-13.49-17.28-20-27-33.86,7.65-7.66,15.64-15.62,25-25-5.15-6.88-16.44-13.84-11.91-27,5.93.26,7.09-5.91,11.37-8.19v-41.09c-3.45-3.63-7.33-7.73-12.08-12.75,20-7.13,26.76-27.39,42.35-40.66-4.28-8.56-8.67-17.34-13.91-27.84,3.61-2.7,7.35-5.5,12.21-9.12,8.81-2.54,14.38,4.4,20,11.5h23.33c6.95,7.94,13.87,15.88,20.19,23.12h26.79c4.34,5.23,8.87,8,9.48,15,.74,8.39,10.57,18.89,19.59,26.26,10.22,8.36,19.91,18.33,20,31.89,0,7.17,7.94,8.68,5.77,18.2-3.79,2.75-9.81,7.2-16.21,11.89-20.12-14.62-27.37-16.24-55.59,7.57H2527c-10.1,16.08,3.12,30,4.23,46.38,25.91.72,52.55-3,81.5,11.35,11.86,17.41,21.68,44.09,47.8,57.45l17.21-10c11,5.5,8.46,15.77,8.6,22.72-4.06,15.21-19.86,7.17-25.55,16.83-3.61-1-4.51-6.41-9.21-5.42C2634,1206.72,2652.35,1225.73,2640,1234.52Z"/><path class="cls-12" d="M2907,1014c-8.48-5-18.9-7-24.26-16.22H2852.8c5.42,10.56,10.57,19.52,6.85,30.46,4.59,3.78,8.93,7.37,11.51,9.47,3.75,10.47-2,16.18-4.79,22.72-18.81.16-16.73-24.54-33.07-27.73-14-1.76-27.63.77-40.88,4.93-4.44,15,6.07,21.59,13.58,29.69,6,6.48,17.36,9.69,13.94,22.14h-11.6c-17.5-10.91-30.14-25.73-36.8-45.93h-13.29c-3.76,16.43-3.76,16.43-19.56,28.51-21.63,16.19-32.92,12.11-44.77-17,8.71-16.89,21.06-22.78,39-12,9-6.94,8.07-15.57,2.44-23.41-10.83-15-6.18-35.72-19.45-50.11-2.86-3.08-.43-11.08-.43-16.82,11.48.42,10.2-11.52,17.22-16.61-4.15-4.63-8.26-9.19-11.83-13.16,1-3,1.11-5.06,2.2-6.3,6.84-7.87,16.79-10.31,25.84-14.37,1.45-25.6,24.39-30.88,41-38.27,24.4-10.84,43.86-5.13,59.16,9.57l-8.25,18.85c-11.85-4.33-17.66,5.56-25.88,13.36v24.39c4.56,4.56,9.33,9.32,14.19,14.21,16.21,4.62,29.53-14,44.4-4.59,11.23-9.34-2.27-12.49-.9-21.71,7.47-5.47,12.31-16.85,25.56-20.69,5.66-1.67,12.07-8.25,14-14,4.27-12.72,13.7-19.43,23.85-26.09,15.07,20-.28,31.34-13.18,41.49-37.31,29.33-41.11,46.31-17.52,89.14C2910,996.39,2915.25,1004.71,2907,1014Z"/><path class="cls-2" d="M2732.89,1043c-12-1-23.6,0-34.44,8.11-.14,3-.35,6.65-.66,12.44,7,3.35,15.94,6.21,19.89,13.92,8.83,3,14.54-2.55,21-5.46,2.41,10,13.51,13,17.69,22.44-2.08,8.55-9.94,12.62-15.61,18.26-10.91-.87-14.22-8.27-14.26-19.5-8.27,10.57-17.29,7.15-25.36,7.83-15.08-10.68-4.8-33.24-21.69-43.8,8.79-12.69,7.54-26.74,6.78-38.17l-45.42-48.62c-4.91-25.25-15.63-45.6-32.78-61-6.94.14-11.59-.93-15.39,3.6-2.91,3.44-5.57,7.94-14.08,8.68-1.33-4.15-3.21-10.07-3.73-11.74h-31c-3.41-4.58-7.38-10-14-19-.64-4.2-2.34-13.56,9.09-22.11,18.56,5,37.36-8.89,58.55-5.47,1.28,3.46,2.53,6.81,3.75,10.18,11.72,5.59,20.17-7.67,32.05-5.19,10.37,2.18,12.8-19.39,29.89-7.51,4.4,7.94,15,16.23,29,25.89,6,2.11,16.72-4.25,26.26,4.48,6.09,5.58,13.58-2.41,20.26-5,1.37,8.89-3.28,14.05-12.09,18-11.15-4.25-23.43-8.78-36.51-5.95-7-11.28-22-11.51-28.34-23.25-16.53-1.93-30.65,3.13-44.23,12.46V906.2l22.59,18.68c-1.51,31.63,12.38,50.41,32.74,65.82,12.92-2.33,12.92-2.33,28.41-17.65,4,5.1,8,10.22,13.72,17.6,1.28,12.8,2.67,29.37,15.92,41.57C2734.49,1035.51,2732.1,1039.44,2732.89,1043Z"/><path class="cls-2" d="M2686.45,828.23c4.8-.83,5.77,4.34,9.43,5.87,7.91,1.29,11.12-9.25,20.09-8.19v-32c19.16-.61,19.89,17.41,28.94,26.1,9.65,9.27,19,18.9,29.68,29.59-20.22,4.58-24.11,24.23-35.9,36.65,1.12-15.57-1.46-29.85-14.73-40.5-7.76-2.6-13.84,2.32-22.06,6.87C2696.54,844.72,2684.42,841.71,2686.45,828.23Z"/><path class="cls-2" d="M2640,1234.52c2.95-10.57-6.79-18.56-5.81-28.74.71-6.27,5.62-8.92,10.26-11.92,3.84.1,7.6.36,7.15,5.84,2.21,5.71-5.36,14.69,5.8,17.4-2.82,7.41,5,11.25,5.82,17.42Z"/><path class="cls-8" d="M3028.9,625.1c-2.85,8.22,6.84,12.69,6,20.67-.83,7.57-.19,15.31-.19,22.88,13.37,10.88,24.37-5.44,38.05-2.73,6.47,7.07,13.55,14.82,19.83,21.7,13.56-.35,13.56-.35,19.7-3.53,6.36,6.67,14.78,4.63,23,4.85,6-8.59,9.68-19.6,21.3-23.21v15c-12.11,8.18-17.76,24.68-33.7,26.82-6.54,17.49,17.15,27.18,8.53,44.58-6.71,13.49-3.85,31.33-20.55,42.23-5.19,2.63-6.61-8.5-16.48-5.83-.71,1.37-2.89,5.71-5.1,10.11,1.54,1.61,6.85,4.76,3.75,10.59,7.77,3.59,10.71-.55,14.39-4.47,4.29,5.14,8.57,10.24,14.12,16.86v20.88c-8.84,8.71-16,19.13-18.42,31.93h-13.77c-4.37-9.84-4.14-22.6-15.78-33.28-7.06-2.63-20.85.34-23-12.85-12.42-.46-13.6,10.16-20,12.19-4.61,11.64-.55,20.87,5,28.75-4.53,8.51-14.26,11.91-13.49,21.75-9.77,1.21-19.88.84-22.1,13.2-.61,8.73,10.67,2.37,11.8,10.63-1.23,7.94-9.56,11.6-15,17.75-6.1-9.84-16.09-3.53-24-6.53-8.4-15.06,6.89-27.76,4.38-42.93-2.28-14.08-.47-28.83-.47-43.27h24.73c22.51-10.34,35.3-30.07,53.12-45.61l7.83,5c14-.25,10.42-15.42,22.37-22.24h-35.59c-18.65-21.79-16.3-50.22-32.5-81.37-7.06-9.38-25.29-18-44.35-25.53-3.44-14.94-2.45-29.37,7.08-45Z"/><path class="cls-8" d="M2907,1014V999.48l-15.37-15.4c-9.12-27.74-13.56-52,2.12-76.61,19-8.81,39-18.57,47.09-43.05-.47-1.56-5.8-2.46-4.82-7.16V829.63c12.63-3,25.7-.51,37.37-1.52,5,4,2.52,8.17,3.25,11.75h-33.54c7.55,25.32,8.87,48-8.74,69.06L2914.5,910c.31,10.39-10.21,14.51-12.1,17.78-2.62,11.59.61,16,4.7,20.28,1.3,7.7-11,11.67-6.11,19.92,4.34,11.61,21.6,15,17.61,30.77,7.11,7,11.88,17.86,24.9,15.23,8.5-4.15,11.74-14.84,21.54-17.4,2.88,6.42,8.47,12.05,5.69,20.18-8.5,4.25-18.63,6.8-17.5,20.2.71,8.12-10.87,9.59-11.41,17.68-21.59,2.22-22.51-16.21-29-29C2911.94,1021.18,2915.68,1014.46,2907,1014Z"/><path class="cls-17" d="M2782.69,794.7l-22,10.8c-6.11-12.13-20.26-15-28-28.7V762c-3.33-5.75-11.81-.31-11.41-8.46l24.23-19.29c3.66-6,13.27-1.23,18.71-9.61,12.44,5.14,22.53,13.41,32,26.27C2802.46,766.93,2786.49,778.68,2782.69,794.7Z"/><path class="cls-12" d="M2640.55,900.72c-2-12.47,3-17.33,10.57-20.34,20.64,7.82,25.51,37.29,51.21,35.62,7,15.7-9,27.56-3.5,42.67-5.15,4.23-10.32,8.5-17.08,14.07h-16.17c-12.57-10.72-10.75-21.57-1.83-33.47C2655.7,925.65,2651.71,909.43,2640.55,900.72Z"/><path class="cls-1" d="M3220.43,1368c-11.41-3.48-3.13-12.94-6.66-21l23.92-19.77c.92-24.15-14.79-34.22-25.94-46.3-3.4,0-5.5-.49-7.22.1-3.7,1.29-46,38.46-48,40.66-8.69,9.57-4.5,21.44-6.06,32.17-12.92,8.76-18.24-7.48-26.24-8-11.27-.79-16.6-7.66-25.25-14.17-16.93,15.47-43.27,12.24-57.43,31.77-9.93-5-6.1-18.27-19.49-18.44,5.67-17.76-5.41-31.78-5.06-49.58,9.81-4.82,11-17.47,20.62-26h23.52c11.18-14.55,31.11-7,42.49-18.79-2.43-5.25-4.58-9.86-6.89-14.86-12.24-5.82-19.2,6.74-29.19,9.86h-28.72c-6.59-7.5-13.39-15.3-21.84-24.94,3.16-9.08,7.31-20.9,11.56-33-4.46-5.15-3.91-15-14-18.83-5.91,11.06-1.11,21.77-4.23,33.45-3.33,4.93-4.53,13.75-12.78,19.76h-23.7l-22.11-22.1c-15.59,9-24.62,27.09-37.58,42.36-20.3-11.53-16.08-35.82-30.23-48.82-14.87-13.64-13.41-35-23.28-51.16,2.15-12.76,16.15-16.43,20.87-25.7,5.46-10.74,14.62-17,20.58-25.53,9.94-5,21.86,3.31,31.19-7.87,9,11.7,23.29,18.28,27.54,33.77,10.63,6.9,22.34,8.26,34.69,7.3,4.65-.35,10.18-.93,14,1.12,20,10.8,35.43,3.15,49.62-11,3.4-3.43,6.82-6.84,10.22-10.25-2.36-20.4-8.66-24.91-36.55-26.36-10.68,4.39-8.46,19-20.78,23.46-19.49-6.85-15.1-28-20.62-41.52l16-16c-6.18-20.66,7.37-35.79,4.13-53,23.11-13.23,22.3,19.15,38.83,17.75,7.07,32.13,21.59,59.2,34.86,86.12,10.57,6.54,19-5.22,32.42.18,9.59,14.76,26,29,36.19,45.27-4.19,15-20.15,11.84-26.27,28.27,27.92-1.87,53.73-.58,76.78,12.47,10,13.57,3.54,33,17.93,47.17,9.61,7.1,21.77,5,34.05,1.12,47.68-15.14,47.68-15.16,62.66,28.28,31.76,5.34,49.71-16.83,39.3-51.75-4.63-15.47-10.21-30.86-12.95-45.1-20.49-17-42.81-16.44-63.08-15.8-4.68-1.48-8.17-2.31-9.4-4.68-13.81-26.85-27.85-52.76-52-73-12.92-10.84-1.84-29.34-.94-41.71-.58-14.16-13.73-19-14.74-32.38,1.74-16.24,12.58-19.94,28.43-15.77,19.26,5.48,28.1,23.08,41.35,35.56,5.25,13.51,10.37,27.18,31.3,25.93,14.14-12.62,34.24-13.09,53.94-15.14a79.89,79.89,0,0,0,8.07-2c43.81-5.27,70.42,16.49,85.87,71.69,46.48-10,87.83-.2,120.42,36.87v23.22c-9.59,17.59-6.5,41.63-27.24,53.56-12.06-11.12-21.9-23.77-26.82-39.65.57-2.91,3-4.07,5.62-5.5-2.27-1.89-5.88-1.45-7.37-4.47-8.9-14.1-8.73-34.92-29.23-39.75-13.47-.87-20.41,11.65-34.08,14-18.11-6.81-37.33-14.94-51.06-31.37-2.93-16.89,9.12-33.4-2.9-50-13.28-7.92-28-7-42.4-2.49-6.16,11.8,6.68,18.64,4.82,27.71.14,9-5.85,14.67-10.69,23.92,20,2.2,36.12,9,38.8,30.78.51,12.94-13.21,21.74-10.35,35.61,6.56,11.88,25.25,11.46,28.22,27.27,3.57,20-23.12,29.13-17.36,51.87,16.28-1.67,35.24-12.07,48.54,7.28v5.8h-20.37c-6.58,6.75-13.26,13.62-20.23,20.79v12.75c-11.92-1.42-21,8.13-33.7,7.45-11.72-.65-21.82-12.06-35.45-4.22-.28,5.84-.61,12.31-.92,18.78-3.9,4-11.36,1.87-14,8.38-21.28-.7-43,2.8-62.63-6.7-9.31,7.32-12.94,16.56-16,26.54-6,3.4-13.3,5.37-17.24,12.21Z"/><path class="cls-4" d="M3522.22,1164.88c4.18,10.84,15.08,15.78,23.21,27.41v13.2c3.92,9.59-2.87,15.1-8,21.29-1.19.65-2.38,1.3-3.59,1.94-11.07,4.44-16.27,15.52-27.14,23.22-9.6-3.09-19.16,3.9-27.06,5.92-10.72-.11-12.87-7.95-18-11.35-8.38-3.28-14.07,2.75-20.7,5.43-12.73-1.4-24.49-9.48-38.43-4.94-4,5.8-4.54,15.79-17.12,17.35-5.36-12.73-.29-26.07-2-37.68,1.77-13.49,14.88-15.18,22.19-23.62,1.82-11.28-.09-19.43-14.68-21.12a35.54,35.54,0,0,1-24.42-13.46c7.61-12.11,10.22-27.6,22.53-35.7-.78-12.46-17.2-13.09-12-25.13-12.59-1.41-22.84-2.5-28.77,4.86-5.29-3.91-9-6.7-12.18-9,.77-3.12.9-6.24,1.68-6.41,9.94-2.22,15.51-10,21.88-16.68,2.87-15.55-17.55-18.75-17.4-33.92,1.94-2.16,4.41-4.94,7.58-8.43h53.83c4.41,4.43,9.18,9.19,13.9,13.92,1.8,5.69-2.85,8.42-5.29,11.1-2.31,6.81,3.85,8.79,5.46,12.94,1.06,9.32-10.37,10.67-12.19,21.11,11.13,2.85,16.18,17.77,33.46,15.22,4.49,5.7,9.78,12.38,15.07,19.06,9.1-9.07,16.61-16.59,24.33-24.31h17c18,12.51,26.37,30.19,26.73,52,2,1.29,2.72,2.59,2,3.88S3522.9,1164.88,3522.22,1164.88Z"/><path class="cls-9" d="M3638.3,1176.48c.68,16.73-11,32-5.06,49a49.16,49.16,0,0,0-24,18.83c-1.09,7.14,4.77,11.64,9,13,12.66,4.08,19.27,13.58,25.83,23.67-18.84-3.11-35.54-11.76-52.12-20.15-.68-2.9,1.52-6.27-3-8.1-14.48-.71-14.42-.46-26.61,7.84,13,8,12.4,22.55,18.35,33.6-6.54,10.79-20.61,10.81-26,21.79-13.06-10.37-18.52-27.8-34.69-35.29h-24.56c-3.62-5.32-1.85-10.05-1.82-14.63,2.74-2.72,5.48-5.45,8.25-8.23h12.3c5.34-10.2,21.44-13.32,19.67-29.06,20.85-16.63,28-42,40.62-63.84,3.62.64,5.62-1.57,5.69-4.53.28-11.36.12-22.76.12-31.28,6.79-14,17.24-10,26.64-10.69,7,13.6-3.35,22-8.48,32.56,7.2,10,22.39,11.55,29.28,23.51C3630.12,1178.6,3634.75,1175.73,3638.3,1176.48Z"/><path class="cls-8" d="M3290.07,1518.91c-.68,1.65-1.13,4.56-2.1,4.75-4.45.83-9,.9-14,1.28-.8-3.93-1.37-6.57-2-9.72-5.53-4.79-12.56-.91-19.2-2.21-4,3.79-8.12,7.67-12.25,11.6-8.08-9-18.28-12.15-30.06-11.54-5.63.28-10.33-2.19-15.59-4.25-14.55-5.72-30.09-10-44.88-7.13-14.69-6-10-17.37-10.88-25.93,8.66-11.42,22.65-11.14,31.66-20.17,19.26-2.58,41.31,5.28,60-13.6-1.16-11.7,6.54-20.51,17-27.53,4.61-1.59,12.24,3.81,13.31-5.83,16,6.47,31.64,14.72,49.45,11,2.71,5.11,8.88,6.28,8.6,12.18-7.73,7.79-18.68.57-30,7.93-5.32,3.77-8.15,12.61-10.72,23.39C3292.76,1479,3283.06,1500.55,3290.07,1518.91Z"/><path class="cls-17" d="M3464.2,1385.42c-.27,15.33-.27,15.33-5.63,26.3,4.66,4.55,8.53,10.66,20.65,7.39,6.58-3.41,12.74-12,17.75-22.73,13.68,3.66,30.09,3.34,31.07,23.87-9,6.94-7.71,15.26-2.42,23.4a13.24,13.24,0,0,1,2.39,8.24c-2.36,2.48-5,5.23-7.92,8.33-17.52-12.89-35.63-3.45-52.1,1.61-9.65,3-15.65,7.07-24.81-.49-3.45-2.82-11.17-.47-16.68-.47-7.08,6.51-12.09,16.35-23.19,11.06-4.77,6.56-2.21,12.47-3,18-11.24-.43-.61,17-9.46,14.85-12.35,3.5-21.21,5.19-28.56-2.94-3.37,3.38-6.73,6.72-10.69,10.69h-17.74c-5.93-4.84-13.28-10.82-20.59-16.81-7.7-10.16-13.14-20.81-7.87-32.83,10.72-15.36,23.34-10.7,35.66-5.36,3.47-4.84.49-9.56,1.23-14,2.72-11.2,11.68-3.6,17.4-5.82,7.52,1.28,12.07,6.19,15.45,12.57,2.6,4.82,2.3,10.92,7.94,16.44a61.55,61.55,0,0,0,30.42-25.49c13.86-19.45,31.19-36.13,44.87-55.75Z"/><path class="cls-9" d="M3458.39,1385.42v14.29c-7.09,8.33-17.15,14.41-20,26-13.78-2.09-11.27,14.73-20.65,17.76-4.67,4.41-9.93,5.07-15.7,2.46-8-12.12,5.69-16.13,9.14-23.9,7.27-16.29,22.87-28.57,24.11-47.43-28.58-28.45-55.83-31.57-74.84-9,.66,13,14.65,17.06,17.12,23.12,6.74,14.66,1.07,25.37,3.52,35.7,1.77,10.1,11.33,15.31,15.12,24.18.8,8.08-4,11.51-8.86,13.24-10-.66-12-7.72-16.06-12.56-6.3-1.41-10.18-5.28-11.6-11.62,1.16-4.81-4.77-5.34-5.1-9.25,1.59-1.79,3.43-3.89,5.15-5.88-4.34-21.77-19.69-31.9-42.13-37.35,9-7.67,7-15.87,7.28-24.66,11.83-19.17,36.27-25.7,48.74-44.93,3.16,2,3.33,4.65,3.63,7.53.18,1.52,2,2.86,3.79,5.23,7.84-3.5,15.77-8,26.37-7.44-2.76-3.26-3.89-4.62-6-7.1.31-5,6.81-9.28,4.77-15.89-2.43-7.92,3.54-12.15,9.8-18,8.08,7.68,19.27,7.18,33.06,6.73-8.14,16.53-11.87,31.49-25.57,43.5,13.72,9.83,13.63,32.15,34.86,33.33Z"/><path class="cls-1" d="M3342.31,1443.47c5.81-.3,7,5.71,11.08,7.92v18.81c-4.58,4.14-9.55,1.34-14.08,2.32-2.39-6.92-5.5-13.38-12.16-17.48-8.05-1.31-11.12,9.34-19.09,8.21-2.19,5.58,1.17,8.78,5.23,11.72l-5.68,6.19c4.92,3.6,6.55,8.59,5.68,14.53-7-3.06-13.33-9.93-23.22-3.3v26.52c-9.68-1-5.15-8.52-5.65-13.24-.94-9.12-1-17.7-5.07-26.9-3.21-7.23-9.57-4.38-12.8-9.63-.92-16.27,15.68-25.54,16.48-39.51,14.25-9.85,24.42,3.35,36.07,2.22v11.62Z"/><path class="cls-9" d="M3441.48,1258.73h21.63c.47,2.79.78,4.59,1.09,6.47-2.72,6.78-11.52,3.89-15,9.44C3444.78,1269.75,3437.49,1266.35,3441.48,1258.73Z"/><path class="cls-8" d="M3232,985c-5.54,1.25-6.35-7.42-13.7-5.28-7.49,3.15-11.94,9.44-8.47,20.77l20.87,9.51c4.37,7.56-2.39,13.16-3.77,19.86-1.52,7.29-4.07,13.85-6.16,17.12-1.42,13.89,8.94,18.9,9.25,25.17,5.24,7.66,10.51,5.08,16.48,6,5.24,6.47,11.27,13.9,19.89,24.55v24.19c5,5.1,10.22,10.43,15.47,15.78,8-4.75,16.67-5.53,22.95-12.9,3,3.73,5.88,7.39,9,11.26h23.53c8.47,8.46,15.28,15.25,22.64,22.64,2.09,7.18-13.21,10.38-7,20.69q9.84,9.9,19.79,19.83c-5.57,15.48-10.91,29.66-6.21,44.05-4.86,4.13-8.17,7.45-7.3,12.95-4,3.86-11.38,2-14,8.22h-34.81c-5.48-2.93-1.13-11.77-8.24-13.89,7.32-6.56,4.81-15.31,5.12-21l-9.18-12c-16.13,2-29.94,6.12-40.24,17.86h-40.79c-15.17-16.76-14.41-37.41-14.13-58-15.21-4.74-31.61-6.91-46.4-23.16,16.13-49.28-36-82-38.26-130.2-.3-6.48-4.46-13.18-3.28-19.67,5.14-28-3.36-52.69-16.51-76.54,1.53-8.21,6.52-7.62,10.93-3.23,3.88,3.86,8,3,12.28,3.23-.66,3.59,1.53,5.59,4.47,5.69,9.42.31,18.85.11,28.08.11,4.23,8.31,3.54,14.94-3.47,20.36,7.27,5.37,5.36,18.36,18.42,20.55,9.28-1,3.54-18.91,16.34-17.68C3218.28,956,3228.58,961.12,3232,985Z"/><path class="cls-1" d="M3098.54,932.71c19.81,7.93,20,28.85,28.83,44.79-8.87,13.71-4.67,29.89-5.71,45.14,7,5.95,7.65,14.69,11.88,21.31-2.13,3.35-4.08,6.37-7.11,11.11,16.06,16.69,23.52,40.3,43.13,55.63-11.84,16.23-5.39,33.69-7.44,49.93,11.68,11.41,29.14,11.12,40.87,21.66h-27.6c-2.86-3.52-6.42-8-9.45-11.69-6.87.41-12.64-1.48-17,4.5-3.23,4.49-7.27,9.23-14.37,7.35-9-1.9-13-9.83-18.52-15.2-1.16-7.69.42-13.74,8.83-19.24,6.38-3.91,16.63,2.82,25.1-2.34,2.91-21.64-21.91-9.84-26.61-22.48-3.48-9.47,2.83-23.64-12.5-28-7.58-.91-6.13,5.14-7.15,9.48-5.43,5.28-16.2-2.22-19.79,8.55-3.07-4-8.81-8.37-8.17-11.3,3.45-15.56-11-24.92-12.1-38.56-16-14.27-14.16-34.65-18.7-53.68-3.36-3.6-8.48-.54-12.94-1.54-6.31-3.84-1.06-10.74-4.2-15.61-5-3.56-10.91-1.07-16.4-1.81h-34.81a21.57,21.57,0,0,1,0-2.76c24.31-3.17,41.85-17.52,57.77-34.63a22.06,22.06,0,0,1,3.83-2.84h11.26c4.42,3.32,1.77,7.53,3.24,13.34l-17.69,17.89v13.81c13.1.45,21.14,13.93,37.62,12.35,3.42-12.64,15.5-20.17,24.94-31.14.32-7.31,2.45-14.69-3.07-23.16C3091.57,949.11,3086.38,937.51,3098.54,932.71Z"/><path class="cls-3" d="M2378.83,1246.13h20.51c10.33-13.09,26.58-24.46,25.91-46.43v-26c7.59-6.64,12.47-18,25.77-14.52,4.18,1.87,2.81,6.28,3.8,9.12,3.33,4.22,7.51,1.66,11.08,2.41,16.08,3.07,20.42,18.53,31.48,29.94,6.54,5.65,19.27,1.89,26.54,10.68v20c-2.08,4.3-6.75,2.29-8,3.12-4.77,3.22-3.2,6.27-3.55,9.55l10,3.44c-7.86,13.59-2.21,28.7-4.86,42.87-3.87,2.43-5.33,8.21-12.53,8-10.49-22.16-36.65-32.36-44.59-57.22-20.69,5.65-30.32,22.61-44.12,33.88h-22.86c-5-5-9.73-9.74-14.54-14.53Z"/><path class="cls-4" d="M2523.92,1211.3h-33.47c-.63-17.64-16.59-26.53-24.55-40.62.17-10.93-2.08-22.29,3.8-27.47,4.72-10.18,14.6-3.76,14.42-13.49,2.59,1.9,4.52,2.57,4.85,3.72,1.25,4.32-1.94,9.4,2.32,13.33,2.64,2.43,5.14,5,6.85,6.73,9.58-.58,11.78-8.2,17.16-11.81,7.66-1.6,12.12,8.52,20.25,5.76,10.95,15.51,27.41,11,41.56,11.58,16.62,8.36,21.21,26.46,33.77,37.72.83,10.79-2.43,22.46,5.9,32-12.13,2.53-.25,19.46-15.46,21.54-3.32-.78-8-6-16.46-3.56-3.41,3.07-8.12,7.36-12,10.86-8.78,1.11-9.36-7-16.25-8.41,10.72-13.66,8.07-27.68,7.41-41.7l-28.47-7.75c-3.83-6.31,5.5-12.49-.86-19.82-10-5.05-20.22-6.19-28.24,5.21-1.66,13.87,13,12.61,17.47,20.4Z"/><path class="cls-3" d="M2442.68,1484.09c4.49-13.13-6.64-20.15-14-29.6,9.35-7.82,25.86-9.66,18.78-26.51-7.56-1.51-13.07-9.78-22.23-7.73-15.7-3.29-22-14.13-23.19-29,5.48-6.85,6.49-14.83,5.79-23.22,4.51-7.36,14.43-10.15,16.51-19.31-.1-10.12-7-15.66-13.65-22.79-15.31,7.24-29.77,4.25-43.48-4.33v-10.39c14.39-1.66,28-6.45,37.46-18.73,20.9,13.31,38.42,37.11,44.14,60.7L2432,1370c-1.74,6.9,1.08,8.42,3.45,11.11-4.84,7.44-5,16.06-4,25.73,11.36,6.17,20,18.12,36.46,19.74,4.32-6.46,9.07-13.59,14.9-22.32,17.57,23.56,10.26,45.29,12.28,64.65C2480.61,1487.12,2461.2,1483.91,2442.68,1484.09Z"/><path class="cls-3" d="M2367.23,1321.58c3.68,1,4.84-2.47,7.53-4.47a65.77,65.77,0,0,1,20.59,10.66c7.68-1.49,6.64-5.62,6.74-9.33.07-2.74-1-5.88,3-8.26,11.82,12.38,26.23,22.9,32.26,42.34-7.07,9.35-17,14.6-29.55,15.49-8.27-13.88-22-11.43-34.81-11.6-5.24.39-5.81-3.08-5.81-7Z"/><path class="cls-1" d="M2523.92,1205.49H2505.1c-13.39-6.1-9.87-17-10-22.35,4.68-16.24,18.26-8.93,25.6-18.07,4.3,7.22,11.53,6.06,18.33,5.5,8.57-.7,9.61,7.12,13.73,8.8,1.2,15-15.65,10.26-17.22,20.33C2531.67,1201.63,2527.8,1203.57,2523.92,1205.49Z"/><path class="cls-10" d="M3412,921.1c-.9,6.11,1,10.69,5.95,14.87,13.75,11.57,20.4,26.25,15.56,48.11l-13.76,8.81c-3.06,5.93-11.56.26-15.4,8.47-4.92-1.13-8.11-5.64-14.36-5.29s-8,9.24-17.65,4.34c-3.57-6.11.64-15.83-1.46-24.64l-7.87-7.88c-10.34-4.84-16.69,8.31-26.47,5.44-9.87-10.53-18-22.13-21.92-35.5-2,7,1.21,18.55-12.91,18.1v-16.4c0-4-.76-7.17-5.81-6.82-4.78.94-9.62,2.61-13,5.74-24.05,22.15-50.92,23.44-79.83,11.66-4.81.88-5.76-4.39-9.35-5.79-10.72.56-17.36,12.9-28.5,11.52-5.18-4.84-1.06-10.06-3-13.72,2.5-4.76,7.23-2.66,10.86-5.13,3.53-10.79-3.78-24.41,11.3-34.83l-25.18-14.41c-7.88,2.38-12-10.27-19.86-15.54V854.3l28.65-28.64c-4.09-11,11.66-17.9,3-32.5-4.3-4.27-11.83-11.7-19.48-19.27V742.06h32.28c21.59,19.3,50.47,24.41,77.42,33.94,2.95,16.12-12.8,15.92-20.76,22.23-5.65-7.83-14.74-4.26-23-4.67-6.43,6.19.38,14.91-4,21.52-4.34,2.89-9.07,1.22-13.65,1.09l-11.9-11.89-8,10.32c12.49,31.65,12.49,31.65,6.4,44.77,8.36,20.16,26.32,31.84,40,47.37l-7.51,7.24c-5.2-1.76-11-7.23-19.15-4.07-1.92,2.17-4.44,5.07-7.21,8.27,1.08,4.45,10,5.91,4.89,14.8,7.32-10.5,20.37-1.4,25.6-11.33,10.54,4,8.29,18.53,19.51,22.82,6.45,1.31,8.47-5.66,12.94-8.78V906.48l-10-9.69c-6.31-13.37,3-22.93,5.9-34.53,7.21,4.93,1.62,12,6.8,18.4,15.89,2.16,19.08,22.78,36.77,31.74-.2-13.65,5.68-22.72,9.12-32.72,15.45-7.84,28.9-18.24,46.79-6,6.23,4.28,18,.63,29.87-4.86,2.12,2.71,4.44,5.65,7.53,9.61-10.41,5.32-10.53,19.83-21.42,27-4,14.82,4.16,31.93-8.05,45.8,3.09,3.43,5.55,6.19,9.78,10.9,8.76-14.84,30.42-10.3,37.81-27.68C3407.7,929.8,3402.32,922.16,3412,921.1Z"/><path class="cls-10" d="M3286,860.24c-.68-24.64,1.63-26.68,22.41-22.94C3305,847.63,3297.58,853.38,3286,860.24Z"/><path class="cls-2" d="M2994.06,1722.05h14.36c4.18-2.18,2.15-6.89,4-9.73,4.51-3.42,9.33-1.32,14-1.56,4.7,3.75,1.58,9,2.57,13.44-7.94,7.68-12.85,20.22-28.29,14.39v27.9c3.49,4.31,8.83.53,12.85,2.41,9.73-8,16.13-19.36,33.79-21.67,4,.73,3.23,9.81,7.28,15,7.27,4.34,9-6.24,14.94-5.36,1.37,8.79-3.21,13.95-11,17.58l-24.73-12.38c-5.88,2.5-4.3,7-5.69,10.12-6,4.7-12.94.11-23.86,5-2,2.4-7.5,8.91-12,14.25h-18.73c-2.9-2.92-5.62-5.61-8.31-8.33,6.42-6.45,11.59-14.58,21.63-16.15,2.81-10.88,13.49-20.67,4.7-33-7.32-4.14-8.92,6.36-14.88,5.46h-5.81C2970.61,1723,2980,1719.49,2994.06,1722.05Z"/><path class="cls-2" d="M3139.16,1849.75h-5.81c5.51-6.85,6.52-14.82,5.81-23.22-.78-5.92.26-11.11,5.81-14.51s6.57-8.59,5.78-14.51c8.27,1.44,10.73,9.91,16.81,13.84v17.52c-6.29-9.15-13.11-8.67-20-7.86C3139.33,1829,3152.19,1843.16,3139.16,1849.75Z"/><path class="cls-4" d="M3538.94,1405.77c-6.77-12.44-23.47-5.47-28.76-20.27-1-5.11,8.81-8.08,6.87-16.23,10.17-1.37,20.4-5.36,26.29,4.58,9.25-9.26,17.31-17.31,22.78-22.77,11.58-.24,18.19-2,24.48,1.05-2.35,24.3-14.32,46.3-17.51,69.31,5.25,5.49,9.18,9.62,13,13.65-1.68,11.17-1.68,11.17-8.66,19.92h-17.32c-6.65-13.6-20.35-18.63-32.11-26.08C3527.37,1419.26,3533.89,1413.07,3538.94,1405.77Z"/><path class="cls-4" d="M3522.22,1536.33h-27.79c-4,0-7.42-.56-7-5.81,9.29,2.24,16.84-2.86,24.11-6.48C3516.53,1527.83,3521.4,1530.35,3522.22,1536.33Z"/><path class="cls-11" d="M2937.83,722.76c5.73,6.16,15.23,12.73,18.72,24,10-7.38,9.69-23,24.17-27.36,3.54,13.41,12.53,28.54,6.78,43.11-5.46,13.76-3.53,27.4-6,43.09a66.51,66.51,0,0,1-25.73-11.81c-19.45,29.31-43.76,10.67-67.34,4.39l-13.86,12.54c-17.31.85-26.87-9.62-36.68-19.71-.56-23.31-.56-23.31,5.06-35.12-7-3.63-3.45-17.45-20.1-15.07,18.89-17.1,30.72-36.32,53.8-41.8,7.32-13.14-6.29-18-10.33-25.37.12-8.07,5.25-11.59,10.19-13.48,6.58-2.53,12.3,2,17.75,5.54,6.48,1.83,7.94-7.09,15.05-6.25,7.79.92,13.86,5,19.65,8.57,7.89,4.8,10,14.61,13,23.27C2945.72,701.81,2932.92,708,2937.83,722.76Z"/><path class="cls-5" d="M3203,950.11c16.78-8,16.78-8,32.29,5.41,5.95-9.13,15.45-3.81,23.21-5.75q11-10.95,22.05-22c5.51.34,13.19-5.92,15.32,5,.8,5.93-.62,11-5.79,14.53,8.74,7.23,8.74,17.9,3.38,24.68-8.27,10.48-.31,16.72,2.41,24.63-.38,1.23-.78,2.45-1.18,3.68-5.67,7.26-7,21.57-22,13.73-8.7,1.57-14.13-2.91-17.34-10.13-4.63-10.4-9.85-19.6-23.31-18.88v-9.77c-7.79-3.91-20.75.2-23.83-13.44h-22.6c-.43-5.53,3.36-5.59,7.27-5.86C3197.06,955.57,3203,957.89,3203,950.11Z"/><path class="cls-1" d="M3574.46,1130.05c-13.06-7.76-23.9-18.62-41.69-18.4-8.1.1-14.73-12.72-24.6-16.19h-37.74c-1.27,1.69-3.38,6.84-7.15,9-11.7,6.58-25.44-1.54-21.38-13.61,3.19-9.52-.09-16.54-1.37-24.19-1.37-8.19-11.38-11-15.68-18.68-4.49-8-13-13.83-21.6-22.41h-37.72c-1.91-1.28-2.56-2.57-1.91-3.87s1.24-1.92,1.91-1.92c11.73-1.08,22-11.2,34.8-5.82,8.27,13.9,22,11.43,34.84,11.61,16.86-1.7,31.41,2.63,41.87,16.13,7.89,2.44,15,1.52,23.91-.39-6.74-14.27-13.41-24.9-30.39-21.15V986.61c3.37-2.38,8.85-6.19,18.55-13,.38,0,6.88-.38,13.49-.74,2.17-4.06,8.31-5.23,8-11.12,10.83,2.41,4.88,9.87,4.74,15.52-8.2,10.85-23.92,9.65-32.94,21.86,6.85,11.28,10.69,25.83,26.61,27.45,5.57,10.55-4,16.55-4.65,24.08,4.63,6.86,10.46,3.26,15.7,3.19,4.75-6.06.17-13.07,2.58-19.28,4-9.72,16.32-7.32,20.1-15,8.61.67,11.21,5.86,14.23,10.28,2.72,15.19-16.73,24.79-10,41.5h23.54c5.15,6.44,10.43,13.11,14.21,17.83h26.56c5,6.18,5.35,16.21,15.4,17.66.65,3.63-1.6,5-4.56,5.81-12.13.53-9.83-14.05-20.13-18.84-8.94,9-18.47,18.11-27.34,27.78C3573.23,1123.15,3574.46,1127.16,3574.46,1130.05Z"/><path class="cls-5" d="M3295.86,996.55c9.58,2.37,12.7,12.78,18.82,15.78,10.55-2.59,17.38-1.24,21.82,7.45-.64,1.31-1.27,2.64-1.91,4-8.76,5.62-17.48,11.35-24.85,18-12.37-.25-24,.91-32.37-11.39C3280.69,1017.88,3289.08,1007.63,3295.86,996.55Z"/><path class="cls-18" d="M3301.67,955.93c5.57.42,5.78-3.38,5.81-7.32,0-3.68-.69-7.49,3-10.23,2.12-1.61,4-3.63,6.31-5.82,2.29,12.35,12.79,18.05,19.74,26.6v14.17c.66,3.64-1.58,5.6-4.54,5.7-9.46.3-18.91.11-28.4.11C3299.77,971,3302.66,963.31,3301.67,955.93Z"/><path class="cls-5" d="M3400.33,1014c-11.89.07-22.2,9.88-34.8,5.82,13.88-9.32,23.07-12.42,32.82-10.49C3399.28,1009.47,3399.68,1012.34,3400.33,1014Z"/><path class="cls-5" d="M3365.53,1019.78v5.79h-5.82c-8.81,2.34-18.85,9.61-23.21-5.79Z"/><path class="cls-3" d="M2402.06,1391.23c11,1.28,2.22,10.91,4.18,12.34,6.26,8,12.87,2.62,17.54,6.45,3,2.87.86,6.77,1.47,10.23v22.23c-13.84,4-15.89-14.14-29.57-10.38C2397.72,1417.4,2392.24,1403.53,2402.06,1391.23Z"/><path class="cls-9" d="M2790.93,1809.11c8.79-2.13,13.93,6.55,23.2,7.39v15.84A59,59,0,0,1,2790.93,1809.11Z"/><path class="cls-1" d="M3574.46,1164.88c-.88,6.26.76,12.25-3.52,18.77-5.81,8.88-11.11,19.14-7.78,30-4.74,6.64-11.58.95-16.33,4.8-4.27,3.47-6.35,9.8-13,10.25,0-4.52-.71-8.86,3.59-12.64,3.21-2.83,8.24-4.9,8-10.59,13.05-3.66.17-15.56,9.81-22.45l7.67-3v-23.75c3.9-4.73,8-2.26,11.55-3Z"/><path class="cls-2" d="M2663.24,1234.52c9.54-2.6,13.46,5.24,19.67,10.91h28.25c4.75,4.3,9.51,8.61,13.51,12.21,9.8.74,10.53-9.05,22.29-11.45h12.92c.24,13.49,14.95,17.41,19.62,28.86,3.54,8.67,9.64,14.44,19.65,18,17.41,6.22,27.39,20,27.3,36.93,5.77,10.42,17.48,6.72,19.82,15,8.83-9.34,16.6-17.55,23.16-24.51,16.63,7.78,27.36,17.31,45.23,10.5-7,22.11,7.8,37.79,3.33,56.36,7.3,6.38,14.45,12.68,23.88,20.92h15.44c2.06-3.3,5.08-8.26,8.34-13.54,10.3,12.72,21.58,6.47,30.35,8.13,14.24-7.58,8.14-20.44,10.13-31.92l-17.71-14.21-15.62-.82c-5.1-10.37-1.08-17.09,7.7-22.63h27.92c9.45,6.63,9.73,20.47,20.8,25.74l-4.78,4.81c-.22,5,5,6.46,7.24,10h40.5c10.11-7.13,11.12-21.75,23.89-27.88,12.89,14.41,33.24,17.75,49.49,28.72,13.16-2.4,26.29-15.14,39.79,2.43-4.91,3.91-7.06,11.44-18.8,7.29,14.69,17.86-.09,38.4,13.16,52.85,1.67,5.78-7,6.55-5.71,12.12-17.25-.26-33.19,10.09-51,5.92-3.73-.87-7.49-.57-7.09-5.92h5.81c19.35-14,18.12-34.22,16.68-54.78-6.73-1.61-12.36,6.82-18.54,3.42-31.15-17.17-56.25-.3-79.57,16-18,12.62-36.74,7.67-51,8.73-15.44,3.25-19.52,15.53-31.49,19.5-8.9,4.25-18.77-4.6-27.79-2.69-15.68,23,6.23,69.32-45.44,66.93-18.91-12.86-14.85-26.19-.85-39.73,3.59.65,5.58-1.55,5.68-4.51.32-8.59.11-17.21.11-27.07,13.49-10.54,8.22-29.71,17.5-43.25-2.55-5.59-5.13-11.22-8-17.63l-12.87-.68c-1.47,9.89-9.5,16-16.84,23.43-18.63.83-39-4.09-53.9,12.63-5.07-2.64-9-4.71-12.89-6.76l-6.4-12c3-9.05,18.51-5.32,18-17.43-1.78-11.34-14.46-9.65-20-16.74q-13.21,8.55-26.45,17.1c-1.89-11.84,4.28-21,11-32,1.37-3-5.27-3.22-5.17-4.43-.33-9.87,10.18-14.33,6.61-21.23-5.62-12.35-22.2-16.17-18.82-29.14-5.48-7.16-10.05-13.09-15.54-20.22-8.27,8.78-17.34,9.47-27.68,7.89-7.56-12.63-22.74-11.83-35.07-16.86C2672.16,1253.41,2662.47,1248.54,2663.24,1234.52Z"/><path class="cls-11" d="M2889.58,1501.51h14.57l8.07-8.25c.7-24.07,10.33-47.24,5.15-76.71,14.93,14.86,27.31,23.87,44.88,20.85,7.44-4.7-3.54-18.78,11.19-21.44,14.06-.09,30-5.43,45,4.68,22.43-20.47,49.9-31.52,78.59-42.25,10.27,4.54,16.3,15.39,28.22,16.76,2-5,5-11.52,11.29-15.44,8.72-2.15,14.86,1.62,19.68,8.32-1.66,4.44-6.21,2.43-11.52,5.34,2.83,9.24-5,20.67,5.89,30.13-4.1,3-6.67,6.7-5.59,12.08,1.16,5.85-3.64,8.27-7,12-4.87,3.51-10.77,1-16.26,1.74-1.58-8.39-10.15-11-14.16-17.12-8.34-1.65-15.24.12-20,7.91-2.48,14.73-.83,29.25,5.34,41-.53,10.13-8.41,12.24-11.74,17.65,7.08,26.83,12.78,53.77,11.23,84-25.52.16-54.33-5.11-64.39,29.44-21.38-1.79-41.45-.47-60.09,10.28-4.86-3.31-9.63-6.8-9.06-14.88.3-4.5,4.2-12.19-5.48-13.21-9.09-11.49-13.91-24.88-17.1-35.49-1.37-12.6,9.87-14,11.29-21.59,1.58-8.73-2.62-14.33-9.54-18.23-6.88-2.47-8.53,7.15-15.16,5.83-4.49-.89-9.31-.17-13.39-.17-4.25,6.07-1.8,11.93-2.53,17.42-3.15,4.9-7.11,8.4-14.6,8.34-7.55-8.08-9-19.17-12.67-29.22C2879.14,1512.76,2884,1506.92,2889.58,1501.51Z"/><path class="cls-16" d="M2994.06,1722.05c-7.54,6.08-20.24,5.26-23.22,17.41-10.65-2.42-23.28,5.66-33-7.1-1.46-5.15,6.71-9.23,4-15.72-3-7.34,4.68-11.57,5.74-17.81-1.75-16.77,7.49-28.84,17.41-40.61-8.49-5.72-14.08-13.64-17.41-23.22h31.58c8.57,5.15,10.08,14.88,15.2,23-2.9,9.06-12.56,13-17.4,20.85,9.68,5.92,1.67,23.58,17,25.75,1.49,1.29,2,2.56,1.49,3.87s-1,1.93-1.49,1.93Z"/><path class="cls-2" d="M2883.79,1518.91c6.38,8.09,6.21,17.84,5.74,26.06,9,9,11.41-4.07,17.48-2.83v8.55c-6.17,7-14.05.4-19.69,3.45-6.62-5-.93-11.8-6.24-17.81h-20.52c.82-6-9.38-7.51-5.82-14.57-9.65-4.6-18.65-11-30.46-8.86-2.57.49-5-2.06-4.34-5.6C2850.75,1493.26,2866.75,1496.16,2883.79,1518.91Z"/><path class="cls-1" d="M2965,1658.22c-.67,6.9,3.16,16.56-5.44,19.39-11.69,3.84.29,19.08-12,21.22h-14.15c-.71-.57-1.93-1.09-2-1.76-.69-5.47-1.16-11-1.51-14.5,8.29-8.27,15.46-15.45,24.37-24.35Z"/><path class="cls-11" d="M2883.79,1518.91c-6.34-.76-8.59-6.81-15.08-11.61h-48.77v-5.79c-2.67-9.72-13-13.23-17.51-21,.34-15.62,18.71-11.48,23.74-24.57,2.55-12.07-19.67-29.44,4.44-41.5,5.9-.86,7.53,4.87,12.21,8v23.32l9.35,9.7c8.9-12.72,20.41-23.68,21.4-39.93,3.28-1.27,5.9-1.89,10.22,1.75v49.38c1.09,11.41-12,20.86-2.12,35.77.56.57,4.46-1.57,7.91-.94C2892.43,1508.9,2884.62,1512.74,2883.79,1518.91Z"/><path class="cls-2" d="M2994.06,1710.45v-5.8c2.72-11.19,11.69-3.59,17.4-5.82C3009.2,1708,3003.05,1711.38,2994.06,1710.45Z"/><path class="cls-8" d="M2819.94,1089.42c-1.09-6.24-5.65-9.13-10.85-11.65-17-8.23-26.31-22.25-30.34-39.85,12.09-13.76,12.09-13.76,26.42-6.8,6.71-9.14,20-2.76,25.58-11.91,19.88,8.11,22.86,28.77,35.62,41.18-.9,9.39.7,18.23,7.81,25.23-9.13,5.75-19.08,2.08-25.29,11C2840.81,1087,2830.09,1089.65,2819.94,1089.42Z"/><path class="cls-12" d="M2912.79,1025.57c9.57,9.8,15.47,23.24,29,29-1.56,8.35-10.14,10.9-14.19,17.18-9.28-6.63-15.45-15.66-19.44-26.35C2915.15,1040.91,2912.49,1032.85,2912.79,1025.57Z"/><path class="cls-1" d="M3130,1205.65h29.57c7.35,7.44,15.71,13.83,16.35,19.12,4.55,10-2.16,10.16-1.66,15.82,14,15.88.41,33-1.16,51.36-11.31.43-22.24,3.45-31.88-4.45-8.32,13-6.47,31.56-24.22,39.94h-44.71c-3,7.19-12.73,3.75-15.19,8.59l-16.82-14c0-7.59,7.78-11.87,13.39-15.78,5.86-4.08,13.94-5.15,15.71-13.58s10.25-11,14.36-17.38h16.76c4.85-2,3.1-6.62,4.77-10,6.08-3.66,12.9-.94,19-1.75,10.18-6.15,10-15.66,8-29.32l-15.75-13.72C3121.49,1215.05,3126,1210.08,3130,1205.65Z"/><path class="cls-1" d="M3336.5,1019.78c-.35,5,2.86,5.81,6.83,5.8h16.38c.67,3.68-1.58,5.6-4.6,5.69-8.69.31-17.41.12-28.15.12l-14.43,17.93c-15.4-1.34-27-6.09-38-12.1-3.95-8-.88-15.81-1.91-23.25h8.57c6.09-3.93,1-10.74,3.75-15.24,3.21-3.92,7.35-1.45,10.87-2.17,0,13.77-8.89,22.85-17,32.37l8.17,8.16h23.15C3316.73,1028.55,3326.72,1024.32,3336.5,1019.78Z"/><path class="cls-1" d="M3522.22,1164.88v-5.82c6.54-2.82,12.26-8.54,20.62-5.54,3.07,2.59,3.49,5.86.52,11.36Z"/><path class="cls-5" d="M3371.31,1449.27c7.53.25,8.78,9.1,15.26,11.07,2.15-4,8.24-5.2,7.95-11.07-1.65-5.53.71-7,5.81-5.8h17.43c1.89,7.65-2.12,14.68-8,16-11.36,2.61-15.29,13-24.31,18.12h-14.19Z"/><path class="cls-10" d="M3400.33,1443.47q-6-.23-5.81,5.8c-6,.56-7.74-9.18-14.76-6-7.65-16.93-7.65-16.93-2.63-49-12.36-3.73-19.26-14.33-28.13-22.45-6.45-23.55,20.44-19.82,25.38-33.57,13.25,1.94,23.67,9.6,35.43,6.21,1.77,5,3,8.39,3.94,11.21,6.5,2.66,9.35-1.57,12.71-5.12l20.21,20.73c4.63,14.32-12.26,19.26-14.45,31.18-.74,4-7.56,6.84-8.31,10.82C3421.19,1427.72,3410.75,1435.42,3400.33,1443.47Z"/><path class="cls-9" d="M3110.7,1039.54l-14.83,14.73c-8,1.48-15.07.26-20.07-8.37v-29c5-8.75,12.11-9.83,20.21-8.35C3104.19,1016.32,3109.43,1025.62,3110.7,1039.54Z"/><path class="cls-9" d="M3344.39,904.85c-6.56,6.54-11.78,11.77-16,16-10,1.51-16.4-1.5-21.34-10.35,7.46-10.43,4.89-27.87,21.32-35C3337.33,881.53,3339.22,892.38,3344.39,904.85Z"/><path class="cls-7" d="M3418,970.71c-4.93,4.32-7.69,6.72-9.72,8.49-8.08-.11-10.38-5.75-13.79-10-.79-7,5.36-9.17,8.92-13.12Z"/></svg>