<svg width="1086" height="879" viewBox="0 0 1086 879" fill="none" xmlns="http://www.w3.org/2000/svg">
<path d="M165.701 468.401C180.447 468.401 192.402 456.446 192.402 441.7C192.402 426.953 180.447 414.999 165.701 414.999C150.954 414.999 139 426.953 139 441.7C139 456.446 150.954 468.401 165.701 468.401Z" fill="#F2F2F2"/>
<path d="M161.632 77.9533C97.5605 114.943 60.0934 186.109 68.3951 259.65C68.6014 261.477 68.8323 263.303 69.0877 265.128C75.2261 308.936 98.6876 352.834 138.669 371.711C172.241 387.561 211.596 383.735 247.559 392.94C318.158 411.01 366.32 476.223 397.65 542.052C428.979 607.881 450.319 679.805 495.872 736.714C570.957 830.517 708.486 866.287 821.672 826.025C934.859 785.762 1017.9 674.867 1030.3 555.319C1042.71 435.771 1058.3 343.529 963.37 269.898C928.497 242.849 878.509 204.462 771.081 190.676C732.792 190.618 695.959 206.481 657.689 207.683C597.519 209.572 542.361 175.383 495.357 137.758C448.352 100.134 403.824 56.9732 347.727 35.1283C293.257 13.9169 218.388 45.186 161.632 77.9533Z" fill="#F2F2F2"/>
</svg>
