<svg width="1920" height="1188" viewBox="0 0 1920 1188" fill="none" xmlns="http://www.w3.org/2000/svg">
<path d="M1887.51 670.821C1967.76 551.738 1969.31 408.262 1887.14 306.925C1885.09 304.407 1883.01 301.915 1880.88 299.449C1829.81 240.273 1747.79 198.252 1659.26 210.015C1584.93 219.893 1518.33 264.872 1445.82 287.042C1303.49 330.565 1157.93 281.421 1041.81 214.56C925.677 147.699 821.759 61.783 688.464 22.414C468.75 -42.4789 190.962 41.4556 26.2035 214.434C-138.554 387.413 -184.886 635.591 -97.4559 826.178C-10.0253 1016.76 46.715 1169.82 283.3 1184.84C370.211 1190.36 494.439 1197.69 698.459 1111.03C766.726 1072.9 817.811 1012.5 884.89 972.51C990.355 909.644 1119.95 905.56 1238.16 914.734C1356.37 923.908 1475.25 943.806 1595.2 920.383C1711.68 897.64 1816.41 776.31 1887.51 670.821Z" fill="#F2F2F2"/>
</svg>
