<svg width="236" height="429" viewBox="0 0 236 429" fill="none" xmlns="http://www.w3.org/2000/svg">
<path d="M3.2355 406.513L15.0774 409.596L32.7083 365.78L15.2296 361.23L3.2355 406.513Z" fill="#FFB6B6"/>
<path d="M0.212646 419.007L35.8974 428.489L36.016 428.032C36.9832 424.304 36.4475 420.341 34.5269 417.013C32.6062 413.685 29.4579 411.266 25.7744 410.286L25.7735 410.286L20.5541 403.55L7.0936 405.323L3.97857 404.495L0.212646 419.007Z" fill="#2F2E41"/>
<path d="M63.6948 415.641H75.9827L81.8295 368.787L63.6924 368.789L63.6948 415.641Z" fill="#FFB6B6"/>
<path d="M62.9374 428.489L100.722 428.487V428.01C100.722 424.113 99.1725 420.376 96.4144 417.62C93.6564 414.864 89.9158 413.316 86.0154 413.316H86.0144L79.1125 408.084L66.2351 413.317L62.9367 413.317L62.9374 428.489Z" fill="#2F2E41"/>
<path d="M33.2502 191.313C30.3268 194.98 31.7885 207.446 31.7885 207.446C31.7885 207.446 26.6725 247.778 28.8651 251.445C31.0576 255.111 27.4034 258.045 25.2108 263.178C23.0183 268.311 20.8257 280.777 20.8257 280.777C8.40121 291.044 9.13204 337.976 9.13204 337.976L4.74692 379.775C6.20863 384.174 26.6725 384.908 29.596 384.174C32.5194 383.441 61.0226 280.044 61.0226 280.044C61.0226 280.044 59.5609 379.775 59.5609 384.174C59.5609 388.574 79.2939 386.374 83.679 386.374C88.0642 386.374 115.837 206.713 115.837 206.713V196.446L112.182 191.313C112.182 191.313 36.1736 187.647 33.2502 191.313Z" fill="#2F2E41"/>
<path d="M65.5817 57.4341C78.3114 57.4341 88.6309 47.2838 88.6309 34.7628C88.6309 22.2417 78.3114 12.0914 65.5817 12.0914C52.852 12.0914 42.5325 22.2417 42.5325 34.7628C42.5325 47.2838 52.852 57.4341 65.5817 57.4341Z" fill="#FFB6B6"/>
<path d="M35.1334 207.821L35.0094 207.647C28.3847 198.391 38.3482 176.148 39.851 172.923C38.0665 172.346 36.5379 171.168 35.5256 169.592C34.5133 168.015 34.0798 166.137 34.299 164.278L34.9469 158.782L35.6221 153.391L30.7846 148.564L30.771 148.443L27.9871 124.132L23.9393 107.985C22.4142 101.881 22.5442 95.4814 24.3159 89.4439C26.0877 83.4064 29.4374 77.9482 34.0212 73.6296L43.3775 72.1469L54.7483 61.2126H73.0851L79.3724 67.2077C91.7334 77.32 94.6678 72.9271 108.606 91.9631L98.6264 118.205L104.205 156.908L104.208 163.913L107.114 167.135C108.16 168.296 108.921 169.685 109.334 171.191C109.748 172.697 109.804 174.278 109.497 175.81L109.115 177.716C110.592 178.348 111.895 179.323 112.916 180.562C113.937 181.8 114.645 183.264 114.982 184.832L116.002 189.584C116.875 190.734 122.638 198.402 122.638 200.499C122.638 200.814 122.405 201.118 121.906 201.455C117.978 204.109 96.2726 209.52 86.6658 205.683C76.4327 201.6 35.7546 207.726 35.3447 207.788L35.1334 207.821Z" fill="#3F3D56"/>
<path d="M23.6397 115.551L42.4653 111.845C49.4274 122.3 53.1651 150.888 53.1651 150.888L73.9788 194.293C75.2581 195.074 76.3086 196.183 77.0233 197.505C77.738 198.828 78.0913 200.317 78.0473 201.822C78.0033 203.326 77.5635 204.792 76.7728 206.07C75.982 207.348 74.8686 208.393 73.5458 209.097C72.223 209.802 70.7381 210.141 69.2424 210.081C67.7467 210.021 66.2936 209.563 65.0311 208.754C63.7686 207.946 62.7418 206.815 62.0553 205.477C61.3688 204.14 61.0471 202.643 61.1229 201.14L33.9765 149.713L23.6397 115.551Z" fill="#FFB6B6"/>
<path d="M23.4235 120.35L22.884 92.2154L31.813 80.2982C33.5745 77.965 35.9549 76.1698 38.6854 75.1155C41.4158 74.0612 44.3874 73.7898 47.2644 74.3319V74.3319C51.1594 75.0931 54.6194 77.3013 56.9447 80.5101C59.2701 83.719 60.2873 87.6891 59.7908 91.6176C58.2753 103.531 54.8345 118.439 47.0501 121.812L46.9712 121.846L55.0391 149.996L25.1197 154.165L23.4235 120.35Z" fill="#3F3D56"/>
<path d="M145.387 96.542C145.387 96.542 117.105 90.8965 104.921 94.0165L102.234 112.642L136.732 115.624L195.615 105.201C197.015 105.739 198.535 105.908 200.023 105.689C201.511 105.471 202.913 104.872 204.086 103.956C205.26 103.039 206.164 101.836 206.705 100.469C207.247 99.102 207.408 97.6198 207.172 96.1727C206.935 94.7257 206.31 93.3654 205.359 92.2299C204.408 91.0944 203.165 90.2241 201.757 89.7074C200.349 89.1907 198.826 89.046 197.342 89.288C195.858 89.5299 194.466 90.1499 193.308 91.0851L145.387 96.542Z" fill="#FFB6B6"/>
<path d="M111.141 117.474L83.4528 114.373L72.8874 103.952C70.8206 101.898 69.3605 99.2986 68.6722 96.4465C67.984 93.5944 68.095 90.6038 68.9926 87.8124V87.8124C70.2344 84.0368 72.8417 80.881 76.2872 78.9829C79.7327 77.0849 83.7594 76.5864 87.553 77.5881C99.0558 80.6355 110.566 77.7929 112.889 85.9714L117.034 84.5937L144.26 89.8611L144.554 120.158L111.141 117.474Z" fill="#3F3D56"/>
<path d="M39.8691 19.702C42.4066 15.7819 47.1685 13.1693 51.7847 13.9035C52.2144 10.9617 53.4441 8.19398 55.3399 5.90174C57.2357 3.60949 59.725 1.88056 62.5368 0.903186C65.3485 -0.0741836 68.3749 -0.262522 71.2864 0.358668C74.1979 0.979859 76.8829 2.38678 79.0491 4.42622C79.7614 3.92538 80.5912 3.61669 81.4581 3.53005C82.325 3.44341 83.1996 3.58177 83.9973 3.93169C85.5861 4.65307 86.9683 5.76092 88.0173 7.15384C90.6662 10.4524 92.3698 14.4065 92.9468 18.5951C93.5237 22.7838 92.9525 27.0503 91.2938 30.9405C91.858 28.8925 89.8026 26.9658 87.7258 26.5062C85.6492 26.0466 83.4708 26.4814 81.3648 26.1821C78.6657 25.7986 76.2394 24.2351 73.536 23.8832C71.2435 23.7344 68.9439 24.0295 66.7636 24.7523C64.5837 25.475 62.2874 25.7829 59.9938 25.6601C57.7184 25.3903 54.7876 34.0006 54.8269 40.0652C54.8344 41.2144 54.5973 42.69 53.4725 42.9339C52.0873 43.2342 51.2846 41.3252 49.9662 40.805C49.3585 40.6311 48.707 40.6995 48.1489 40.9959C47.5909 41.2922 47.1698 41.7934 46.9745 42.3936C46.8083 43.0039 46.7905 43.6449 46.9225 44.2634C47.0546 44.882 47.3327 45.46 47.7337 45.9495C48.5441 46.92 49.5061 47.7533 50.5826 48.4174L50.0397 48.8683C49.5243 49.4122 48.8355 49.76 48.0913 49.8524C47.3472 49.9447 46.5941 49.7757 45.961 49.3743C44.7162 48.5324 43.7081 47.3861 43.0327 46.0448C40.488 42.1154 38.6689 37.7626 37.6614 33.1927C36.6679 28.5786 37.4564 23.7602 39.8691 19.702V19.702Z" fill="#2F2E41"/>
<path d="M230.365 409.782L221.347 395.259L219.546 403.558C219.23 405.011 218.914 406.488 218.622 407.953C216.061 405.761 213.335 403.734 210.669 401.788C202.481 395.834 194.298 389.871 186.118 383.902L188.679 398.787C190.258 407.953 191.908 417.307 195.814 425.687C196.247 426.637 196.715 427.574 197.218 428.489H235.278C235.584 427.639 235.796 426.759 235.91 425.863C235.919 425.805 235.923 425.746 235.921 425.687C236.518 420.002 233.383 414.646 230.365 409.782Z" fill="#F0F0F0"/>
</svg>
