<svg width="493" height="493" viewBox="0 0 493 493" fill="none" xmlns="http://www.w3.org/2000/svg">
<circle cx="246.5" cy="246.5" r="246" fill="white" stroke="black"/>
<path d="M222.885 132.758C211.302 134.233 199.97 137.13 189.174 141.376L174.279 145.85V152.29L176.202 152.479C176.202 152.479 183.793 156.433 188.687 172.508C193.582 188.584 207.166 194.704 224.571 196.527C241.976 198.35 265.224 181.292 266.123 164.128C267.022 146.963 267.022 144.252 267.022 144.252C267.022 144.252 252.314 129.799 222.885 132.758ZM242.213 190.241C235.396 195.213 211.711 195.544 203.271 188.418C185.691 172.52 189.099 156.114 189.099 156.114C193.582 139.387 210.088 137.067 219.065 136.238C228.042 135.41 255.673 133.421 261.054 153.793C266.435 174.166 249.08 185.269 242.213 190.241Z" fill="#0B0B0B"/>
<path d="M284.839 143.199C284.839 143.199 284.839 145.803 285.701 162.731C286.562 179.658 308.949 196.42 325.655 194.633C342.36 192.845 355.445 186.82 360.103 171.029C364.76 155.237 372.064 151.355 372.064 151.355L373.912 151.177V144.821L359.578 140.452C349.232 136.288 338.35 133.442 327.215 131.989C298.96 129.041 284.839 143.199 284.839 143.199ZM290.52 152.669C295.689 132.652 322.209 134.605 330.811 135.422C339.414 136.238 355.258 138.511 359.528 154.953C359.528 154.953 362.799 171.064 345.931 186.69C337.841 193.686 315.104 193.366 308.562 188.477C302.019 183.588 285.351 172.662 290.52 152.633V152.669Z" fill="#0B0B0B"/>
<path d="M267.022 144.193C267.022 144.193 276.786 141.435 284.839 143.199C292.892 144.963 287.848 147.022 287.848 147.022C281.003 144.952 273.619 145.153 266.91 147.59C255.872 151.686 267.022 144.193 267.022 144.193Z" fill="#0B0B0B"/>
<path d="M164.103 179.516C162.428 178.554 160.621 177.813 158.734 177.314C158.26 177.196 157.785 177.09 157.311 176.995C156.861 176.895 156.4 176.844 155.938 176.841C155.114 176.841 155.014 177.741 154.914 178.676C154.429 182.337 154.4 186.04 154.826 189.708C155.576 197.071 158.572 203.913 161.619 210.803C164.665 217.692 167.612 224.57 170.771 231.388C171.489 233.091 172.324 234.747 173.268 236.348C174.174 237.904 175.577 239.147 177.276 239.899C179.044 240.632 181.01 240.82 182.896 240.435C184.783 240.051 186.494 239.114 187.788 237.757C186.613 239.312 184.898 240.426 182.944 240.905C180.954 241.483 178.816 241.405 176.878 240.686C174.94 239.966 173.316 238.646 172.269 236.94C171.22 235.33 170.274 233.662 169.435 231.944C165.951 225.233 162.905 218.331 159.871 211.454C158.372 208.009 156.837 204.541 155.638 200.93C154.407 197.322 153.644 193.586 153.366 189.803C153.098 186.032 153.308 182.245 153.99 178.522C154.06 178.027 154.194 177.542 154.389 177.078C154.523 176.803 154.729 176.567 154.989 176.391C155.258 176.231 155.57 176.149 155.888 176.154C156.41 176.179 156.927 176.27 157.423 176.427C157.906 176.544 158.381 176.686 158.847 176.853C160.736 177.473 162.51 178.371 164.103 179.516Z" fill="#231F20"/>
<path d="M174.029 205.855C173.187 208.611 173.266 211.547 174.254 214.259C173.418 213.927 172.726 213.334 172.294 212.578C171.848 211.825 171.604 210.98 171.582 210.116C171.55 209.25 171.752 208.39 172.169 207.618C172.559 206.847 173.215 206.224 174.029 205.855Z" fill="#231F20"/>
<path d="M167.549 192.537C166.56 195.663 166.313 198.958 166.825 202.185C167.077 203.757 167.526 205.295 168.161 206.766C168.976 208.302 169.6 209.923 170.021 211.596C170.102 213.188 170.315 214.771 170.658 216.331C171.293 217.727 172.321 218.932 173.63 219.811C176.372 222.018 178.33 224.974 179.236 228.275C177.699 225.355 175.458 222.82 172.693 220.876C171.957 220.376 171.26 219.827 170.608 219.231C169.891 218.564 169.337 217.756 168.985 216.864C168.545 215.211 168.273 213.522 168.173 211.821C167.786 210.271 167.229 208.763 166.513 207.323C165.888 205.7 165.506 204.003 165.377 202.28C165.088 198.901 165.843 195.516 167.549 192.537Z" fill="#231F20"/>
<path d="M167.062 180.333C167.601 180.271 168.143 180.247 168.685 180.262C169.16 180.262 169.597 180.262 170.046 180.333C170.496 180.404 170.92 180.428 171.395 180.511C171.928 180.597 172.453 180.72 172.968 180.878C172.63 181.352 172.14 181.709 171.57 181.896C171.025 182.091 170.438 182.16 169.859 182.097C169.283 182.044 168.727 181.866 168.236 181.576C167.714 181.292 167.302 180.856 167.062 180.333Z" fill="#231F20"/>
<path d="M150.494 187.4C150.23 187.781 149.849 188.077 149.403 188.246C148.956 188.416 148.465 188.451 147.997 188.347C147.031 188.113 146.161 187.61 145.5 186.903C144.234 185.61 143.09 184.216 142.079 182.736C139.972 179.757 138.571 176.381 137.971 172.84C137.397 169.239 137.971 165.558 139.619 162.269C140.471 160.674 141.588 159.219 142.928 157.96C144.271 156.805 145.321 155.376 145.999 153.781C145.648 155.524 144.836 157.153 143.639 158.516C142.541 159.839 141.638 161.296 140.955 162.849C139.687 165.951 139.3 169.315 139.831 172.603C140.38 175.935 141.564 179.144 143.327 182.073C144.191 183.564 145.146 185.007 146.186 186.394C146.65 187.074 147.314 187.609 148.097 187.933C148.507 188.079 148.954 188.107 149.381 188.012C149.808 187.917 150.195 187.704 150.494 187.4Z" fill="#231F20"/>
<path d="M146.548 153.083C144.718 152.873 142.966 152.255 141.436 151.28C139.906 150.305 138.642 149 137.746 147.472C135.92 144.357 135.26 140.748 135.873 137.233C136.114 135.488 136.567 133.776 137.222 132.131C137.53 131.297 137.893 130.483 138.308 129.692C138.75 128.9 139.259 128.144 139.831 127.431C140.947 126.144 141.976 124.791 142.915 123.383C143.31 122.744 143.576 122.042 143.702 121.311V120.79V120.269C143.64 119.782 143.64 119.289 143.702 118.802C143.837 118.019 143.895 117.227 143.876 116.434C143.854 116.276 143.812 116.121 143.752 115.972L143.552 115.357C143.415 114.943 143.277 114.528 143.165 114.102C142.65 112.437 142.233 110.745 141.916 109.036C141.288 105.599 141.183 102.095 141.604 98.6305C141.849 96.8963 142.267 95.188 142.853 93.5286L143.065 92.9012L143.377 92.2501C143.596 91.8286 143.864 91.4316 144.176 91.0664C144.766 90.3737 145.436 89.7463 146.174 89.196C147.612 88.1274 149.18 87.2254 150.843 86.5089C152.468 85.7326 154.228 85.2432 156.037 85.0648C154.279 85.4285 152.593 86.0558 151.043 86.9232C149.495 87.7379 148.053 88.7233 146.748 89.8589C145.401 90.8609 144.423 92.2404 143.951 93.8008C143.49 95.4119 143.189 97.0607 143.052 98.7252C142.798 102.059 143.008 105.41 143.677 108.692C144.006 110.341 144.422 111.973 144.925 113.581C145.038 113.984 145.175 114.374 145.312 114.765L145.512 115.369C145.602 115.619 145.669 115.877 145.712 116.138C145.768 117.052 145.722 117.968 145.575 118.873C145.524 119.234 145.524 119.6 145.575 119.962C145.575 120.21 145.574 120.459 145.637 120.707V121.465C145.476 122.421 145.129 123.34 144.613 124.176C143.628 125.648 142.535 127.052 141.342 128.378C140.811 129.011 140.335 129.684 139.919 130.391C139.52 131.12 139.166 131.871 138.857 132.64C138.208 134.17 137.714 135.755 137.384 137.375C136.65 140.621 137.09 144.006 138.633 146.987C139.373 148.509 140.472 149.849 141.844 150.906C143.216 151.963 144.825 152.708 146.548 153.083Z" fill="#231F20"/>
<path d="M204.082 57.6965C200.539 60.4043 197.717 63.8629 195.842 67.7939C194.034 71.6563 193.271 75.8853 193.622 80.0978C193.973 84.3103 195.427 88.3733 197.852 91.9187C199.091 93.6772 200.646 95.2158 202.446 96.4643C204.272 97.7366 206.432 98.5067 208.689 98.6898C206.331 98.8403 203.98 98.321 201.935 97.1982C199.882 96.0539 198.087 94.5375 196.653 92.7355C193.823 89.0864 192.124 84.7605 191.746 80.2452C191.369 75.7299 192.329 71.2044 194.518 67.1783C196.684 63.2155 200.003 59.9247 204.082 57.6965Z" fill="#231F20"/>
<path d="M153.241 80.6967C153.019 80.4794 152.862 80.2113 152.783 79.9186C152.704 79.626 152.707 79.3189 152.791 79.0276C152.917 78.4358 153.136 77.8652 153.441 77.3349C154.015 76.2813 154.602 75.2278 155.226 74.1861C156.433 72.0855 157.819 70.0823 159.371 68.1963C162.674 64.5198 166.703 61.4916 171.232 59.2827C180.149 54.7573 189.733 51.529 199.662 49.7061C204.656 48.8302 209.563 48.2028 214.345 47.0191C216.722 46.4352 219.044 45.6672 221.287 44.7226C223.516 43.7155 225.688 42.5972 227.792 41.3726C232.037 38.8867 236.37 36.4245 240.765 34.1517C245.16 31.8789 249.667 29.7718 254.262 27.866C249.867 30.1388 245.522 32.4352 241.227 34.9685C236.932 37.5017 232.737 39.9402 228.554 42.58C226.452 43.91 224.253 45.0968 221.974 46.1312C219.654 47.1384 217.248 47.9581 214.782 48.5816C209.888 49.86 204.894 50.5466 200.012 51.4699C190.238 53.1901 180.773 56.2276 171.907 60.4901C167.433 62.5001 163.413 65.3142 160.07 68.7764C158.436 70.5527 156.958 72.4531 155.65 74.4584C154.976 75.4527 154.327 76.4707 153.69 77.4888C153.351 77.9769 153.094 78.5121 152.929 79.075C152.829 79.348 152.806 79.6406 152.861 79.9246C152.915 80.2087 153.046 80.4746 153.241 80.6967Z" fill="#231F20"/>
<path d="M236.57 101.389C236.618 104.083 237.167 106.748 238.193 109.261C239.225 111.759 240.478 114.171 241.939 116.47C243.237 118.795 244.923 120.906 246.933 122.72C249.019 124.518 251.676 125.609 254.487 125.821C253.007 126.062 251.49 126.007 250.034 125.658C248.578 125.309 247.216 124.675 246.034 123.797C243.658 122.059 241.697 119.864 240.278 117.357C238.775 114.95 237.608 112.368 236.807 109.675C235.956 106.981 235.874 104.122 236.57 101.389Z" fill="#231F20"/>
<path d="M293.229 101.389C296.494 106.131 300.742 110.195 305.715 113.333C308.185 114.883 310.817 116.188 313.569 117.227C316.363 118.274 319.256 119.067 322.209 119.595C319.129 119.757 316.044 119.404 313.094 118.553C307.106 116.852 301.781 113.512 297.787 108.953C295.807 106.707 294.264 104.146 293.229 101.389Z" fill="#231F20"/>
<path d="M170.571 110.634C170.845 112.386 171.145 114.067 171.557 115.7C172.374 118.964 173.66 122.107 175.378 125.04C176.239 126.52 177.213 127.94 178.249 129.408C176.672 128.465 175.285 127.263 174.154 125.857C171.847 122.996 170.448 119.572 170.121 115.984C169.93 114.19 170.083 112.377 170.571 110.634Z" fill="#231F20"/>
<path d="M252.926 28.4933C253.496 27.855 254.214 27.3508 255.024 27.0201C255.835 26.6894 256.715 26.5413 257.596 26.5875C259.374 26.6156 261.123 27.02 262.715 27.7712C265.912 29.1838 268.672 31.3525 270.73 34.0688C271.744 35.4331 272.583 36.9074 273.228 38.4605C273.839 39.9994 274.326 41.5383 274.813 43.0535C275.8 46.0247 277.048 48.9722 279.807 50.9846C278.232 50.2854 276.876 49.2081 275.874 47.8595C274.873 46.5081 274.051 45.0451 273.427 43.5033C272.179 40.4847 271.167 37.5845 269.22 35.0868C267.33 32.5867 264.888 30.5065 262.065 28.9905C260.684 28.2026 259.152 27.6798 257.558 27.4516C256.752 27.3073 255.923 27.3254 255.125 27.5049C254.327 27.6844 253.578 28.0212 252.926 28.4933Z" fill="#231F20"/>
<path d="M279.845 32.163C279.885 31.8095 280.001 31.4674 280.185 31.158C280.37 30.8485 280.62 30.5782 280.919 30.3637C281.482 29.929 282.12 29.5887 282.804 29.3575C284.177 28.8958 285.576 28.6354 286.962 28.3039C289.766 27.605 292.669 27.3294 295.564 27.4872C298.484 27.7901 301.309 28.6519 303.867 30.0204C306.404 31.3722 308.757 33.0141 310.872 34.9093C315.142 38.6499 318.538 43.0535 322.483 46.8652C324.462 48.7595 326.586 50.5122 328.838 52.1092C331.118 53.6775 333.485 55.1278 335.93 56.4535C345.706 61.8633 356.556 65.5447 366.433 71.2149C369.062 72.5573 371.255 74.5546 372.775 76.9916C374.077 79.5226 374.621 82.3437 374.348 85.1477C373.911 90.6876 371.427 95.6712 370.728 101.057C371.002 95.6238 373.337 90.4035 373.425 85.1003C373.596 82.4769 373.013 79.8585 371.739 77.5243C370.254 75.3192 368.159 73.5423 365.683 72.3868C355.857 67.0599 345.045 63.3785 334.994 57.9924C332.501 56.6041 330.088 55.0907 327.765 53.4586C325.456 51.7919 323.281 49.9639 321.26 47.9897C317.277 44.0123 313.868 39.7035 309.885 35.8918C305.902 32.0801 301.045 29.0379 295.464 28.3513C292.658 28.0723 289.824 28.2081 287.062 28.7538C285.676 29.0142 284.24 29.2273 282.904 29.6061C282.224 29.7902 281.583 30.0824 281.006 30.4702C280.699 30.6607 280.438 30.9096 280.238 31.201C280.038 31.4924 279.904 31.82 279.845 32.163Z" fill="#231F20"/>
<path d="M366.52 105.189C368.204 105.708 369.706 106.654 370.865 107.923C372.046 109.196 372.961 110.671 373.562 112.267C374.633 115.433 375.197 118.733 375.235 122.057C375.385 125.33 375.297 128.609 374.973 131.87C374.665 135.126 374.059 138.35 373.162 141.506C373.3 138.251 373.462 135.019 373.512 131.787C373.562 128.556 373.512 125.348 373.362 122.14C373.34 118.951 372.942 115.775 372.176 112.67C371.384 109.575 369.357 106.893 366.52 105.189Z" fill="#231F20"/>
<path d="M161.619 151.71C162.665 150.8 163.817 150.006 165.052 149.342C166.25 148.655 167.502 148.057 168.798 147.555C170.113 147.065 171.465 146.669 172.843 146.371C174.233 146.046 175.657 145.875 177.088 145.862C175.877 146.537 174.627 147.145 173.343 147.685C172.094 148.241 170.845 148.751 169.522 149.236C168.198 149.721 166.962 150.195 165.639 150.633C164.321 151.063 162.979 151.423 161.619 151.71Z" fill="#231F20"/>
<path d="M159.621 146.703C160.794 145.756 162.075 144.938 163.441 144.264C164.792 143.585 166.194 143.004 167.637 142.524C169.079 142.044 170.562 141.679 172.069 141.435C173.582 141.159 175.124 141.048 176.664 141.104C175.265 141.755 173.867 142.287 172.456 142.773C171.045 143.258 169.659 143.743 168.248 144.205C166.838 144.667 165.439 145.116 164.003 145.543C162.567 145.969 161.132 146.371 159.621 146.703Z" fill="#231F20"/>
<path d="M292.718 173.728C293.641 176.888 296.026 179.161 298.324 181.469C299.51 182.653 300.683 183.837 301.732 185.104C302.781 186.37 303.93 187.471 305.016 188.785C306.155 190.091 307.081 191.551 307.763 193.118C308.461 194.744 308.669 196.523 308.362 198.255C308.182 199.134 307.812 199.968 307.276 200.705C306.72 201.415 306.003 201.997 305.178 202.41C304.383 202.829 303.491 203.053 302.581 203.061C301.679 203.077 300.799 202.802 300.084 202.28C300.835 202.579 301.656 202.68 302.463 202.574C303.269 202.468 304.03 202.158 304.666 201.676C305.292 201.257 305.814 200.714 306.196 200.084C306.577 199.455 306.81 198.754 306.876 198.03C307.002 196.56 306.727 195.085 306.077 193.745C305.417 192.352 304.555 191.054 303.518 189.886C302.506 188.702 301.37 187.459 300.309 186.157C299.248 184.855 298.274 183.659 297.2 182.381C296.082 181.135 295.08 179.8 294.203 178.392C293.329 176.969 292.82 175.371 292.718 173.728Z" fill="#231F20"/>
<path d="M259.606 176.308C259.661 179.476 258.829 182.6 257.196 185.364C256.385 186.77 255.39 188.075 254.237 189.247C253.076 190.43 251.74 191.377 250.591 192.372C250.039 192.777 249.578 193.283 249.237 193.861C248.896 194.439 248.681 195.076 248.606 195.734C248.599 197.137 248.982 198.517 249.717 199.735C250.369 201.062 251.27 202.265 252.377 203.286C252.938 203.803 253.609 204.203 254.345 204.458C255.081 204.713 255.865 204.818 256.647 204.766C255.83 204.999 254.966 205.049 254.126 204.911C253.285 204.774 252.489 204.452 251.802 203.973C250.434 203.02 249.286 201.812 248.431 200.421C247.437 199.018 246.883 197.376 246.833 195.686C246.869 194.776 247.134 193.887 247.607 193.094C248.07 192.361 248.642 191.695 249.305 191.117C250.554 190.004 251.877 189.152 252.963 188.11C254.081 187.072 255.081 185.925 255.947 184.689C257.714 182.14 258.956 179.296 259.606 176.308Z" fill="#231F20"/>
<path d="M263.251 197.71C264.328 197.338 265.497 197.277 266.61 197.533C267.751 197.752 268.824 198.218 269.744 198.894C270.696 199.57 271.448 200.467 271.929 201.499C272.423 202.509 272.494 203.66 272.129 204.718C271.445 202.947 270.219 201.409 268.608 200.303C267.822 199.746 266.986 199.255 266.111 198.835C265.185 198.4 264.23 198.024 263.251 197.71Z" fill="#231F20"/>
<path d="M284.44 204.446C284.253 203.398 284.419 202.321 284.914 201.368C285.363 200.381 286.047 199.506 286.912 198.811C287.376 198.434 287.909 198.141 288.485 197.947C288.995 197.789 289.517 197.666 290.046 197.58C291.126 197.362 292.247 197.407 293.304 197.71C292.281 198.16 291.369 198.456 290.508 198.894C290.071 199.119 289.521 199.332 289.147 199.51C288.776 199.693 288.429 199.916 288.11 200.173C287.402 200.754 286.746 201.392 286.15 202.078C285.513 202.822 284.941 203.614 284.44 204.446Z" fill="#231F20"/>
<path d="M300.059 64.6924C302.605 63.4307 305.364 62.6013 308.212 62.242C311.155 61.7082 314.201 62.125 316.865 63.4257C318.173 64.2034 319.262 65.272 320.036 66.539C320.777 67.7335 321.42 68.9801 321.959 70.2678C323.083 72.7656 324.044 75.2869 325.143 77.7373C327.265 82.6025 329.95 87.3967 334.532 90.3087C336.804 91.7766 339.526 93.0195 341.449 95.174C342.404 96.2446 343.057 97.5276 343.347 98.9028C343.499 99.5801 343.494 100.281 343.33 100.956C343.166 101.631 342.848 102.263 342.398 102.809C342.749 102.241 342.972 101.61 343.051 100.955C343.131 100.301 343.066 99.6383 342.86 99.0093C342.483 97.7652 341.779 96.6325 340.812 95.7185C338.877 93.8955 336.255 92.8775 333.795 91.4333C331.287 89.9506 329.139 87.982 327.49 85.6566C325.891 83.3663 324.544 80.9269 323.47 78.3765C322.383 75.867 321.422 73.3338 320.373 70.8597C319.324 68.3857 318.276 65.9353 316.128 64.5622C313.768 63.2832 311.037 62.7563 308.337 63.0588C305.504 63.1863 302.71 63.7376 300.059 64.6924Z" fill="#231F20"/>
<path d="M193.207 62.4551C188.958 70.1924 185.889 78.4626 184.093 87.018C183.219 91.2203 182.757 95.612 184.617 99.4473C186.477 103.283 189.923 106.349 193.245 109.379C189.499 106.881 185.591 104.17 183.256 100.051C182.149 97.9842 181.555 95.7045 181.521 93.3865C181.501 91.132 181.735 88.882 182.22 86.6747C183.979 77.9394 187.729 69.6737 193.207 62.4551Z" fill="#231F20"/>
<path d="M374.885 171.23C376.373 169.969 378.058 168.935 379.88 168.164C380.342 167.975 380.804 167.785 381.266 167.631C381.748 167.434 382.256 167.299 382.776 167.229C383.091 167.198 383.408 167.256 383.688 167.395C383.966 167.54 384.196 167.758 384.35 168.022C384.59 168.468 384.77 168.942 384.886 169.431C385.9 173.085 386.458 176.839 386.547 180.617C386.613 184.411 386.194 188.199 385.298 191.898C384.437 195.58 383.226 199.166 382.065 202.718C379.667 209.82 377.258 216.923 374.411 223.93C373.748 225.744 372.964 227.515 372.064 229.234C371.181 231.02 369.686 232.471 367.822 233.348C365.958 234.225 363.835 234.477 361.8 234.063C359.807 233.755 357.993 232.786 356.681 231.329C358.097 232.574 359.888 233.365 361.804 233.593C363.719 233.82 365.662 233.471 367.357 232.596C368.973 231.695 370.252 230.337 371.015 228.713C371.81 227.033 372.498 225.31 373.075 223.552C375.572 216.508 377.944 209.406 380.292 202.244C382.639 195.083 385.036 188.039 385.124 180.676C385.205 176.989 384.828 173.306 384 169.703C383.825 168.768 383.638 167.892 382.814 167.951C382.354 167.991 381.902 168.082 381.465 168.223C381.003 168.353 380.541 168.496 380.079 168.661C378.232 169.287 376.484 170.152 374.885 171.23Z" fill="#231F20"/>
<path d="M367.419 198.35C368.268 198.651 368.982 199.219 369.442 199.96C369.921 200.692 370.2 201.526 370.253 202.386C370.319 203.252 370.151 204.12 369.766 204.908C369.405 205.695 368.77 206.343 367.968 206.743C368.334 205.358 368.472 203.929 368.38 202.505C368.283 201.082 367.959 199.681 367.419 198.35Z" fill="#231F20"/>
<path d="M372.65 184.559C374.64 187.402 375.708 190.735 375.722 194.147C375.746 195.873 375.52 197.594 375.048 199.261C374.467 200.76 374.048 202.311 373.799 203.89C373.856 205.589 373.743 207.289 373.462 208.968C373.201 209.894 372.723 210.751 372.064 211.477C371.474 212.132 370.831 212.741 370.141 213.3C367.558 215.464 365.555 218.178 364.298 221.22C364.896 217.848 366.579 214.735 369.117 212.306C370.334 211.321 371.245 210.04 371.752 208.601C371.945 207.006 372.012 205.399 371.951 203.795C372.213 202.096 372.682 200.431 373.35 198.835C373.847 197.315 374.157 195.746 374.274 194.159C374.485 190.885 373.93 187.607 372.65 184.559Z" fill="#231F20"/>
<path d="M378.706 102.229C380.865 103.36 382.716 104.953 384.112 106.881C385.571 108.817 386.585 111.021 387.091 113.352C387.596 115.682 387.581 118.087 387.046 120.412C386.547 122.703 385.496 124.855 383.975 126.697C384.806 124.601 385.355 122.413 385.611 120.187C385.843 118.021 385.729 115.834 385.273 113.7C384.82 111.565 384.024 109.509 382.914 107.603C381.758 105.649 380.344 103.843 378.706 102.229Z" fill="#231F20"/>
<path d="M187.451 231.057C187.79 233.954 188.701 236.765 190.136 239.343C191.581 241.9 193.178 244.378 194.918 246.765C196.603 249.215 198.201 251.666 199.999 254.01C201.797 256.353 203.67 258.638 205.63 260.864C209.563 265.291 213.721 269.54 218.016 273.684C220.176 275.755 222.299 277.85 224.558 279.744C226.815 281.664 229.201 283.444 231.7 285.071C236.733 288.328 242.061 291.156 247.619 293.523C248.993 294.139 250.391 294.707 251.79 295.334L252.838 295.772L253.363 295.997H253.475C253.113 295.997 252.651 295.997 253.238 295.938H253.375H253.488L253.787 295.997L256.01 296.506C258.981 297.145 261.965 297.69 264.987 298.128C271.045 298.886 277.157 299.195 283.266 299.051H287.861C289.378 299.054 290.89 298.867 292.355 298.495C295.315 297.832 298.174 296.719 301.095 295.962C298.199 296.909 295.414 298.163 292.43 298.957C290.94 299.397 289.396 299.656 287.836 299.726L283.228 299.951C277.066 300.268 270.887 300.118 264.75 299.501C261.674 299.167 258.619 298.677 255.598 298.033L253.338 297.536L253.076 297.477C253.625 297.406 253.151 297.477 252.764 297.477L252.614 297.406L252.077 297.193L251.016 296.755C249.605 296.175 248.206 295.571 246.795 294.979C241.129 292.624 235.697 289.791 230.564 286.515C228.018 284.823 225.587 282.98 223.285 280.999C220.975 279.01 218.865 276.88 216.73 274.796C212.4 270.635 208.299 266.265 204.444 261.704C200.615 257.122 197.147 252.28 194.069 247.215C192.431 244.738 190.947 242.173 189.624 239.532C188.31 236.873 187.571 233.991 187.451 231.057Z" fill="#231F20"/>
<path d="M357.281 223.836C357.057 227.782 356.476 231.703 355.545 235.555C354.543 239.405 353.185 243.164 351.487 246.789C349.817 250.427 347.86 253.941 345.632 257.3C343.409 260.662 340.962 263.87 338.477 267.031C333.483 273.246 328.489 279.744 321.921 284.787C318.679 287.298 315.198 289.518 311.521 291.416C307.852 293.274 304.075 294.934 300.209 296.388C303.892 294.577 307.563 292.754 311.046 290.658C314.595 288.654 317.939 286.339 321.035 283.745C327.19 278.608 332.035 272.227 337.029 265.989C342.138 259.856 346.565 253.24 350.239 246.244C353.824 239.176 356.201 231.612 357.281 223.836Z" fill="#231F20"/>
<path d="M371.602 152.29C372.198 152.322 372.786 152.434 373.35 152.621C373.862 152.774 374.359 152.968 374.835 153.201C375.313 153.431 375.769 153.701 376.196 154.006C376.664 154.349 377.083 154.747 377.445 155.19C376.848 155.369 376.214 155.409 375.597 155.309C374.426 155.136 373.347 154.604 372.526 153.793C372.095 153.37 371.778 152.854 371.602 152.29Z" fill="#231F20"/>
<path d="M372.513 157.581C373.05 157.664 373.425 157.747 373.762 157.83C374.07 157.903 374.371 158.002 374.661 158.126C374.955 158.244 375.235 158.391 375.497 158.564C375.86 158.778 376.206 159.015 376.534 159.274C376.382 159.456 376.193 159.607 375.979 159.719C375.764 159.831 375.528 159.901 375.285 159.925C374.819 159.99 374.343 159.928 373.912 159.748C373.483 159.57 373.119 159.278 372.863 158.907C372.568 158.525 372.443 158.05 372.513 157.581Z" fill="#231F20"/>
<path d="M177.126 160.647C176.622 161.398 175.969 162.05 175.203 162.565C174.451 163.061 173.632 163.46 172.768 163.749C171.905 164.052 171.002 164.24 170.084 164.305C169.153 164.428 168.205 164.367 167.299 164.128C168.106 163.718 168.94 163.358 169.797 163.05C170.596 162.731 171.382 162.447 172.169 162.174C172.955 161.902 173.755 161.63 174.579 161.381C175.409 161.083 176.26 160.838 177.126 160.647Z" fill="#231F20"/>
<path d="M176.476 157.605C175.959 158.46 175.311 159.238 174.554 159.913C173.826 160.595 173.032 161.21 172.181 161.748C171.338 162.288 170.444 162.752 169.509 163.133C168.556 163.535 167.547 163.806 166.513 163.938C167.195 163.211 167.943 162.542 168.748 161.938C169.517 161.343 170.317 160.786 171.145 160.268C171.969 159.759 172.806 159.262 173.642 158.812C174.544 158.325 175.493 157.921 176.476 157.605Z" fill="#231F20"/>
<path d="M176.139 168.247C175.72 169.059 175.129 169.78 174.404 170.366C173.71 170.966 172.922 171.461 172.069 171.834C171.223 172.216 170.323 172.479 169.397 172.615C168.457 172.775 167.493 172.751 166.563 172.544C167.334 172.079 168.134 171.66 168.96 171.289C169.734 170.91 170.496 170.579 171.27 170.224C172.044 169.869 172.806 169.537 173.605 169.206C174.432 168.846 175.278 168.526 176.139 168.247Z" fill="#231F20"/>
<path d="M172.843 172.935C172.351 173.53 171.718 174.009 170.995 174.331C170.297 174.663 169.546 174.883 168.773 174.983C168.001 175.087 167.216 175.067 166.45 174.923C165.662 174.797 164.917 174.492 164.278 174.036C164.992 173.819 165.723 173.653 166.463 173.538C167.162 173.408 167.836 173.313 168.523 173.219C169.21 173.124 169.872 173.053 170.583 173.006C171.334 172.933 172.089 172.909 172.843 172.935Z" fill="#231F20"/>
<path d="M172.993 180.226C172.676 180.763 172.203 181.202 171.632 181.493C171.091 181.789 170.493 181.979 169.872 182.05C169.252 182.121 168.623 182.072 168.024 181.907C167.395 181.757 166.827 181.436 166.388 180.984C166.943 180.787 167.516 180.637 168.099 180.534C168.609 180.425 169.126 180.342 169.647 180.286C170.159 180.286 170.671 180.179 171.207 180.167C171.803 180.142 172.4 180.161 172.993 180.226Z" fill="#231F20"/>
<path d="M183.531 129.597C185.26 131.091 187.217 132.328 189.337 133.267C190.385 133.741 191.422 134.226 192.495 134.64C193.528 135.085 194.592 135.461 195.679 135.765C197.84 136.274 200.099 136.274 202.259 135.765C204.522 135.244 206.704 134.448 208.752 133.397C207.063 135.077 204.98 136.355 202.671 137.126C200.277 137.983 197.665 138.131 195.18 137.552C192.843 136.842 190.623 135.822 188.587 134.522C186.483 133.321 184.741 131.625 183.531 129.597Z" fill="#231F20"/>
<path d="M236.07 51.6712C234.681 57.7853 234.123 64.043 234.41 70.2916C234.41 71.8423 234.547 73.4048 234.722 74.9555C234.84 76.5002 235.264 78.01 235.97 79.4064C236.757 80.7545 237.919 81.8722 239.329 82.6381C240.745 83.4197 242.259 84.0282 243.836 84.4492C246.995 85.3252 250.254 85.7987 253.525 86.4379C256.885 86.9605 260.161 87.8832 263.276 89.1842C266.494 90.5358 269.218 92.7599 271.105 95.5765C272.726 98.4217 273.692 101.561 273.939 104.786H273.764C272.957 101.773 271.641 98.9026 269.869 96.2867C267.951 93.8772 265.385 92.0006 262.44 90.8533C259.451 89.6191 256.339 88.6713 253.151 88.0242C249.863 87.3634 246.636 86.457 243.499 85.3134C241.917 84.7233 240.403 83.9816 238.979 83.0998C237.533 82.2163 236.32 81.0296 235.434 79.6314C234.633 78.2003 234.06 76.6644 233.735 75.0739C233.373 73.5114 233.086 71.937 232.886 70.3389C232.254 63.9384 233.3 57.4888 235.933 51.5646L236.07 51.6712Z" fill="#231F20"/>
<path d="M211.536 157.025C212.019 155.304 213.001 153.746 214.37 152.527C215.679 151.25 217.162 150.143 218.778 149.236C222.018 147.365 225.655 146.197 229.428 145.815C231.351 145.657 233.289 145.809 235.159 146.265C237.041 146.738 238.792 147.595 240.29 148.774C241.693 149.945 242.949 151.264 244.036 152.704C245.142 154.101 246.152 155.564 247.058 157.084C245.809 155.782 244.648 154.48 243.312 153.273C242.095 152.029 240.762 150.891 239.329 149.875C236.456 148.015 232.971 147.2 229.515 147.579C227.766 147.723 226.04 148.056 224.371 148.573C222.654 149.062 220.983 149.688 219.377 150.443C217.778 151.192 216.27 152.105 214.882 153.166C213.451 154.174 212.302 155.499 211.536 157.025Z" fill="#231F20"/>
<path d="M215.032 153.793C216.039 154.16 217.069 154.468 218.116 154.717C219.165 154.942 220.226 155.202 221.25 155.38C223.341 155.734 225.449 155.987 227.568 156.137L230.801 156.398C231.875 156.528 232.911 156.587 233.973 156.646C236.084 156.762 238.2 156.509 240.215 155.9C238.403 157.182 236.23 157.923 233.973 158.031C231.771 158.142 229.563 158.099 227.368 157.901C225.155 157.74 222.969 157.343 220.85 156.717C219.796 156.386 218.766 155.991 217.766 155.533C216.778 155.07 215.859 154.485 215.032 153.793Z" fill="#231F20"/>
<path d="M240.203 161.109C239.197 162.544 237.704 163.609 235.97 164.128C234.318 164.707 232.6 165.104 230.851 165.311C227.367 165.724 223.83 165.317 220.551 164.128L225.657 163.903C227.33 163.808 228.991 163.69 230.652 163.5C232.312 163.311 233.96 163.086 235.571 162.79C237.218 162.529 238.793 161.957 240.203 161.109Z" fill="#231F20"/>
<path d="M211.536 152.29C212.649 150.255 214.351 148.563 216.443 147.413C218.516 146.274 220.736 145.395 223.048 144.797C224.205 144.498 225.381 144.268 226.569 144.11C227.787 143.956 229.021 143.956 230.239 144.11C232.626 144.351 234.921 145.112 236.944 146.336C234.722 145.787 232.436 145.5 230.14 145.483C229.033 145.469 227.928 145.568 226.843 145.779C225.732 145.967 224.632 146.208 223.547 146.501C222.448 146.774 221.375 147.117 220.301 147.46C219.226 147.799 218.171 148.194 217.142 148.644C215.06 149.535 213.162 150.769 211.536 152.29Z" fill="#231F20"/>
<path d="M341.774 158.351C340.921 156.902 339.697 155.681 338.215 154.8C336.803 153.866 335.292 153.072 333.708 152.432C330.548 151.075 327.173 150.224 323.719 149.911C320.352 149.556 316.954 150.241 314.03 151.864C312.585 152.769 311.231 153.8 309.985 154.942C308.737 156.066 307.488 157.309 306.239 158.493C307.173 157.039 308.221 155.654 309.373 154.35C310.513 152.998 311.821 151.781 313.269 150.727C316.379 148.688 320.159 147.777 323.919 148.159C327.575 148.496 331.121 149.531 334.345 151.201C335.961 152.011 337.46 153.018 338.802 154.196C340.196 155.279 341.228 156.722 341.774 158.351Z" fill="#231F20"/>
<path d="M338.939 154.977C338.074 155.629 337.174 156.237 336.242 156.8C335.26 157.32 334.211 157.718 333.121 157.984C330.97 158.511 328.762 158.797 326.541 158.836C324.356 158.836 322.246 159.025 319.986 158.836C317.75 158.739 315.588 158.05 313.743 156.847C315.802 157.386 317.943 157.591 320.073 157.451C321.135 157.451 322.159 157.333 323.257 157.226C324.356 157.12 325.442 157.108 326.516 157.049C328.637 157.021 330.755 156.878 332.859 156.622C333.894 156.491 334.914 156.27 335.905 155.96C336.867 155.687 337.878 155.273 338.939 154.977Z" fill="#231F20"/>
<path d="M314.343 162.944C315.927 163.57 317.621 163.911 319.337 163.95C321.047 164.021 322.783 164.068 324.506 164.045C326.229 164.021 327.939 163.974 329.675 163.903C331.41 163.832 333.158 163.701 334.956 163.642C331.689 165.101 328.118 165.845 324.506 165.82C322.702 165.833 320.902 165.663 319.137 165.311C317.309 165.039 315.626 164.208 314.343 162.944Z" fill="#231F20"/>
<path d="M340.85 153.474C340.013 152.775 339.252 151.994 338.44 151.343C337.654 150.703 336.759 150.195 335.793 149.84C334.857 149.52 333.77 149.212 332.747 148.94C331.723 148.668 330.661 148.384 329.613 148.182C328.564 147.981 327.528 147.756 326.466 147.614C325.455 147.485 324.431 147.485 323.42 147.614C321.322 147.875 319.187 148.395 317.015 148.881C318.895 147.699 320.965 146.815 323.145 146.265C324.292 145.953 325.488 145.833 326.678 145.91C327.804 146.014 328.921 146.184 330.025 146.419C332.236 146.894 334.382 147.613 336.417 148.561C337.462 149.093 338.376 149.827 339.102 150.716C339.766 151.586 340.35 152.509 340.85 153.474Z" fill="#231F20"/>
<path d="M174.004 185.612C174.217 187.211 174.329 188.761 174.454 190.347C174.579 191.934 174.678 193.437 174.841 194.976C175.003 196.515 175.128 198.042 175.278 199.593C175.428 201.143 175.602 202.694 175.677 204.328C174.877 202.916 174.26 201.418 173.842 199.865C173.406 198.314 173.113 196.729 172.968 195.13C172.827 193.554 172.827 191.97 172.968 190.395C173.098 188.766 173.447 187.159 174.004 185.612Z" fill="#231F20"/>
<path d="M368.83 178.427C368.948 180.347 368.948 182.272 368.83 184.192C368.746 186.107 368.55 188.015 368.243 189.91C367.929 191.823 367.444 193.708 366.795 195.544C366.173 197.398 365.255 199.151 364.073 200.741C365.084 197 365.783 193.366 366.395 189.637C366.732 187.779 367.007 185.908 367.382 184.026C367.737 182.132 368.22 180.262 368.83 178.427Z" fill="#231F20"/>
<path d="M161.668 151.994C161.711 152.125 161.718 152.264 161.689 152.398C161.661 152.532 161.598 152.658 161.506 152.763V152.669C161.806 152.799 162.205 152.396 162.58 152.231L163.729 151.603L166.001 150.349L166.438 151.059L164.877 152.136L164.365 151.26C165.921 150.484 167.422 149.614 168.86 148.656L168.561 149.473C168.597 149.565 168.655 149.649 168.731 149.717C168.806 149.784 168.898 149.835 168.997 149.863C169.103 149.896 169.217 149.896 169.322 149.863C169.432 149.834 169.525 149.766 169.584 149.674C169.649 149.594 169.69 149.5 169.706 149.4C169.721 149.301 169.709 149.2 169.672 149.106L168.735 148.668C169.452 148.429 170.142 148.124 170.795 147.756L171.507 149.153C170.784 149.447 170.097 149.817 169.459 150.254L168.748 148.774C169.515 148.565 170.241 148.237 170.895 147.804L171.707 149.319C168.797 150.222 166.063 151.574 163.616 153.32L162.592 151.911C164.515 150.917 166.463 149.922 168.511 149.082C170.559 148.214 172.722 147.613 174.941 147.294L175.178 148.242C173.929 148.549 172.743 148.81 171.532 149.094C170.321 149.378 169.035 149.65 167.849 149.899C169.01 149.437 170.184 148.999 171.357 148.585C172.531 148.17 173.705 147.709 174.891 147.306L175.128 148.253C173.058 148.752 171.056 149.475 169.16 150.408C167.237 151.307 165.414 152.361 163.479 153.403L162.468 151.994C165.045 150.064 167.979 148.606 171.12 147.697L177.113 145.779L171.932 149.212C171.1 149.771 170.164 150.173 169.172 150.396L164.465 151.426L168.473 148.916C169.231 148.436 170.043 148.039 170.895 147.732L171.607 149.129C170.844 149.536 170.03 149.85 169.185 150.064L168.536 150.242L168.248 149.626C168.202 149.498 168.189 149.361 168.211 149.227C168.233 149.093 168.288 148.966 168.373 148.857C168.487 148.714 168.644 148.606 168.823 148.549C169.001 148.493 169.194 148.493 169.372 148.549C169.508 148.585 169.633 148.651 169.737 148.742C169.842 148.832 169.922 148.945 169.971 149.07L170.121 149.626L169.672 149.887C168.129 150.809 166.504 151.601 164.815 152.254L164.303 151.378L165.963 150.455L166.388 151.165L163.953 152.136L162.705 152.621L162.093 152.858C161.985 152.925 161.859 152.96 161.731 152.96C161.602 152.96 161.476 152.925 161.369 152.858C161.509 152.763 161.614 152.628 161.668 152.473C161.722 152.317 161.722 152.15 161.668 151.994Z" fill="#231F20"/>
<path d="M375.397 146.561C375.01 146.561 374.798 146.561 374.661 146.561C374.523 146.561 374.461 146.561 374.461 146.501C374.461 146.442 374.461 146.501 374.661 146.501C375.144 146.423 375.638 146.423 376.122 146.501C376.271 146.501 376.334 146.501 376.334 146.501C376.334 146.501 376.334 146.501 376.122 146.561C375.909 146.62 375.809 146.537 375.397 146.561Z" fill="#231F20"/>
<path d="M220.176 117.961C221.941 117.145 223.827 116.59 225.77 116.316C226.796 116.199 227.837 116.259 228.841 116.493C229.888 116.762 230.843 117.284 231.613 118.009C233.161 119.5 233.723 121.37 234.784 122.744C235.863 124.16 237.15 125.423 238.605 126.496C240.041 127.68 241.614 128.721 243.137 129.846C244.66 130.971 246.184 132.095 247.669 133.255C250.691 135.544 253.633 137.911 256.497 140.358C253.201 138.44 249.954 136.428 246.795 134.332C243.637 132.237 240.553 130.154 237.419 127.834C235.841 126.635 234.457 125.223 233.311 123.643C232.175 121.974 231.65 120.175 230.552 118.908C229.947 118.303 229.21 117.831 228.393 117.524C227.575 117.217 226.697 117.084 225.82 117.133C223.91 117.188 222.014 117.466 220.176 117.961Z" fill="#231F20"/>
<path d="M310.784 120.719C313.381 122.14 315.004 124.72 316.44 127.076C317.876 129.432 319.2 131.906 321.222 133.516C322.255 134.331 323.435 134.961 324.706 135.374C326.026 135.852 327.377 136.247 328.751 136.558C331.523 137.197 334.407 137.647 337.229 138.381C334.307 138.429 331.386 138.271 328.489 137.907C325.427 137.654 322.498 136.606 320.024 134.877C317.883 132.844 316.223 130.403 315.154 127.715C313.918 125.218 312.857 122.696 310.784 120.719Z" fill="#231F20"/>
<path d="M322.234 119.488C324.543 119.547 326.803 119.725 329.063 119.903L335.805 120.483L342.56 121.122C344.808 121.347 347.067 121.584 349.34 121.939C347.078 122.299 344.791 122.489 342.498 122.507C340.205 122.539 337.913 122.452 335.631 122.246C333.354 122.036 331.091 121.712 328.851 121.276C326.599 120.845 324.387 120.247 322.234 119.488Z" fill="#231F20"/>
<path d="M260.592 111.794C260.982 112.143 261.293 112.563 261.508 113.028C261.722 113.494 261.836 113.996 261.841 114.505C261.932 115.473 262.095 116.434 262.328 117.381C262.772 119.245 263.477 121.045 264.425 122.732C266.367 126.077 269.035 128.994 272.254 131.29C275.511 133.579 279.125 135.373 282.966 136.605C286.868 137.865 290.856 138.869 294.903 139.612C290.716 139.548 286.554 138.984 282.517 137.931C278.406 136.877 274.539 135.102 271.117 132.699C267.684 130.246 264.94 127.03 263.127 123.335C262.24 121.495 261.667 119.533 261.429 117.523C261.331 116.528 261.302 115.527 261.341 114.528C261.459 113.56 261.192 112.585 260.592 111.794Z" fill="#231F20"/>
<path d="M236.357 242.551C240.043 242.117 243.631 241.122 246.983 239.603C248.669 238.902 250.301 238.087 251.865 237.165C253.413 236.23 254.936 235.2 256.497 234.217C258.066 233.197 259.715 232.291 261.429 231.507C263.202 230.658 265.139 230.163 267.122 230.051C268.129 230.043 269.132 230.162 270.106 230.406C271.005 230.595 271.904 230.773 272.815 230.938C274.609 231.276 276.423 231.509 278.247 231.637C280.017 231.802 281.803 231.735 283.553 231.436C283.974 231.353 284.391 231.25 284.802 231.128C285.289 231.021 285.776 230.879 286.262 230.784C287.26 230.623 288.275 230.579 289.284 230.654C293.354 230.986 296.775 233.105 299.759 235.07C300.534 235.555 301.295 236.04 302.082 236.443C302.868 236.845 303.755 237.283 304.579 237.769C306.164 238.737 307.682 239.8 309.124 240.953C310.515 242.098 312.07 243.051 313.743 243.782C315.462 244.443 317.269 244.877 319.112 245.072C317.224 245.073 315.348 244.785 313.556 244.22C311.773 243.588 310.093 242.723 308.562 241.651C307.092 240.592 305.558 239.615 303.967 238.727C303.168 238.289 302.369 237.958 301.47 237.544C300.571 237.129 299.784 236.68 298.973 236.218C297.375 235.306 295.814 234.383 294.178 233.649C292.612 232.924 290.92 232.475 289.184 232.323C288.327 232.279 287.468 232.331 286.625 232.477C286.2 232.56 285.788 232.678 285.376 232.773C284.964 232.868 284.415 233.057 283.94 233.14C282.02 233.489 280.057 233.581 278.109 233.412C276.214 233.254 274.33 232.993 272.466 232.631C271.542 232.465 270.618 232.276 269.706 232.075C268.893 231.862 268.054 231.746 267.209 231.731C265.457 231.799 263.737 232.201 262.153 232.915C260.492 233.641 258.879 234.459 257.321 235.366C255.723 236.265 254.162 237.236 252.514 238.124C250.87 239.014 249.154 239.778 247.382 240.408C245.615 241.023 243.81 241.533 241.976 241.935C240.137 242.357 238.25 242.563 236.357 242.551Z" fill="#231F20"/>
<path d="M239.616 242.113C241.293 241.748 243.05 241.923 244.61 242.61C246.221 243.202 247.707 243.983 249.268 244.599L251.577 245.593L253.925 246.481C255.473 247.108 257.096 247.534 258.682 248.067C261.886 249.009 265.152 249.752 268.458 250.293C271.756 250.857 275.096 251.174 278.446 251.24C285.155 251.383 291.849 250.586 298.311 248.872C299.947 248.505 301.52 247.937 303.131 247.452L307.875 245.712C309.53 245.23 311.241 244.944 312.969 244.859C314.67 244.741 316.379 244.764 318.076 244.93C314.71 244.905 311.366 245.446 308.2 246.528C306.714 247.144 305.116 247.866 303.555 248.505C301.994 249.144 300.371 249.689 298.723 250.174C295.469 251.192 292.126 251.937 288.735 252.4C278.466 253.76 268.002 252.699 258.27 249.31C256.684 248.695 255.061 248.126 253.513 247.463L251.178 246.445L248.918 245.321C247.395 244.575 245.971 243.687 244.461 242.953C242.976 242.207 241.284 241.914 239.616 242.113Z" fill="#231F20"/>
<path d="M243.874 242.48C255.286 241.213 266.735 240.337 278.247 240.112C289.758 239.887 301.37 240.586 312.52 243.332C301.153 242.094 289.709 241.612 278.272 241.888C266.822 242.054 255.373 242.598 243.874 242.48Z" fill="#231F20"/>
<path d="M380.679 128.52C383.176 131.634 386.31 134.037 388.62 137.493C390.68 140.819 392.765 144.3 393.514 148.384C393.884 152.398 393.139 156.434 391.354 160.091C389.714 163.659 387.854 167.134 385.785 170.496C387.034 166.803 388.707 163.228 389.981 159.617C391.254 156.007 392.216 152.243 391.666 148.632C391.327 146.803 390.749 145.022 389.943 143.329C389.181 141.577 388.245 139.884 387.334 138.156C386.347 136.502 385.232 134.919 384 133.421C382.758 131.873 381.648 130.234 380.679 128.52Z" fill="#231F20"/>
<path d="M368.318 164.246C368.77 164.736 369.187 165.254 369.567 165.797C369.929 166.282 370.253 166.767 370.578 167.253C370.903 167.738 371.215 168.235 371.514 168.756C371.86 169.317 372.168 169.899 372.438 170.496C371.705 170.4 371.012 170.122 370.428 169.691C369.856 169.283 369.369 168.777 368.992 168.2C368.606 167.622 368.343 166.979 368.218 166.306C368.052 165.623 368.086 164.911 368.318 164.246Z" fill="#231F20"/>
<path d="M366.508 171.23L367.182 172.414C367.369 172.733 367.519 173.017 367.669 173.302C367.819 173.586 367.931 173.882 368.068 174.225L368.543 175.409C368.276 175.462 368 175.465 367.732 175.416C367.464 175.367 367.209 175.268 366.982 175.125C366.535 174.858 366.183 174.47 365.971 174.012C365.738 173.561 365.655 173.053 365.734 172.556C365.759 172.296 365.84 172.044 365.974 171.816C366.107 171.588 366.289 171.388 366.508 171.23Z" fill="#231F20"/>
<path d="M364.123 175.432C364.561 175.866 364.951 176.342 365.284 176.853C365.599 177.298 365.886 177.761 366.146 178.238C366.413 178.713 366.65 179.204 366.857 179.706C367.101 180.259 367.285 180.834 367.407 181.422C366.753 181.268 366.155 180.954 365.671 180.51C365.184 180.104 364.781 179.614 364.485 179.066C364.188 178.518 363.993 177.926 363.911 177.314C363.815 176.68 363.888 176.033 364.123 175.432Z" fill="#231F20"/>
<path d="M228.479 216.84C227.905 218.095 227.231 219.207 226.581 220.391C225.932 221.575 225.333 222.64 224.833 223.788C224.334 224.937 223.897 226.156 223.485 227.34C223.073 228.523 222.686 229.826 222.136 231.092C221.92 229.756 221.891 228.399 222.049 227.056C222.19 225.692 222.543 224.355 223.098 223.09C223.674 221.832 224.439 220.66 225.37 219.61C226.275 218.562 227.32 217.631 228.479 216.84Z" fill="#231F20"/>
<path d="M327.602 220.675C328.358 221.556 328.972 222.537 329.425 223.587C330.38 225.677 330.779 227.958 330.586 230.228C330.505 231.366 330.248 232.487 329.825 233.554C329.519 232.48 329.285 231.389 329.126 230.287L328.589 227.127L328.027 223.978C327.813 222.886 327.671 221.783 327.602 220.675Z" fill="#231F20"/>
<path d="M270.93 271.304C272.036 270.188 273.412 269.343 274.938 268.842C276.461 268.309 278.072 268.037 279.695 268.037C281.302 268.026 282.902 268.245 284.44 268.688C285.967 269.101 287.42 269.731 288.747 270.558C287.161 270.416 285.651 270.203 284.152 270.049C282.676 269.895 281.193 269.816 279.707 269.813C276.711 269.809 273.738 270.314 270.93 271.304Z" fill="#231F20"/>
<path d="M373.312 145.637C374.061 145.637 374.711 146.194 375.272 146.312L375.048 146.88C375.096 146.899 375.15 146.899 375.198 146.88C375.241 146.849 375.273 146.807 375.291 146.758C375.309 146.71 375.311 146.658 375.297 146.608C375.297 146.466 375.297 146.537 375.297 146.513C375.376 146.503 375.456 146.503 375.535 146.513C375.634 146.539 375.725 146.587 375.801 146.653C375.877 146.719 375.936 146.801 375.972 146.892L376.384 147.969L375.26 147.33C374.736 147.034 374.236 146.715 373.724 146.419L374.436 145.46L376.621 146.786L381.203 149.579L375.809 148.123L373.887 147.591L374.773 146.206C375.236 146.595 375.787 146.878 376.384 147.034L375.547 148.549C374.808 147.997 374.023 147.502 373.2 147.07L374.174 145.602C374.761 146.028 375.36 146.442 375.934 146.892C376.509 147.342 377.108 147.756 377.67 148.218L376.696 149.307L375.547 148.123L376.359 147.2L377.807 148.384L377.145 148.952C376.958 148.502 376.71 148.076 376.409 147.685C376.27 147.482 376.087 147.308 375.871 147.178C375.656 147.047 375.413 146.962 375.16 146.928C375.445 146.877 375.739 146.886 376.019 146.956C376.3 147.025 376.561 147.153 376.783 147.33C377.226 147.672 377.617 148.07 377.944 148.514L379.28 150.183L377.283 149.07L375.622 148.147L376.446 147.224L377.757 148.289L376.796 149.366C376.159 148.999 375.547 148.597 374.935 148.182C374.324 147.768 373.687 147.389 373.1 146.999L374.074 145.531C375.02 145.99 375.908 146.55 376.721 147.2L380.092 149.923L375.897 148.739C375.017 148.495 374.218 148.043 373.574 147.425L370.89 144.75L374.461 146.04L376.334 146.715L375.61 148.028L373.637 146.371L374.349 145.424C374.835 145.85 375.322 146.265 375.784 146.691L375.073 147.117C375.073 147.212 375.198 147.224 375.148 147.2C375.079 147.15 375.003 147.111 374.923 147.082C374.835 147.043 374.757 146.988 374.695 146.918C374.632 146.849 374.587 146.767 374.561 146.679C374.547 146.61 374.552 146.539 374.576 146.472C374.6 146.406 374.642 146.347 374.698 146.3C374.772 146.244 374.865 146.215 374.96 146.217C375.038 146.2 375.12 146.2 375.198 146.217L374.985 146.786C374.249 146.478 373.961 145.85 373.312 145.637Z" fill="#231F20"/>
<path d="M373.599 145.483C374.985 146.049 376.332 146.698 377.632 147.425L376.771 148.395C376.313 148.05 375.829 147.737 375.322 147.46C374.689 147.117 374.126 146.668 373.662 146.134L371.027 142.82L374.848 144.88C376.016 145.507 377.019 146.377 377.782 147.425L381.153 152.16L376.496 148.609C376.009 148.242 375.547 147.839 375.073 147.425C374.598 147.01 374.149 146.643 373.699 146.241L371.352 144.122L374.324 145.081C375.162 145.38 375.908 145.873 376.496 146.513C377.045 147.103 377.514 147.755 377.894 148.455C377.22 148.005 376.646 147.531 375.934 147.141C375.336 146.765 374.666 146.504 373.962 146.371L374.586 145.187C375.11 145.507 375.622 145.827 376.109 146.17C376.596 146.513 377.12 146.845 377.595 147.2L376.346 148.384C375.683 147.565 374.876 146.86 373.962 146.3L375.21 145.057C375.54 145.468 375.931 145.831 376.371 146.134C376.922 146.526 377.424 146.975 377.869 147.472L377.008 148.455C375.798 147.543 374.659 146.55 373.599 145.483Z" fill="#231F20"/>
<path d="M284.127 322.016C284.666 323.515 284.816 325.115 284.564 326.68C284.306 328.263 283.725 329.783 282.854 331.155C281.976 332.5 280.871 333.7 279.583 334.706C278.324 335.724 276.887 336.525 275.338 337.073C276.461 335.89 277.547 334.872 278.559 333.747C279.555 332.66 280.453 331.496 281.243 330.267C282.031 329.05 282.668 327.751 283.141 326.396C283.609 324.967 283.939 323.501 284.127 322.016Z" fill="#231F20"/>
<path d="M328.751 278.123C325.298 284.402 322.757 291.096 321.197 298.021C319.387 304.887 317.988 311.931 315.404 318.678C316.553 311.575 317.601 304.579 319.374 297.595C320.257 294.094 321.434 290.666 322.895 287.344C324.351 284.01 326.325 280.902 328.751 278.123Z" fill="#231F20"/>
<path d="M315.404 318.678C316.064 320.433 316.394 322.284 316.378 324.147C316.424 326.003 316.37 327.86 316.215 329.71C315.853 333.404 315.242 337.073 314.517 340.719C313.813 344.374 312.9 347.99 311.783 351.551C310.523 355.082 308.97 358.514 307.138 361.814C306.252 363.459 305.303 365.093 304.342 366.703C303.404 368.356 302.378 369.964 301.27 371.52C300.645 372.329 299.891 373.039 299.035 373.628L296.725 375.297L294.465 377.025C293.67 377.615 292.836 378.157 291.968 378.647C288.521 380.496 284.807 381.856 280.944 382.683C277.129 383.554 273.189 383.822 269.282 383.476C273.159 383.475 277.014 382.925 280.719 381.843C284.418 380.878 287.951 379.41 291.207 377.487C291.992 377.001 292.743 376.467 293.454 375.889L295.689 374.077L297.974 372.349C298.688 371.843 299.312 371.231 299.822 370.538C300.858 369.106 301.795 367.448 302.731 365.803C303.667 364.158 304.591 362.583 305.465 360.95C307.259 357.725 308.795 354.378 310.06 350.935C311.309 347.514 312.133 343.892 313.069 340.34C314.005 336.789 314.717 333.155 315.254 329.521C315.552 327.709 315.743 325.884 315.828 324.052C315.982 322.251 315.839 320.437 315.404 318.678Z" fill="#231F20"/>
<path d="M191.397 244.954C191.542 245.057 191.662 245.188 191.748 245.34C191.835 245.491 191.885 245.658 191.896 245.83C191.922 246.175 191.896 246.521 191.821 246.86L191.409 248.777C191.097 250.044 190.76 251.311 190.385 252.554C189.674 255.063 188.85 257.525 188.101 259.999C187.351 262.473 186.627 264.936 186.015 267.422C185.425 269.938 184.974 272.483 184.667 275.045C184.232 272.447 184.203 269.803 184.58 267.197C184.937 264.592 185.513 262.019 186.303 259.502C187.102 256.993 188.013 254.542 189.012 252.127C189.499 250.944 190.011 249.76 190.535 248.505L191.334 246.718C191.559 246.161 191.859 245.487 191.397 244.954Z" fill="#231F20"/>
<path d="M159.983 267.362C162.488 266.74 164.952 265.977 167.362 265.078C169.742 264.17 172.102 263.188 174.441 262.13C176.789 261.124 179.111 259.988 181.583 259.1C184.037 258.391 186.296 257.178 188.2 255.549C187.576 256.678 186.687 257.658 185.603 258.413C184.525 259.158 183.386 259.82 182.195 260.39L178.749 262.106C177.588 262.675 176.414 263.219 175.228 263.764C172.841 264.839 170.365 265.726 167.824 266.415C165.276 267.107 162.632 267.426 159.983 267.362Z" fill="#231F20"/>
<path d="M173.018 267.457V265.539H173.118C174.366 272.346 175.715 279.117 177.413 285.817C179.111 292.517 180.959 299.182 183.156 305.74C185.354 312.298 187.688 318.82 190.36 325.224C192.947 331.64 195.941 337.902 199.325 343.975C202.789 349.999 206.724 355.768 211.099 361.234L212.722 363.305C213.237 363.972 213.805 364.601 214.42 365.188C215.711 366.365 217.074 367.467 218.503 368.49L220.613 370.147C221.289 370.671 222.002 371.15 222.748 371.58C224.278 372.453 225.872 373.22 227.518 373.876C229.178 374.563 230.864 375.214 232.512 375.948C234.136 376.723 235.803 377.415 237.506 378.019C240.915 379.149 244.42 380 247.982 380.564L253.35 381.559C255.136 381.902 256.909 382.293 258.694 382.6C262.272 383.205 265.898 383.514 269.532 383.524C267.709 383.524 265.886 383.607 264.063 383.524C262.236 383.457 260.415 383.295 258.607 383.038C256.809 382.79 255.011 382.47 253.226 382.198L247.832 381.393C244.192 380.896 240.604 380.103 237.107 379.026C235.376 378.446 233.68 377.778 232.025 377.025C230.377 376.35 228.679 375.735 227.031 375.072C225.312 374.425 223.644 373.665 222.036 372.799C221.214 372.348 220.429 371.837 219.689 371.272L217.579 369.638C216.094 368.591 214.676 367.461 213.334 366.253C212.668 365.618 212.046 364.941 211.474 364.229L209.751 362.193C205.273 356.693 201.241 350.88 197.689 344.803C194.306 338.653 191.332 332.308 188.787 325.804C186.178 319.341 183.793 312.783 181.758 306.142C179.723 299.501 178.012 292.778 176.476 286.018C174.941 279.259 173.879 272.417 173.03 265.563H173.13L173.018 267.457Z" fill="#231F20"/>
<path d="M321.634 321.057C325.135 320.78 328.649 321.414 331.798 322.892C333.375 323.612 334.897 324.435 336.355 325.354L340.75 327.994L358.292 338.648C364.135 342.199 369.966 345.75 375.66 349.586C381.444 353.341 386.8 357.657 391.641 362.465C396.387 367.421 400.189 373.12 402.878 379.31C405.568 385.46 407.349 391.933 408.172 398.546C408.993 405.121 409.186 411.753 408.746 418.362C408.292 424.941 407.382 431.486 406.025 437.953C407.02 431.448 407.624 424.896 407.835 418.326C408.093 411.778 407.729 405.221 406.749 398.735C405.789 392.276 403.964 385.959 401.318 379.937C398.643 373.95 394.901 368.444 390.255 363.661C385.533 358.906 380.303 354.629 374.648 350.9C369.055 347.052 363.199 343.501 357.481 339.772L340.25 328.669L335.968 325.875C334.578 324.904 333.113 324.033 331.585 323.271C328.527 321.727 325.098 320.965 321.634 321.057Z" fill="#231F20"/>
<path d="M148.871 268.617C142.326 269.754 135.665 270.179 129.019 269.884C122.364 269.671 115.746 269.126 109.141 268.901C105.845 268.783 102.549 268.783 99.2528 268.901L96.7557 269.008L94.2586 269.244C92.623 269.422 90.9749 269.517 89.3517 269.765C82.841 270.682 76.4279 272.14 70.1863 274.121C63.9543 276.123 57.9073 278.61 52.1071 281.555C46.3514 284.598 40.8462 288.049 35.6386 291.878C30.4853 295.787 25.675 300.086 21.2552 304.733C16.8922 309.459 12.9381 314.51 9.43127 319.838C12.6365 314.308 16.3597 309.063 20.556 304.165C24.917 299.342 29.6902 294.868 34.827 290.789C40.0085 286.793 45.5434 283.229 51.3705 280.135C57.2374 277.084 63.3644 274.506 69.6869 272.429C76.0488 270.456 82.584 269.026 89.2144 268.155C90.8625 267.919 92.5356 267.836 94.2086 267.67L96.7058 267.445L99.2029 267.35C102.549 267.256 105.895 267.35 109.191 267.552C115.834 267.942 122.426 268.641 129.031 269.031C132.327 269.233 135.636 269.375 138.945 269.339C142.266 269.289 145.58 269.048 148.871 268.617Z" fill="#231F20"/>
<path d="M165.776 269.931V268.013H165.876C167.125 274.986 168.523 281.911 170.271 288.765C172.019 295.618 173.942 302.437 176.202 309.149C178.462 315.861 180.921 322.513 183.693 329.059C188.924 342.24 196.245 354.587 205.406 365.673C207.453 368.455 210.625 370.301 213.459 372.704C216.186 375.066 219.072 377.256 222.099 379.262C223.63 380.209 225.237 381.04 226.906 381.748C228.579 382.482 230.289 383.145 232.025 383.749C235.504 384.961 239.061 385.961 242.675 386.744C246.271 387.56 249.954 388.046 253.638 388.602C257.312 389.162 261.019 389.51 264.737 389.644C261.007 389.705 257.276 389.511 253.575 389.064C249.829 388.649 246.159 388.282 242.475 387.584C238.803 386.882 235.182 385.953 231.638 384.802C229.852 384.222 228.104 383.618 226.381 382.873C224.627 382.181 222.936 381.354 221.325 380.399C218.183 378.438 215.203 376.253 212.41 373.864C211.012 372.681 209.563 371.674 208.077 370.538C206.565 369.402 205.21 368.09 204.045 366.632C199.43 361.03 195.217 355.142 191.434 349.006C187.862 342.762 184.742 336.296 182.095 329.651C179.41 323.046 176.888 316.358 174.816 309.528C172.743 302.697 170.883 295.855 169.347 288.93C167.811 282.005 166.663 275.009 165.789 267.99H165.889L165.776 269.931Z" fill="#231F20"/>
<path d="M316.865 317.258C317.579 319.29 317.999 321.404 318.113 323.543C318.338 325.686 318.413 327.817 318.475 329.959C318.475 334.244 318.363 338.518 318.063 342.791C317.926 344.922 317.714 347.064 317.439 349.195C317.194 351.353 316.777 353.49 316.19 355.587C315.078 359.794 313.399 363.848 311.196 367.65C310.026 369.533 308.668 371.305 307.138 372.941C306.402 373.746 305.678 374.563 304.891 375.368C304.104 376.173 303.268 376.93 302.394 377.653L299.997 379.866L298.748 380.991C298.311 381.369 297.837 381.748 297.375 382.115C295.471 383.364 293.412 384.386 291.244 385.157C287.013 386.712 282.642 387.901 278.184 388.709C275.967 389.118 273.729 389.423 271.479 389.62C269.231 389.862 266.961 389.862 264.712 389.62C266.958 389.671 269.204 389.512 271.417 389.147C273.632 388.823 275.828 388.392 277.997 387.856C282.342 386.892 286.588 385.561 290.682 383.879C292.694 383.072 294.607 382.06 296.388 380.86L297.549 379.878L298.736 378.694L301.108 376.41C301.919 375.64 302.731 374.942 303.455 374.172C304.179 373.403 304.916 372.586 305.628 371.805C307.072 370.235 308.356 368.539 309.461 366.738C311.632 363.077 313.31 359.172 314.455 355.114C315.553 351.029 316.284 346.863 316.64 342.661C317.102 338.435 317.427 334.185 317.564 329.936C317.639 327.817 317.701 325.686 317.564 323.567C317.593 321.445 317.358 319.327 316.865 317.258Z" fill="#231F20"/>
<path d="M318.95 149.402C318.194 150.216 317.699 151.218 317.524 152.29C317.349 153.361 317.502 154.458 317.963 155.451C318.413 156.481 319.05 157.735 320.248 158.09C321.467 158.406 322.739 158.494 323.994 158.351C325.26 158.252 326.477 157.844 327.527 157.167C328.025 156.849 328.443 156.431 328.749 155.941C329.056 155.452 329.244 154.905 329.3 154.338C329.45 153.187 329.352 152.019 329.013 150.905C328.859 150.341 328.561 149.821 328.146 149.391C327.73 148.962 327.209 148.636 326.628 148.443C325.285 147.994 323.815 148.027 322.496 148.538C321.919 148.718 321.317 148.818 320.71 148.834C319.993 148.839 319.304 149.096 318.775 149.556C317.914 150.361 319.237 151.615 320.099 150.81C320.38 150.628 320.723 150.552 321.06 150.597C321.549 150.593 322.036 150.53 322.508 150.408C323.321 150.075 324.195 149.902 325.08 149.899C325.474 149.9 325.86 149.996 326.203 150.179C326.546 150.361 326.834 150.623 327.041 150.941C327.373 151.689 327.53 152.497 327.502 153.308C327.548 153.689 327.511 154.075 327.393 154.441C327.275 154.808 327.078 155.147 326.816 155.439C326.171 155.971 325.385 156.328 324.543 156.469C323.606 156.644 322.644 156.672 321.697 156.552C321.331 156.544 320.97 156.468 320.635 156.327C320.339 156.042 320.106 155.704 319.949 155.332C319.476 154.61 319.252 153.766 319.308 152.918C319.364 152.069 319.697 151.258 320.261 150.597C321.085 149.757 319.761 148.502 318.937 149.343L318.95 149.402Z" fill="#231F20"/>
<path d="M322.221 148.952C321.79 149.001 321.374 149.131 320.997 149.334C320.62 149.538 320.289 149.81 320.024 150.136C319.768 150.478 319.619 150.882 319.595 151.3C319.57 151.719 319.671 152.136 319.886 152.503C320.327 153.171 320.989 153.681 321.769 153.954C322.549 154.226 323.402 154.244 324.194 154.006C324.613 153.927 324.999 153.733 325.305 153.45C325.611 153.166 325.824 152.804 325.917 152.408C325.983 151.999 325.949 151.582 325.816 151.187C325.684 150.793 325.458 150.433 325.155 150.136C324.624 149.545 323.896 149.145 323.091 149.003C322.287 148.86 321.455 148.985 320.735 149.354C318.887 150.384 318.962 152.503 319.1 154.267H320.972C320.871 153.216 320.838 152.161 320.873 151.106C320.873 150.136 319.237 149.922 319.037 150.869C318.755 152.213 318.572 153.574 318.488 154.942C318.488 155.177 318.587 155.403 318.762 155.569C318.938 155.736 319.176 155.829 319.424 155.829C319.673 155.829 319.911 155.736 320.086 155.569C320.262 155.403 320.361 155.177 320.361 154.942L320.511 152.574H318.638C318.581 153.204 318.581 153.838 318.638 154.468C318.713 155.178 318.862 155.782 319.649 156.054C319.889 156.113 320.143 156.08 320.358 155.962C320.573 155.845 320.73 155.653 320.798 155.427C320.935 154.81 320.935 154.173 320.798 153.557L319 154.03C319.204 154.592 319.494 155.123 319.861 155.604C319.966 155.768 320.125 155.895 320.312 155.966C320.5 156.037 320.706 156.049 320.902 156C321.097 155.951 321.27 155.843 321.395 155.693C321.521 155.543 321.591 155.358 321.597 155.166C321.62 154.632 321.586 154.097 321.497 153.568L319.699 154.042L320.223 155.356C320.284 155.561 320.422 155.739 320.61 155.856C320.798 155.974 321.024 156.023 321.247 155.995C321.47 155.969 321.675 155.867 321.825 155.708C321.974 155.549 322.057 155.344 322.059 155.131C322.033 154.506 321.911 153.888 321.697 153.296C321.64 153.111 321.523 152.947 321.361 152.83C321.199 152.712 321.001 152.648 320.798 152.645C320.593 152.646 320.395 152.71 320.233 152.827C320.071 152.945 319.953 153.11 319.899 153.296C319.736 154.172 319.287 156.185 320.66 156.386C322.034 156.587 322.296 154.788 321.909 153.9C321.672 153.344 320.835 152.941 320.336 153.509C319.687 154.267 319.175 155.735 320.273 156.398C320.521 156.549 320.815 156.618 321.108 156.594C321.402 156.571 321.679 156.456 321.896 156.267C322.096 156.049 322.217 155.776 322.239 155.488C322.262 155.2 322.185 154.913 322.021 154.669C321.794 154.235 321.438 153.873 320.997 153.628C320.849 153.55 320.684 153.506 320.514 153.498C320.345 153.49 320.176 153.518 320.02 153.581C319.864 153.643 319.724 153.739 319.613 153.86C319.501 153.98 319.419 154.124 319.374 154.279C319.087 155.226 319.487 156.954 320.735 156.989C320.981 156.981 321.214 156.884 321.387 156.72C321.561 156.555 321.662 156.334 321.672 156.102C321.741 155.721 321.712 155.33 321.586 154.963C321.459 154.596 321.24 154.263 320.948 153.995C320.772 153.865 320.56 153.786 320.338 153.769C320.116 153.753 319.894 153.798 319.699 153.9C319.498 154.027 319.341 154.206 319.246 154.416C319.151 154.626 319.121 154.858 319.162 155.084C319.173 155.472 319.308 155.848 319.549 156.163C319.789 156.478 320.125 156.716 320.511 156.847C320.914 156.944 321.341 156.889 321.704 156.695C322.066 156.501 322.336 156.183 322.458 155.806C322.606 155.447 322.638 155.055 322.549 154.68C322.46 154.304 322.254 153.963 321.959 153.699C321.035 153.071 320.136 153.971 320.148 154.882C320.149 155.259 320.238 155.63 320.409 155.97C320.58 156.31 320.827 156.609 321.135 156.847C321.31 156.994 321.526 157.091 321.756 157.128C321.987 157.164 322.224 157.138 322.44 157.053C322.656 156.968 322.843 156.827 322.979 156.646C323.114 156.465 323.193 156.252 323.207 156.031C323.263 155.645 323.202 155.253 323.032 154.899C322.862 154.545 322.589 154.243 322.246 154.03C322.06 153.943 321.856 153.896 321.648 153.893C321.441 153.89 321.235 153.93 321.046 154.012C320.857 154.094 320.69 154.214 320.556 154.365C320.423 154.515 320.326 154.692 320.273 154.882C320.109 155.23 320.063 155.617 320.141 155.99C320.22 156.363 320.419 156.704 320.71 156.966C321.052 157.198 321.476 157.292 321.89 157.227C322.304 157.163 322.675 156.945 322.92 156.623C323.199 156.371 323.404 156.056 323.515 155.708C323.627 155.359 323.641 154.989 323.557 154.634C323.498 154.434 323.393 154.249 323.247 154.094C323.102 153.939 322.921 153.818 322.719 153.739C322.517 153.66 322.298 153.626 322.08 153.64C321.861 153.653 321.649 153.714 321.459 153.817C321.122 154.055 320.864 154.381 320.718 154.755C320.571 155.129 320.543 155.535 320.635 155.924C320.66 156.13 320.728 156.329 320.836 156.509C320.943 156.689 321.089 156.846 321.263 156.971C321.437 157.097 321.636 157.187 321.848 157.237C322.06 157.287 322.28 157.295 322.496 157.262C324.331 156.824 323.57 153.71 322.046 153.379C320.86 153.119 320.161 154.373 320.511 155.309C320.62 155.709 320.862 156.066 321.202 156.326C321.541 156.586 321.96 156.735 322.396 156.753C322.557 156.75 322.716 156.709 322.855 156.632C322.995 156.555 323.112 156.446 323.195 156.315C323.357 156.015 323.452 155.687 323.473 155.351C323.495 155.014 323.442 154.678 323.32 154.362C323.008 153.604 322.196 153 321.36 153.545C320.186 154.314 320.548 156.847 322.184 156.8C322.431 156.797 322.667 156.702 322.842 156.537C323.017 156.371 323.117 156.147 323.12 155.912C323.14 155.63 323.087 155.348 322.965 155.09C322.843 154.832 322.656 154.606 322.421 154.433C322.17 154.264 321.866 154.179 321.559 154.192C321.252 154.205 320.957 154.315 320.723 154.504C320.324 154.889 320.089 155.401 320.063 155.941C320.038 156.48 320.224 157.01 320.585 157.427C321.672 158.41 322.895 157.12 323.157 156.113C323.233 155.846 323.232 155.564 323.153 155.297C323.073 155.031 322.92 154.789 322.708 154.598C322.466 154.377 322.145 154.25 321.809 154.243C321.66 154.226 321.509 154.226 321.36 154.243H321.26C321.147 154.243 321.135 154.243 321.26 154.243L321.734 154.373H321.659L321.996 154.693V154.598L322.134 155.048C322.134 154.811 322.134 154.575 322.134 154.338C322.134 154.101 322.134 154.137 322.134 154.03C322.134 153.924 322.134 153.888 322.134 153.805C322.134 153.722 322.134 153.71 322.134 153.876L321.572 154.279H321.672H321.172C321.357 154.418 321.525 154.577 321.672 154.752C321.864 154.975 322.016 155.227 322.121 155.498C322.204 155.855 322.321 156.203 322.471 156.54C322.628 156.77 322.871 156.935 323.152 157.001C323.433 157.067 323.729 157.029 323.982 156.895C324.93 156.469 324.256 154.93 323.257 155.273C322.672 155.468 322.13 155.765 321.659 156.149C321.544 156.259 321.462 156.395 321.42 156.545C321.378 156.694 321.377 156.851 321.419 157.001C321.461 157.15 321.543 157.287 321.657 157.397C321.771 157.507 321.914 157.587 322.071 157.629C322.726 157.784 323.418 157.708 324.019 157.416C324.564 157.218 325.091 156.977 325.592 156.694C326.725 156.196 327.633 155.331 328.152 154.255C328.4 153.041 328.187 151.784 327.552 150.704C327.326 150.126 326.929 149.622 326.409 149.253C325.888 148.883 325.267 148.664 324.618 148.62V150.396C325.243 150.337 325.68 150.905 325.867 151.402C326.07 152.22 326.014 153.077 325.705 153.864L327.502 154.338L328.089 151.627L326.379 151.84C326.53 152.282 326.572 152.752 326.5 153.212C326.429 153.672 326.246 154.11 325.967 154.492C325.474 155.27 324.716 155.867 323.819 156.185L324.531 157.806C324.98 157.534 325.505 157.155 325.505 156.623C325.505 156.09 324.993 155.711 324.618 155.332C324.244 154.953 324.369 155.013 324.431 154.657C324.492 154.38 324.437 154.091 324.279 153.851C324.121 153.611 323.871 153.437 323.582 153.367C323.423 153.33 323.257 153.332 323.1 153.374C322.943 153.416 322.799 153.495 322.684 153.604C322.568 153.714 322.484 153.85 322.44 153.999C322.397 154.148 322.394 154.306 322.433 154.456C322.506 154.728 322.654 154.976 322.863 155.174C323.072 155.372 323.333 155.512 323.619 155.581C323.909 155.663 324.217 155.663 324.506 155.581C324.704 155.512 324.876 155.391 325.003 155.231C325.129 155.071 325.204 154.88 325.218 154.681C325.262 154.53 325.264 154.371 325.222 154.219C325.18 154.067 325.097 153.928 324.98 153.817L324.856 153.722C324.752 153.63 324.629 153.56 324.494 153.519C324.359 153.477 324.216 153.464 324.075 153.481C323.934 153.498 323.799 153.545 323.679 153.617C323.559 153.689 323.458 153.786 323.382 153.9C323.132 154.312 323.061 154.8 323.182 155.261C323.236 155.449 323.353 155.615 323.515 155.735C323.677 155.854 323.876 155.921 324.081 155.924C324.358 155.935 324.631 155.859 324.858 155.707C325.084 155.554 325.25 155.335 325.33 155.084C325.396 154.869 325.41 154.643 325.374 154.422C325.337 154.201 325.25 153.991 325.118 153.805C324.993 153.61 324.794 153.468 324.561 153.408C324.328 153.349 324.081 153.376 323.869 153.486C323.555 153.64 323.317 153.904 323.205 154.223C323.093 154.541 323.116 154.888 323.27 155.19C323.4 155.453 323.62 155.666 323.894 155.794C324.095 155.893 324.323 155.93 324.546 155.9C324.77 155.871 324.979 155.775 325.143 155.628C325.318 155.528 325.454 155.378 325.533 155.199C325.611 155.02 325.628 154.822 325.58 154.634L325.505 154.373C325.463 154.226 325.38 154.092 325.267 153.984C325.153 153.876 325.011 153.798 324.856 153.758C324.46 153.632 324.028 153.659 323.652 153.831C323.276 154.004 322.987 154.309 322.845 154.681C322.794 154.817 322.779 154.963 322.801 155.106C322.823 155.249 322.882 155.384 322.972 155.501C323.062 155.618 323.18 155.712 323.317 155.775C323.454 155.838 323.605 155.869 323.757 155.865C323.947 155.869 324.135 155.833 324.308 155.758C324.48 155.683 324.633 155.571 324.753 155.432C324.874 155.293 324.959 155.129 325.002 154.954C325.046 154.779 325.047 154.596 325.005 154.421C324.978 154.249 324.912 154.086 324.811 153.941C324.71 153.797 324.577 153.675 324.421 153.585C324.265 153.494 324.09 153.438 323.908 153.418C323.727 153.399 323.543 153.418 323.37 153.474C322.708 153.557 322.596 154.314 322.808 154.776C322.923 154.956 323.077 155.11 323.26 155.229C323.442 155.349 323.65 155.43 323.868 155.468C324.086 155.506 324.31 155.5 324.525 155.45C324.741 155.4 324.943 155.307 325.118 155.178C325.791 154.765 326.277 154.127 326.479 153.391C326.878 152.03 326.841 149.319 324.743 149.366C324.561 149.372 324.384 149.427 324.233 149.525C324.083 149.624 323.966 149.761 323.896 149.921C323.826 150.081 323.807 150.257 323.84 150.427C323.872 150.597 323.956 150.755 324.081 150.881C324.568 151.41 324.842 152.085 324.855 152.786C324.869 153.488 324.622 154.171 324.156 154.717C323.332 155.545 324.656 156.812 325.48 155.971C325.894 155.558 326.217 155.072 326.432 154.539C326.646 154.007 326.747 153.44 326.728 152.87C326.663 151.681 326.195 150.543 325.392 149.627L324.731 151.142C324.656 151.142 324.656 151.023 324.731 151.142C324.775 151.264 324.8 151.392 324.806 151.521C324.853 151.914 324.853 152.311 324.806 152.704C324.763 152.985 324.651 153.252 324.481 153.486C324.394 153.592 324.306 153.628 324.231 153.71C324.156 153.793 324.144 153.71 324.144 153.77C324.144 153.829 324.443 153.853 324.493 153.935L323.932 155.238H323.52L323.145 154.74L323.27 154.291L323.382 154.196L323.857 154.066H323.757L324.656 155.19C325.205 153.545 324.231 155.486 324.356 155.498L323.694 154.882L323.769 155.131L324.194 154.137L323.944 154.291H324.88C324.981 154.393 325.038 154.529 325.038 154.669C325.038 154.81 324.981 154.945 324.88 155.048L323.632 154.728C323.794 154.965 323.632 154.728 323.632 154.622L324.443 154.184H324.169L325.08 154.835L323.619 155.013L323.744 155.107L323.495 154.243V154.515L324.144 153.9C323.932 153.971 324.206 153.9 324.294 153.959C324.325 153.981 324.351 154.009 324.369 154.042L323.22 155.143H323.295L322.883 154.918C322.816 154.437 322.754 154.294 322.696 154.492C322.684 154.546 322.684 154.603 322.696 154.657C322.671 154.814 322.671 154.974 322.696 155.131C322.726 155.421 322.815 155.702 322.958 155.96C323.096 156.188 323.263 156.399 323.457 156.587C323.557 156.694 323.657 156.776 323.757 156.871C323.857 156.966 323.969 157.214 323.882 156.871V156.398V156.469L324.119 156.078C324.038 156.169 323.941 156.245 323.832 156.303C323.636 156.412 323.488 156.585 323.417 156.79C323.346 156.995 323.356 157.217 323.445 157.416C323.531 157.613 323.69 157.773 323.892 157.867C324.095 157.961 324.326 157.981 324.543 157.925C327.34 157.001 329.675 153.758 328.227 150.976C328.13 150.83 327.991 150.714 327.827 150.64C327.663 150.567 327.479 150.54 327.299 150.562C327.119 150.585 326.95 150.656 326.811 150.767C326.672 150.878 326.57 151.024 326.516 151.189L325.942 153.9C325.899 154.118 325.943 154.344 326.067 154.533C326.191 154.722 326.386 154.86 326.612 154.919C326.837 154.979 327.079 154.955 327.288 154.854C327.497 154.753 327.658 154.582 327.74 154.373C328.208 153.133 328.208 151.778 327.74 150.538C327.514 149.938 327.086 149.424 326.522 149.078C325.958 148.731 325.289 148.57 324.618 148.62C324.37 148.62 324.132 148.714 323.956 148.88C323.781 149.047 323.682 149.273 323.682 149.508C323.682 149.744 323.781 149.969 323.956 150.136C324.132 150.302 324.37 150.396 324.618 150.396C325.255 150.396 325.667 151.083 325.867 151.58C326.256 152.238 326.381 153.008 326.216 153.746C326.044 154.014 325.809 154.241 325.53 154.409C325.221 154.646 324.895 154.863 324.556 155.06C324.194 155.249 323.832 155.439 323.457 155.593C323.083 155.747 322.77 155.912 322.471 155.818L322.883 157.297C323.112 157.112 323.374 156.968 323.657 156.871L322.933 155.249H322.858L323.582 155.155H323.644L323.982 155.474C323.919 155.344 323.919 155.095 323.869 154.953C323.785 154.719 323.684 154.49 323.57 154.267C323.35 153.855 323.068 153.477 322.733 153.142C322.385 152.721 321.88 152.441 321.322 152.361C320.461 152.361 320.248 153.095 320.198 153.746C320.073 154.311 320.121 154.898 320.336 155.439C320.43 155.582 320.56 155.702 320.715 155.787C320.87 155.871 321.044 155.919 321.222 155.924C321.363 155.947 321.506 155.947 321.647 155.924H321.734C321.971 155.853 321.871 155.806 321.409 155.758L321.335 155.64C321.335 155.498 321.335 155.474 321.335 155.569C321.335 155.664 321.272 155.711 321.247 155.747C321.222 155.782 321.135 155.924 321.135 155.948C321.135 155.971 322.046 156.007 321.946 156.137C321.96 155.962 321.989 155.787 322.034 155.616C322.146 155.545 322.034 155.616 321.722 155.699C321.409 155.782 321.385 155.829 321.272 155.699C321.16 155.569 321.272 155.593 321.272 155.794L322.209 154.906C322.354 154.971 322.493 155.05 322.621 155.143C322.621 155.143 322.621 154.965 322.621 154.93C322.621 154.894 322.621 154.823 322.621 154.776C322.621 154.729 322.621 154.776 322.621 154.776L322.196 155.001H322.296H321.797C321.472 154.93 321.622 154.764 321.647 155.107C321.658 155.186 321.658 155.265 321.647 155.344L322.458 154.906C322.533 154.906 322.583 155.072 322.458 154.906C322.458 154.965 322.321 154.693 322.358 154.717C322.071 154.778 321.788 154.853 321.509 154.942C321.509 155.013 321.647 155.214 321.672 155.297C321.697 155.38 321.672 155.569 321.734 155.675C321.797 155.782 321.734 155.675 321.734 155.675C322.483 155.758 322.745 155.675 322.521 155.593C322.509 155.546 322.509 155.497 322.521 155.451C322.521 155.451 322.521 155.332 322.521 155.285C322.521 155.264 322.527 155.243 322.538 155.224C322.549 155.206 322.564 155.19 322.583 155.178C322.259 155.391 322.021 155.38 321.847 155.178C321.672 154.977 321.847 154.989 321.784 155.178C321.722 155.368 321.697 155.32 321.647 155.38C321.372 155.735 321.472 155.38 321.884 155.569C321.984 155.628 321.984 155.699 322.034 155.675C322.084 155.652 322.034 155.403 322.034 155.486C321.929 155.568 321.8 155.619 321.664 155.632C321.529 155.644 321.392 155.618 321.272 155.557C321.272 155.498 321.272 155.557 321.272 155.652C321.397 156.042 321.122 155.652 321.497 155.462L321.971 155.332C322.383 155.332 322.084 155.439 322.146 155.332L322.046 155.166C322.046 155.06 322.046 154.965 321.971 154.871C321.896 154.776 322.196 154.705 321.847 155.048L321.434 155.273H321.509H321.085L320.673 155.048C320.673 155.048 320.673 154.977 320.673 155.048C320.667 155.103 320.667 155.159 320.673 155.214C320.673 155.391 320.573 155.214 320.735 155.214C320.851 155.197 320.969 155.197 321.085 155.214C321.085 155.214 321.085 155.084 321.085 155.214C321.085 155.344 321.085 155.143 321.085 155.214C321.085 155.285 321.085 155.214 321.085 155.214C321.085 155.214 321.085 155.131 321.085 155.332L320.748 155.652H320.823L320.099 155.735L319.811 155.522L319.886 155.64C319.886 155.711 319.886 155.782 319.886 155.865C319.911 156.026 319.911 156.189 319.886 156.35L320.823 155.462H320.723L321.385 155.723C321.259 155.485 321.228 155.212 321.297 154.953L321.047 155.344L321.11 155.273L320.698 155.51H320.785H320.286C320.148 155.51 320.286 155.51 320.286 155.593C320.339 155.659 320.385 155.731 320.423 155.806C320.423 155.865 320.423 155.806 320.423 155.628L320.66 155.238L321.035 155.107L321.522 155.403C321.597 155.403 321.385 155.581 321.522 155.403C321.659 155.226 321.584 155.19 321.659 155.095L320.099 154.705C320.155 154.817 320.193 154.937 320.211 155.06C320.198 155.099 320.198 155.14 320.211 155.178C320.136 155.391 320.211 155.356 320.386 155.084L320.86 154.965H320.773L321.434 155.226L321.672 155.616C321.672 155.687 321.672 155.675 321.672 155.616C321.666 155.545 321.666 155.474 321.672 155.403C321.672 155.261 321.672 155.107 321.672 154.965C321.672 154.823 321.672 154.444 321.759 154.196H319.961C320.126 154.634 320.223 155.093 320.248 155.557L322.096 155.32L321.497 153.474C321.473 153.353 321.423 153.238 321.35 153.136C321.276 153.035 321.182 152.949 321.072 152.884C320.962 152.819 320.839 152.776 320.71 152.759C320.582 152.741 320.451 152.749 320.326 152.782C320.201 152.815 320.085 152.872 319.984 152.95C319.884 153.028 319.801 153.124 319.742 153.234C319.683 153.344 319.649 153.464 319.642 153.586C319.634 153.709 319.654 153.832 319.699 153.947C319.737 154.321 319.737 154.698 319.699 155.072L321.447 154.622C321.168 154.258 320.941 153.86 320.773 153.438C320.691 153.23 320.53 153.058 320.321 152.957C320.112 152.856 319.871 152.833 319.645 152.893C319.419 152.952 319.224 153.09 319.1 153.279C318.976 153.467 318.932 153.693 318.975 153.912C319.043 154.216 319.043 154.531 318.975 154.835L320.136 154.219H320.049L320.461 154.456C320.548 154.527 320.461 154.717 320.461 154.527C320.461 154.338 320.461 154.409 320.461 154.385C320.461 154.172 320.461 153.947 320.461 153.734C320.436 153.32 320.436 152.905 320.461 152.491C320.461 152.256 320.362 152.03 320.186 151.863C320.011 151.697 319.773 151.603 319.524 151.603C319.276 151.603 319.038 151.697 318.862 151.863C318.686 152.03 318.588 152.256 318.588 152.491L318.438 154.859H320.311C320.384 153.666 320.543 152.48 320.785 151.307L318.95 151.071C318.935 152.13 318.989 153.19 319.112 154.243C319.121 154.476 319.223 154.697 319.397 154.861C319.57 155.026 319.803 155.122 320.049 155.131C320.296 155.128 320.532 155.033 320.707 154.868C320.882 154.702 320.982 154.478 320.985 154.243C320.91 153.249 320.573 151.627 321.584 150.929C321.796 150.804 322.034 150.725 322.281 150.696C322.529 150.667 322.78 150.689 323.017 150.761C323.255 150.833 323.473 150.953 323.656 151.113C323.84 151.273 323.985 151.468 324.081 151.686C324.231 152.065 324.081 152.219 323.669 152.29C323.146 152.385 322.604 152.335 322.109 152.148C321.923 152.066 321.764 151.94 321.647 151.781C321.591 151.718 321.551 151.643 321.53 151.563C321.508 151.484 321.505 151.4 321.522 151.319C321.672 150.869 322.321 150.751 322.77 150.68C323.008 150.617 323.21 150.466 323.332 150.262C323.453 150.058 323.485 149.817 323.42 149.591C323.35 149.367 323.191 149.176 322.978 149.06C322.764 148.943 322.511 148.908 322.271 148.964L322.221 148.952Z" fill="#231F20"/>
<path d="M224.047 147.247C223.614 147.667 223.279 148.169 223.064 148.72C222.849 149.27 222.758 149.857 222.798 150.443C222.729 151.494 222.804 152.548 223.023 153.58C223.356 154.629 223.937 155.593 224.721 156.398C225.126 156.914 225.68 157.308 226.315 157.532C226.951 157.757 227.642 157.803 228.304 157.664C228.78 157.537 229.185 157.237 229.43 156.83C229.675 156.422 229.742 155.94 229.615 155.486C229.463 155.049 229.14 154.683 228.714 154.463C228.287 154.243 227.788 154.186 227.318 154.302C227.618 154.302 227.667 154.302 227.468 154.302C227.767 154.362 227.817 154.362 227.617 154.302C227.88 154.421 227.917 154.433 227.742 154.302C227.568 154.172 227.605 154.231 227.817 154.373C227.73 154.373 227.505 154.077 227.455 154.018L227.293 153.817C227.443 154.018 227.468 154.042 227.293 153.888C227.118 153.734 226.893 153.332 226.706 153.036C226.519 152.74 226.619 152.894 226.706 153.119C226.706 153.036 226.644 152.953 226.606 152.858C226.569 152.764 226.544 152.562 226.506 152.408C226.469 152.255 226.506 152.314 226.506 152.539C226.5 152.452 226.5 152.365 226.506 152.278C226.506 152.089 226.506 151.911 226.506 151.734C226.506 151.367 226.506 150.988 226.506 150.621C226.488 150.436 226.488 150.25 226.506 150.065C226.506 150.317 226.506 150.341 226.506 150.136C226.506 150.065 226.506 149.994 226.506 149.923C226.526 149.85 226.551 149.779 226.581 149.709C226.456 149.958 226.431 150.005 226.581 149.828C226.731 149.65 226.656 149.709 226.481 149.934L226.656 149.792C227.007 149.46 227.205 149.008 227.205 148.538C227.2 148.068 227.003 147.618 226.656 147.283C226.304 146.952 225.829 146.765 225.333 146.762C224.842 146.789 224.375 146.972 224.009 147.283L224.047 147.247Z" fill="#231F20"/>
<path d="M227.555 149.449C227.643 149.283 227.555 149.307 227.43 149.544C227.568 149.413 227.53 149.437 227.305 149.615L227.493 149.508C227.218 149.615 227.181 149.627 227.368 149.508C227.555 149.39 227.955 149.354 228.267 149.295C228.354 149.295 229.016 149.153 228.529 149.295C228.731 149.258 228.935 149.238 229.141 149.236C229.503 149.218 229.865 149.218 230.227 149.236H230.839C231.188 149.236 230.677 149.236 230.589 149.153C230.502 149.07 230.352 148.975 230.502 149.153C230.563 149.205 230.621 149.261 230.677 149.319C230.789 149.437 230.901 149.567 231.026 149.686C231.151 149.804 230.864 149.413 231.026 149.686C231.075 149.749 231.116 149.816 231.151 149.887C231.251 150.065 231.238 150.029 231.151 149.792C231.179 149.877 231.2 149.964 231.213 150.053C231.213 149.792 231.213 149.769 231.213 149.97C231.213 150.171 231.213 150.266 231.213 150.42C231.213 150.574 231.213 150.514 231.213 150.254V150.503C231.213 150.668 231.138 150.822 231.089 150.976L230.939 151.39C230.939 151.509 230.939 151.461 231.001 151.248L230.889 151.461L230.627 151.899L230.477 152.101C230.364 152.254 230.377 152.231 230.539 152.03C230.477 152.243 230.077 152.515 229.915 152.657L229.715 152.811C229.915 152.669 229.927 152.657 229.715 152.811L229.378 153.012C229.266 153.012 229.028 153.249 228.904 153.249C229.145 153.154 229.17 153.154 228.978 153.249L228.729 153.344C228.438 153.455 228.13 153.523 227.817 153.545C228.092 153.545 228.117 153.545 227.917 153.545H227.643C227.464 153.556 227.284 153.556 227.106 153.545C226.611 153.551 226.138 153.74 225.789 154.072C225.439 154.403 225.239 154.851 225.233 155.32C225.245 155.788 225.447 156.232 225.795 156.563C226.144 156.893 226.613 157.084 227.106 157.096C228.675 157.172 230.23 156.779 231.55 155.971C232.915 155.118 233.956 153.874 234.522 152.42C234.847 151.702 234.989 150.921 234.935 150.141C234.88 149.362 234.632 148.605 234.21 147.934C233.754 147.22 233.125 146.619 232.375 146.182C231.474 145.847 230.502 145.721 229.54 145.815C227.805 145.886 225.208 146.075 224.334 147.78C224.082 148.186 224.011 148.671 224.136 149.127C224.262 149.584 224.573 149.974 225.002 150.212C225.431 150.451 225.942 150.518 226.423 150.4C226.904 150.281 227.316 149.986 227.568 149.579L227.555 149.449Z" fill="#231F20"/>
<path d="M225.245 147.555C224.845 147.983 224.547 148.488 224.371 149.035C224.243 149.478 224.188 149.937 224.209 150.396C224.268 151.312 224.537 152.204 224.995 153.012C225.468 153.903 226.24 154.619 227.189 155.048C228.139 155.477 229.212 155.594 230.239 155.379C230.488 155.328 230.722 155.229 230.929 155.089C231.135 154.949 231.31 154.77 231.441 154.564C231.573 154.358 231.659 154.129 231.694 153.89C231.729 153.652 231.713 153.409 231.646 153.177C231.579 152.944 231.463 152.727 231.304 152.539C231.146 152.35 230.949 152.195 230.725 152.081C230.501 151.967 230.256 151.897 230.002 151.876C229.749 151.855 229.494 151.883 229.253 151.958H228.928L229.428 151.887C229.237 151.905 229.045 151.905 228.854 151.887L229.353 151.947C229.135 151.915 228.921 151.859 228.716 151.781L229.166 151.958C228.932 151.875 228.714 151.76 228.516 151.615L228.891 151.887C228.678 151.727 228.486 151.545 228.317 151.343L228.604 151.698C228.391 151.426 228.211 151.132 228.067 150.822L228.254 151.248C228.099 150.894 227.986 150.525 227.917 150.147L227.992 150.621C227.955 150.346 227.955 150.067 227.992 149.792L227.917 150.266C227.942 150.075 227.992 149.888 228.067 149.709L227.88 150.135C227.949 149.978 228.041 149.83 228.154 149.697L227.855 150.053V149.993C228.222 149.664 228.445 149.216 228.479 148.739C228.479 148.388 228.369 148.045 228.163 147.753C227.957 147.461 227.665 147.234 227.323 147.1C226.981 146.965 226.604 146.93 226.241 146.999C225.878 147.067 225.545 147.236 225.283 147.484L225.245 147.555Z" fill="#231F20"/>
<path d="M226.519 146.987C225.878 147.781 225.426 148.698 225.195 149.674C224.936 150.811 225.067 151.998 225.57 153.059C225.814 153.558 226.166 154.003 226.602 154.366C227.037 154.729 227.548 155.002 228.101 155.168C228.654 155.334 229.237 155.389 229.814 155.33C230.391 155.27 230.948 155.098 231.451 154.823C231.862 154.577 232.168 154.199 232.312 153.758C232.411 153.417 232.401 153.055 232.282 152.72C232.163 152.384 231.941 152.09 231.644 151.875C231.348 151.66 230.99 151.534 230.618 151.513C230.245 151.492 229.874 151.577 229.553 151.757C229.449 151.83 229.336 151.89 229.216 151.935L229.665 151.757C229.515 151.809 229.36 151.849 229.203 151.876L229.703 151.805C229.495 151.828 229.286 151.828 229.078 151.805H229.578C229.362 151.78 229.151 151.724 228.953 151.639L229.403 151.817C229.232 151.746 229.068 151.659 228.916 151.556L229.303 151.828C229.151 151.713 229.012 151.582 228.891 151.438L229.178 151.805C229.021 151.608 228.891 151.393 228.791 151.165L228.978 151.592C228.873 151.336 228.798 151.07 228.754 150.798L228.829 151.272C228.791 150.969 228.791 150.663 228.829 150.36L228.754 150.834C228.817 150.427 228.934 150.029 229.103 149.65L228.904 150.065C229.128 149.596 229.404 149.152 229.728 148.739C229.975 148.325 230.042 147.837 229.915 147.377C229.779 146.932 229.471 146.552 229.053 146.312C228.836 146.193 228.597 146.116 228.348 146.086C228.099 146.055 227.847 146.072 227.605 146.134C227.145 146.275 226.752 146.564 226.494 146.951L226.519 146.987Z" fill="#231F20"/>
<path d="M229.003 149.283C229.073 149.2 229.152 149.124 229.241 149.058L228.854 149.342C228.964 149.26 229.086 149.192 229.216 149.141L228.766 149.319C228.883 149.276 229.005 149.245 229.128 149.224L228.629 149.295H228.804L227.48 146.265C227.268 146.43 227.056 146.596 226.856 146.774C226.559 147.051 226.288 147.352 226.044 147.673C225.807 148.001 225.622 148.36 225.495 148.739C225.393 149.011 225.322 149.293 225.283 149.579C225.22 149.812 225.22 150.056 225.283 150.289C225.294 150.525 225.372 150.754 225.507 150.952C225.618 151.158 225.787 151.33 225.994 151.449C226.174 151.606 226.393 151.716 226.631 151.769C226.871 151.832 227.121 151.849 227.368 151.818C227.615 151.788 227.852 151.711 228.067 151.592L228.442 151.307C228.678 151.095 228.847 150.825 228.928 150.526C228.979 150.195 229.067 149.869 229.191 149.555L229.003 149.982C229.104 149.775 229.23 149.58 229.378 149.402L229.078 149.757C229.406 149.397 229.77 149.068 230.165 148.774L230.452 148.419L230.639 147.993L230.714 147.519C230.718 147.285 230.663 147.054 230.552 146.845C230.506 146.693 230.42 146.554 230.302 146.442C230.227 146.312 230.114 146.205 229.977 146.134C229.859 146.023 229.713 145.941 229.553 145.898C229.332 145.792 229.088 145.74 228.841 145.744C228.301 145.764 227.772 145.897 227.293 146.134C227.188 146.174 227.091 146.23 227.006 146.3C226.779 146.439 226.574 146.607 226.394 146.797C226.209 146.947 226.075 147.144 226.007 147.365C225.885 147.575 225.828 147.813 225.845 148.052C225.845 148.523 226.042 148.975 226.393 149.308C226.744 149.641 227.221 149.828 227.717 149.828C228.213 149.825 228.688 149.638 229.041 149.307L229.003 149.283Z" fill="#231F20"/>
<path d="M224.908 148.384C224.802 149.603 225.035 150.827 225.582 151.935C225.823 152.536 226.192 153.083 226.667 153.541C227.142 154 227.712 154.36 228.342 154.598C229.48 154.936 230.7 154.936 231.838 154.598C233.026 154.282 234.041 153.545 234.672 152.539C234.797 152.337 234.878 152.115 234.912 151.883C234.946 151.652 234.931 151.417 234.869 151.191C234.807 150.965 234.699 150.753 234.55 150.567C234.402 150.381 234.216 150.224 234.004 150.106C233.792 149.988 233.557 149.911 233.313 149.878C233.069 149.846 232.821 149.86 232.583 149.919C232.344 149.978 232.121 150.08 231.924 150.221C231.728 150.362 231.563 150.538 231.438 150.739C231.41 150.801 231.376 150.86 231.338 150.917C231.138 151.189 231.451 150.798 231.451 150.787C231.451 150.775 231.176 151.012 231.151 151.059C231.126 151.106 231.526 150.798 231.326 150.929L231.151 151.035C231.015 151.112 230.873 151.179 230.726 151.236L231.176 151.059C230.847 151.185 230.503 151.273 230.152 151.319H230.652C230.237 151.371 229.817 151.371 229.403 151.319L229.902 151.39C229.68 151.359 229.462 151.303 229.253 151.225L229.703 151.402C229.615 151.402 229.528 151.296 229.44 151.26L229.628 151.402C229.591 151.374 229.558 151.342 229.528 151.307C229.467 151.258 229.413 151.203 229.365 151.142C229.091 150.846 229.528 151.379 229.365 151.213C229.138 150.901 228.945 150.568 228.791 150.218L228.978 150.645C228.793 150.219 228.663 149.774 228.591 149.319L228.654 149.792C228.604 149.367 228.604 148.939 228.654 148.514C228.656 148.28 228.608 148.049 228.514 147.834C228.419 147.618 228.28 147.423 228.104 147.259C227.751 146.93 227.276 146.744 226.781 146.738C226.286 146.746 225.813 146.932 225.457 147.259C225.13 147.606 224.936 148.049 224.908 148.514V148.384Z" fill="#231F20"/>
<path d="M232.824 149.745H232.986C233.237 149.759 233.487 149.71 233.711 149.603C233.944 149.525 234.154 149.395 234.322 149.224C234.497 149.067 234.63 148.872 234.709 148.656C234.822 148.443 234.874 148.207 234.859 147.969L234.797 147.508C234.712 147.209 234.549 146.936 234.322 146.714L233.935 146.442C233.648 146.282 233.32 146.196 232.986 146.194H232.824C232.573 146.19 232.325 146.243 232.1 146.347C231.868 146.421 231.658 146.547 231.488 146.714C231.315 146.878 231.183 147.076 231.101 147.295C230.99 147.503 230.938 147.736 230.951 147.969V148.443C231.033 148.739 231.197 149.008 231.426 149.224L231.813 149.508C232.099 149.67 232.428 149.752 232.762 149.745H232.824Z" fill="#231F20"/>
<path d="M231.138 148.739C231.42 149.119 231.678 149.514 231.913 149.922C232.137 150.313 231.813 149.603 231.913 150.017C231.913 150.1 231.975 150.183 232 150.278C232.025 150.372 232 150.408 232 150.467C232 150.526 232 150.562 232 150.337V150.609C232 151.011 232.112 150.289 232 150.609C231.965 150.689 231.94 150.772 231.925 150.858C232.025 150.645 232.037 150.597 231.925 150.727C231.813 150.858 231.925 150.834 231.838 150.893L231.7 151.118L231.588 151.272C231.513 151.378 231.588 151.343 231.675 151.177C231.763 151.011 231.513 151.355 231.501 151.378C231.336 151.561 231.16 151.735 230.976 151.899C230.649 152.214 230.303 152.51 229.94 152.787C229.865 152.846 229.603 153.071 229.94 152.787L229.653 152.977C229.465 153.11 229.269 153.232 229.066 153.343L228.466 153.675C228.369 153.734 228.264 153.782 228.154 153.817L228.342 153.734L228.154 153.805C227.938 153.885 227.717 153.952 227.493 154.006L227.168 154.077C226.781 154.172 227.543 154.077 227.168 154.077C226.676 154.096 226.206 154.281 225.845 154.598C225.669 154.762 225.53 154.957 225.435 155.173C225.341 155.388 225.293 155.62 225.295 155.853C225.298 156.323 225.497 156.773 225.847 157.105C226.198 157.437 226.672 157.626 227.168 157.629C229.762 157.268 232.138 156.048 233.873 154.184C234.936 153.258 235.602 151.994 235.746 150.633C235.72 149.269 235.215 147.952 234.31 146.892C234.051 146.503 233.642 146.225 233.171 146.116C232.7 146.007 232.203 146.076 231.784 146.307C231.365 146.539 231.057 146.916 230.925 147.358C230.793 147.8 230.847 148.274 231.076 148.679L231.138 148.739Z" fill="#231F20"/>
<path d="M228.179 157.416L228.629 157.356L228.129 157.416C229.103 157.297 230.09 157.285 231.051 157.108C232.42 156.851 233.648 156.143 234.519 155.11C235.39 154.076 235.846 152.784 235.808 151.461C235.808 150.99 235.611 150.539 235.26 150.206C234.908 149.873 234.432 149.686 233.935 149.686C233.439 149.686 232.962 149.873 232.611 150.206C232.26 150.539 232.062 150.99 232.062 151.461C232.081 151.69 232.081 151.919 232.062 152.148V151.674C232.015 151.987 231.927 152.293 231.8 152.586L231.987 152.172C231.89 152.38 231.778 152.582 231.65 152.775C231.551 152.917 231.276 153.166 231.65 152.775C231.563 152.858 231.501 152.953 231.413 153.036L231.151 153.272C230.789 153.568 231.438 153.095 231.151 153.272C230.946 153.394 230.733 153.505 230.514 153.604L230.964 153.426C230.519 153.595 230.053 153.706 229.578 153.758H230.077C229.091 153.876 228.08 153.888 227.093 154.066C226.623 154.193 226.222 154.485 225.969 154.882C225.844 155.088 225.763 155.315 225.731 155.551C225.699 155.787 225.716 156.026 225.782 156.256C225.937 156.694 226.262 157.06 226.691 157.279C227.12 157.499 227.62 157.556 228.092 157.439L228.179 157.416Z" fill="#231F20"/>
<path d="M231.938 151.674C231.962 151.887 231.962 152.101 231.938 152.314L232.012 151.84C231.963 152.141 231.875 152.435 231.75 152.716L231.938 152.302C231.815 152.549 231.664 152.783 231.488 153L231.775 152.645C231.561 152.899 231.314 153.126 231.039 153.32L231.426 153.048C230.916 153.405 230.386 153.737 229.84 154.042C229.316 154.368 228.77 154.661 228.204 154.918L228.654 154.74C228.481 154.806 228.301 154.853 228.117 154.882L228.616 154.823C228.505 154.841 228.391 154.841 228.279 154.823L228.766 154.894H228.604L229.053 155.072L228.904 155.001C228.691 154.883 228.456 154.805 228.213 154.773C227.969 154.741 227.721 154.755 227.482 154.814C227.244 154.872 227.02 154.975 226.824 155.116C226.628 155.257 226.462 155.433 226.338 155.634C226.213 155.835 226.132 156.058 226.098 156.289C226.064 156.52 226.078 156.756 226.14 156.982C226.202 157.207 226.311 157.419 226.459 157.606C226.608 157.792 226.793 157.949 227.006 158.067C227.559 158.329 228.175 158.446 228.792 158.407C229.409 158.367 230.004 158.172 230.514 157.842C231.276 157.451 232.025 157.013 232.762 156.551C233.646 156.034 234.401 155.339 234.972 154.515C235.493 153.674 235.748 152.709 235.708 151.734C235.708 151.263 235.511 150.811 235.16 150.478C234.808 150.145 234.332 149.958 233.835 149.958C233.339 149.958 232.862 150.145 232.511 150.478C232.16 150.811 231.963 151.263 231.963 151.734L231.938 151.674Z" fill="#231F20"/>
<path d="M224.995 154.657C225.058 154.811 225.12 154.965 225.195 155.119C225.191 155.147 225.191 155.174 225.195 155.202L225.495 155.569L225.57 155.628C225.728 155.803 225.936 155.931 226.169 155.995C226.392 156.106 226.642 156.159 226.893 156.149C227.145 156.158 227.394 156.105 227.617 155.995C227.847 155.923 228.053 155.797 228.217 155.628L228.504 155.273C228.676 155.001 228.766 154.69 228.766 154.373L228.691 153.9C228.603 153.606 228.44 153.338 228.217 153.119L228.104 153.012L228.392 153.367C228.355 153.32 228.326 153.268 228.304 153.213L228.491 153.639C228.436 153.414 228.319 153.206 228.154 153.036C228.028 152.839 227.846 152.679 227.63 152.574C227.421 152.445 227.18 152.372 226.931 152.361C226.689 152.302 226.436 152.302 226.194 152.361L225.745 152.539C225.462 152.688 225.228 152.91 225.07 153.178L224.883 153.604C224.796 153.914 224.796 154.241 224.883 154.551L224.995 154.657Z" fill="#231F20"/>
<path d="M230.976 157.605C231.252 157.531 231.52 157.432 231.775 157.309C231.902 157.258 232.024 157.194 232.137 157.12C232.371 156.971 232.593 156.805 232.799 156.623L232.936 156.481C233.084 156.319 233.222 156.149 233.348 155.972C233.484 155.778 233.561 155.553 233.573 155.32C233.635 155.087 233.635 154.843 233.573 154.61C233.526 154.382 233.408 154.172 233.236 154.006C233.109 153.81 232.928 153.65 232.712 153.545L232.262 153.367C231.939 153.284 231.599 153.284 231.276 153.367L230.826 153.545C230.546 153.698 230.313 153.918 230.152 154.184V154.255L230.452 153.9C230.339 154.037 230.209 154.16 230.065 154.267L230.439 153.995C230.286 154.106 230.118 154.198 229.94 154.267L230.389 154.089L230.077 154.184C229.839 154.237 229.62 154.347 229.44 154.504C229.233 154.624 229.065 154.796 228.953 155.001C228.818 155.199 228.74 155.428 228.729 155.664C228.666 155.897 228.666 156.141 228.729 156.374L228.916 156.788C229.077 157.054 229.31 157.274 229.59 157.428L230.04 157.605C230.367 157.688 230.711 157.688 231.039 157.605H230.976Z" fill="#231F20"/>
</svg>
